<svg width="18" height="21" viewBox="0 0 18 21" fill="none" xmlns="http://www.w3.org/2000/svg"><path d="M7.844 2.781a1.506 1.506 0 100 3.011 1.506 1.506 0 000-3.01zm-.81 3.111c-.887.002-1.05.56-1.05 1.017v5.372a.83.83 0 00.833.833l3.816-.016s1.314 1.99 1.972 2.983c.197.298.46.561.839.561.5 0 .96-.408.905-.905a1.173 1.173 0 00-.183-.556c-.587-.875-1.75-2.767-2.389-3.478a.874.874 0 00-.65-.311l-3.155.011V8.059l2.25 1.556a.71.71 0 00.989-.184.709.709 0 00-.184-.989L7.517 6.02c-.122-.084-.347-.128-.484-.128zm8.699 1.506a.21.21 0 00-.15.06l-2.806 2.806H8.8a.21.21 0 00-.211.212v.077a.21.21 0 00.21.211h4.09a.234.234 0 00.16-.06l2.889-2.89a.212.212 0 000-.3l-.056-.055a.21.21 0 00-.15-.061zM5.583 8.865A5.05 5.05 0 002 13.715c0 2.82 2.28 5.066 5.022 5.066 2.101 0 3.93-1.315 4.672-3.2l-.755-1.139a3.963 3.963 0 01-3.917 3.206c-2.233 0-3.988-1.786-3.988-3.934 0-1.656 1.048-3.095 2.55-3.666V8.865z" fill="#000" fill-opacity=".5"/></svg>