<svg width="162" height="150" fill="none" xmlns="http://www.w3.org/2000/svg"><path d="M89.339 51.196c3.568 7.779 3.02 16.729-1.695 23.953l-.263.399-10.482-3.31v-6.212c3.09-2.638 5.22-6.114 6.093-9.94l1.692-7.38h1.071a4.177 4.177 0 002.168-.598l1.416 3.088zM87.293 31.01V41.5a4.228 4.228 0 00-1.538-.287h-1.071c.002-2.424-1.002-4.753-2.801-6.498-1.799-1.744-4.251-2.767-6.841-2.854l-.382-.011a22.453 22.453 0 01-6.713-1.348l-11.303-4.096-3.702 2.423a65.346 65.346 0 01-5.2 3.08 11.072 11.072 0 00-4.244 3.918 10.151 10.151 0 00-1.552 5.386h-1.068a4.22 4.22 0 00-1.676.343V31.01c0-5.964 2.533-11.684 7.042-15.901 4.508-4.217 10.624-6.587 17-6.588h.007c6.377 0 12.492 2.37 17.001 6.588 4.509 4.217 7.042 9.937 7.041 15.9zM49.712 66.012v6.225l-10.504 3.314c-.21-.29-.41-.58-.595-.87A23.917 23.917 0 0135.04 64.43a23.51 23.51 0 011.371-10.705l2.108-5.737c.685.468 1.511.72 2.36.718h1.067l1.692 7.38c.871 3.819 2.994 7.289 6.074 9.926z" fill="#6D7486"/><path d="M103.846 80.745l-26.918-8.508-27.254.03-26.911 8.475a22.74 22.74 0 00-5.475 2.557c-4.142 2.614-7.164 6.512-8.53 11.007-.348 1.186-.433 2.409-.747 3.66v23.03h84.93l.035.059 11.451-22.072 4.49-15.933a23.007 23.007 0 00-5.071-2.305z" fill="#5FA8ED"/><path d="M91.801 100.849L76.9 120.929V74.59l13.454 14.508-4.912 6.779 6.36 4.972z" fill="#4689D3"/><path d="M49.712 120.979V81.264c3.967 2.637 8.712 4.055 13.579 4.058 4.867.002 9.614-1.41 13.583-4.044l.026-.014v39.861H49.712v-.146z" fill="#5FCDA4"/><path d="M49.712 81.264v39.714l-14.94-20.129 6.36-4.972-4.912-6.78 13.492-14.47v6.637zm-25.261 19.631v20.23H8.124v-23.16c.11-1.237.34-2.463.692-3.661 1.346-4.492 4.35-8.392 8.477-11.01l.053.07c4.579 4.836 7.106 11.072 7.105 17.531z" fill="#4689D3"/><path d="M111.232 77.095l-3.286 8.449.066.023 28.732 26.871.028.071 9.041-3.076-34.581-32.338z" fill="#C6465C"/><path d="M136.744 112.438l.028.071-13.84 4.705a57.65 57.65 0 00-12.408 5.944 55.926 55.926 0 00-3.502 2.417l-13.035-12.19-.018-.015c3.83-4.469 6.851-9.494 8.943-14.877l5.034-12.95.066.024 28.732 26.871z" fill="#E75163"/><path d="M93.988 113.385l-.02-.015a53.726 53.726 0 01-4.112 4.295c-.832.78-1.3 1.838-1.3 2.94 0 1.102.468 2.159 1.3 2.94l6.287 5.88a4.615 4.615 0 003.143 1.216 4.617 4.617 0 003.144-1.216l4.592-3.85-13.034-12.19z" fill="#C6465C"/><path d="M134.651 87.53c1.642 1.533 2.576 3.606 2.605 5.775.029 2.169-.851 4.262-2.451 5.833l-12.568-11.751c1.681-1.496 3.919-2.317 6.238-2.29 2.32.026 4.536.9 6.176 2.433zm-27.629 38.045a57.966 57.966 0 013.502-2.417l.038.053 6.957 6.507a8.283 8.283 0 011.929 2.697 7.85 7.85 0 01.678 3.183 7.848 7.848 0 01-.678 3.182 8.287 8.287 0 01-1.929 2.698l-13.974-13.07a56.994 56.994 0 013.477-2.833z" fill="#6D7486"/><path d="M49.712 65.426v15.838c3.967 2.637 8.712 4.055 13.579 4.058 4.867.002 9.614-1.41 13.583-4.044l.026-.014V65.44l-27.188-.014z" fill="#EFC597"/><path d="M87.293 41.499a3.996 3.996 0 011.562 1.085c.417.477.703 1.042.83 1.646a3.51 3.51 0 01-.097 1.817 3.708 3.708 0 01-1 1.56c-.202.19-.425.358-.665.501a4.177 4.177 0 01-2.168.598h-1.071l-1.692 7.38c-.72 3.145-2.29 6.064-4.56 8.48-2.27 2.416-5.165 4.247-8.407 5.32a21.446 21.446 0 01-10.113.806c-3.39-.544-6.573-1.891-9.248-3.913a19.324 19.324 0 01-.952-.767c-3.08-2.637-5.203-6.107-6.074-9.926l-1.692-7.38h-1.068a4.205 4.205 0 01-2.227-.63 3.812 3.812 0 01-1.477-1.68 3.52 3.52 0 01-.229-2.167 3.678 3.678 0 011.098-1.919 3.912 3.912 0 011.16-.755 4.22 4.22 0 011.675-.343h1.068a10.151 10.151 0 011.552-5.386c1.018-1.635 2.483-2.987 4.244-3.919a65.346 65.346 0 005.2-3.079l3.702-2.423 11.303 4.096a22.454 22.454 0 006.713 1.348l.382.011c2.59.087 5.042 1.11 6.841 2.854 1.799 1.745 2.803 4.074 2.8 6.498h1.072c.528 0 1.051.097 1.538.287z" fill="#FFD8B7"/><path d="M60.062 67.17a19.324 19.324 0 01-.952-.768c-3.08-2.637-5.203-6.107-6.074-9.926l-.386-1.68a51.57 51.57 0 01-1.306-11.527v-1.667a10.15 10.15 0 011.551-5.386 11.1 11.1 0 014.244-3.92 65.406 65.406 0 005.2-3.078l.353-.231-6.048-2.191-3.702 2.423a65.346 65.346 0 01-5.2 3.079c-1.761.931-3.226 2.283-4.244 3.918a10.15 10.15 0 00-1.552 5.386h-1.068a4.233 4.233 0 00-1.676.342 3.92 3.92 0 00-1.159.756 3.678 3.678 0 00-1.095 1.919 3.522 3.522 0 00.228 2.165c.304.684.817 1.27 1.476 1.68a4.207 4.207 0 002.226.632h1.068l1.692 7.38c.871 3.819 2.995 7.288 6.074 9.925.31.267.627.522.952.768a20.755 20.755 0 008.224 3.72c3.01.636 6.136.616 9.136-.058a20.696 20.696 0 01-7.962-3.661z" fill="#EAC2A4"/><path d="M145.581 98.591c-.308 0-.611-.07-.882-.206a1.848 1.848 0 01-.676-.569 1.657 1.657 0 01-.185-1.64 10.43 10.43 0 00.62-6.366c-.465-2.133-1.591-4.09-3.237-5.63-1.645-1.54-3.739-2.592-6.02-3.027a12.636 12.636 0 00-6.806.58 1.997 1.997 0 01-1.448-.002 1.901 1.901 0 01-.612-.387 1.762 1.762 0 01-.405-.578 1.657 1.657 0 01.018-1.354 1.78 1.78 0 01.42-.568c.179-.16.39-.287.622-.372a16.64 16.64 0 018.963-.764c3.003.573 5.76 1.959 7.927 3.986 2.168 2.027 3.65 4.605 4.262 7.414a13.733 13.733 0 01-.816 8.382 1.792 1.792 0 01-.693.8 1.97 1.97 0 01-1.052.301z" fill="#D4E1F4"/><path d="M152.361 101.016c-.307 0-.61-.071-.882-.206a1.84 1.84 0 01-.675-.569 1.683 1.683 0 01-.311-.799 1.647 1.647 0 01.126-.842 16.761 16.761 0 00.996-10.23c-.747-3.427-2.556-6.573-5.201-9.046-2.644-2.474-6.009-4.165-9.673-4.864a20.307 20.307 0 00-10.938.932 1.997 1.997 0 01-1.448-.002 1.901 1.901 0 01-.612-.387 1.762 1.762 0 01-.405-.578 1.657 1.657 0 01.018-1.353c.099-.214.242-.407.42-.568.179-.162.391-.288.622-.373a24.31 24.31 0 0113.094-1.116c4.387.837 8.415 2.862 11.581 5.823 3.166 2.961 5.331 6.727 6.226 10.83a20.06 20.06 0 01-1.194 12.247c-.14.325-.381.603-.691.8a1.979 1.979 0 01-1.053.301z" fill="#D4E1F4"/><path d="M56.973 94.727c-.498 0-.976-.186-1.329-.515a1.702 1.702 0 01-.55-1.243v-1.846c0-.466.198-.913.55-1.243.353-.33.83-.515 1.33-.515.498 0 .976.185 1.328.515.353.33.55.777.55 1.243v1.846a1.7 1.7 0 01-.55 1.243c-.352.33-.83.515-1.329.515zm0 21.972c-.498 0-.976-.185-1.329-.515a1.7 1.7 0 01-.55-1.243V97.949c0-.466.198-.913.55-1.243.353-.33.83-.515 1.33-.515.498 0 .976.185 1.328.515.353.33.55.777.55 1.243v16.992a1.7 1.7 0 01-.55 1.243c-.352.33-.83.515-1.329.515z" fill="#F4F8FC"/></svg>