<svg width="105" height="102" fill="none" xmlns="http://www.w3.org/2000/svg"><path fill-rule="evenodd" clip-rule="evenodd" d="M97.794 86.748c-3.98 0-7.206 2.987-7.206 6.673 0 3.685 3.226 6.673 7.206 6.673 3.98 0 7.206-2.988 7.206-6.673 0-3.686-3.226-6.673-7.206-6.673zM9.265 84.841C4.148 84.841 0 88.682 0 93.421 0 98.159 4.148 102 9.265 102c5.117 0 9.264-3.841 9.264-8.58 0-4.738-4.147-8.579-9.264-8.579zm45.294.953c-4.548 0-8.235 3.415-8.235 7.626 0 4.212 3.687 7.627 8.235 7.627s8.235-3.415 8.235-7.627c0-4.211-3.687-7.626-8.235-7.626zM10.294 42.897c-4.548 0-8.235 3.415-8.235 7.626 0 4.212 3.687 7.627 8.235 7.627s8.235-3.415 8.235-7.627c0-4.211-3.687-7.626-8.235-7.626zm44.265.953c-3.98 0-7.206 2.988-7.206 6.673 0 3.686 3.226 6.673 7.206 6.673 3.98 0 7.206-2.987 7.206-6.673 0-3.685-3.227-6.673-7.206-6.673zM9.265 0c-3.98 0-7.206 2.988-7.206 6.673s3.226 6.673 7.206 6.673c3.98 0 7.206-2.988 7.206-6.673S13.244 0 9.265 0z" fill="#FF7761"/></svg>