<svg width="63" height="59" fill="none" xmlns="http://www.w3.org/2000/svg"><path fill-rule="evenodd" clip-rule="evenodd" d="M53.705 17.129c5.134 0 9.295-3.834 9.295-8.564S58.84 0 53.705 0c-5.133 0-9.295 3.834-9.295 8.565 0 4.73 4.162 8.564 9.295 8.564zm-45.443-.952c4.563 0 8.263-3.408 8.263-7.612 0-4.205-3.7-7.613-8.263-7.613S0 4.36 0 8.565c0 4.204 3.7 7.612 8.262 7.612zM52.672 59c4.563 0 8.263-3.408 8.263-7.613 0-4.204-3.7-7.613-8.263-7.613s-8.262 3.409-8.262 7.613c0 4.205 3.7 7.613 8.262 7.613z" fill="#FF7761"/></svg>