<svg height="512pt" viewBox="0 0 512 512" width="512pt" xmlns="http://www.w3.org/2000/svg"><path d="M511.988 419.656l-68.851 68.852C427.512 504.133 405.609 512 378.94 512c-21.543-.008-46.171-5.129-73.125-15.414-56.394-21.547-117.546-63.504-172.222-118.176l-.008-.008c-54.031-54.03-95.754-114.558-117.492-170.449C-7.078 148.391-5.176 99.7 21.473 70.875l.41-.426L92.332 0l137.184 137.184-56.153 56.156c.317.488.649.976.985 1.465 18.007 27.062 39.691 53.343 64.562 78.27.2.214.41.425.621.636 25.086 25.086 51.578 46.965 78.875 65.168l56.403-56.402zm0 0" fill="#fff"/><path d="M511.988 419.656l-68.851 68.852C427.512 504.133 405.609 512 378.94 512c-21.543-.008-46.171-5.129-73.125-15.414-56.394-21.547-117.546-63.504-172.222-118.176l-.008-.008L238.91 273.078c.2.211.41.422.621.637 25.086 25.082 51.578 46.96 78.875 65.164l56.403-56.402zm0 0" fill="#fff"/><path d="M388.39 226.691l-29.222-6.851c4.45-18.969-1.09-38.485-14.813-52.207-13.722-13.727-33.242-19.266-52.214-14.82l-6.848-29.22c29.152-6.823 59.168 1.7 80.285 22.817 21.113 21.117 29.645 51.125 22.813 80.281zm0 0" fill="#FF7862"/><path d="M452.734 243.598l-29.222-6.84c9.828-41.953-2.434-85.13-32.793-115.488-30.364-30.364-73.543-42.63-115.492-32.797l-6.84-29.223c24.957-5.844 51.195-5.367 75.875 1.402 25.488 6.98 48.894 20.614 67.676 39.395 37.761 37.762 53.015 91.426 40.796 143.55zm0 0" fill="#FF7862"/><path d="M174.344 194.8L35.934 56.39l21.222-21.222L194.34 172.355l-20.98 20.98c.32.49.652.977.984 1.466zM318.41 338.871l21.223-21.219 137.176 137.176-21.223 21.223zm0 0" fill="#00d9e0"/><path d="M344.355 167.633l21.223-21.223c21.113 21.117 29.645 51.125 22.813 80.281l-29.223-6.851c4.45-18.969-1.09-38.485-14.813-52.207zm46.364-46.363l21.222-21.223c37.758 37.762 53.012 91.422 40.793 143.55l-29.222-6.84c9.828-41.952-2.434-85.128-32.793-115.487zm0 0" fill="#FF7862"/></svg>