<svg width="172" height="180" fill="none" xmlns="http://www.w3.org/2000/svg"><g clip-path="url(#clip0)" fill-rule="evenodd" clip-rule="evenodd"><path d="M.315 128.892A27.63 27.63 0 010 124.669c0-12.72 8.178-23.579 24.534-32.578 16.356-9 36.172-13.474 59.343-13.474 23.171 0 42.934 4.525 59.29 13.474 16.356 8.999 24.587 19.858 24.587 32.628 0 1.408-.105 2.816-.315 4.173a26.512 26.512 0 00-.943-4.022v-.653c0-12.569-8.074-23.278-24.22-32.176-16.146-8.9-35.595-13.323-58.452-13.323-22.856 0-42.305 4.424-58.451 13.323-16.147 8.848-24.167 19.557-24.167 32.125v.503c-.367 1.408-.682 2.765-.891 4.223z" fill="url(#paint0_linear)"/><path d="M166.548 124.87c.419 1.307.734 2.665.944 4.022.209 1.357.314 2.765.314 4.173 0 12.719-8.178 23.629-24.586 32.628-16.356 9-36.12 13.474-59.29 13.474-23.172 0-42.935-4.525-59.344-13.474C8.178 156.694 0 145.835 0 133.065c0-1.408.105-2.816.315-4.173.21-1.408.524-2.815.943-4.223 0 .452.053.905.053 1.307-.053.603-.053 1.207-.053 1.86 0 12.569 8.073 23.278 24.167 32.176 16.146 8.899 35.595 13.323 58.452 13.323 22.856 0 42.305-4.424 58.452-13.323 16.146-8.898 24.219-19.607 24.219-32.176 0-.603 0-1.206-.052-1.81 0-.352.052-.754.052-1.156z" fill="url(#paint1_linear)"/><path d="M1.31 126.026c.734 11.765 8.808 21.92 24.115 30.366 16.146 8.849 35.648 13.273 58.452 13.273 22.804 0 42.305-4.424 58.452-13.273 15.359-8.446 23.38-18.551 24.114-30.315.053.603.053 1.206.053 1.81 0 12.568-8.074 23.277-24.22 32.176-16.146 8.848-35.595 13.322-58.452 13.322-22.856 0-42.305-4.424-58.451-13.322-16.147-8.899-24.167-19.608-24.167-32.176.052-.654.052-1.257.105-1.861z" fill="url(#paint2_linear)"/><path d="M166.496 126.077c-.734 11.764-8.807 21.869-24.115 30.315-16.146 8.849-35.648 13.273-58.504 13.273-22.856 0-42.305-4.424-58.452-13.323-15.36-8.446-23.38-18.551-24.114-30.366 0-.453-.053-.855-.053-1.307v-.503c0-12.569 8.073-23.277 24.167-32.126 16.146-8.898 35.595-13.323 58.452-13.323 22.856 0 42.305 4.425 58.452 13.323 16.146 8.899 24.219 19.608 24.219 32.176v.654c0 .402-.052.804-.052 1.207z" fill="#fff"/><path d="M133.154 113.307c-.314-3.268-.629-6.184-.891-8.848.472-.151.891-.553 1.258-1.107.42-.703.682-1.307.682-1.91 0-.352-.105-.704-.262-1.005 0-.403-.262-.704-.787-.956-.419-.2-.891-.301-1.415-.402-.105-.855-.157-1.71-.262-2.514 3.355 2.665 5.033 5.681 5.085 9.1 0 2.816-1.153 5.38-3.408 7.642zm-122.407 6.284c.262-.1.472-.201.734-.352.314-.201.524-.301.576-.301a9.73 9.73 0 01.157-.956l.315-1.96L49.278 95.66c.262-.15.524-.301.786-.402l14.312 7.944c-.053.15-.053.251-.053.402l-5.504-3.067c-2.307-1.307-4.456-1.408-6.448-.302l-33.499 18.401c-1.94 1.106-1.782 2.262.524 3.57l67.416 37.102c1.626.905 3.146 1.207 4.614.956.105 2.513.105 3.871.105 4.072h.262v.05h1.468c.262 0 .524 0 .734-.05h.21v-1.81l.104-3.469 32.45-17.847c1.94-1.056 1.782-2.263-.577-3.52l-23.59-13.021 11.061-6.133c1.416 1.709 2.621 2.312 3.617 1.809 1.101-.553 1.783-1.256 2.097-2.061.262-.754.053-1.609-.524-2.564l1.048-.603c.892-.352 1.783-.805 2.622-1.257 4.089-2.262 6.081-4.927 6.081-8.094 0-1.911-.787-3.67-2.307-5.279l.053-.05c.576.05 1.153.05 1.729.1-.104.302-.209.754-.314 1.358l.891 1.307c.524 3.318 1.153 7.44 1.887 12.367a27.151 27.151 0 01-2.726 1.71 34.073 34.073 0 01-6.395 2.714l-10.799 5.983 23.538 13.021c.104.553.157 1.157.262 1.71.314.151.786.402 1.31.704.157-.352.21-.654.158-1.006l-.053-.302c1.258 1.107.996 2.162-.734 3.168l-38.636 21.367c-2.254 1.257-4.77 1.106-7.444-.403L11.271 121.15c-2.674-1.508-2.883-2.866-.63-4.072l.106-.051-.105 1.157c-.053.301-.053.553-.053.703 0 .252.053.453.158.704zm66.84-59.626l3.197 1.76c-.262.2-.891.503-1.835.955l-.314.15c-.263-.25-.472-.502-.682-.703L56.407 50.162a1.142 1.142 0 01-.262-.151s-.052 0-.052-.05l-18.086-9.955c-.315-.201-.63-.302-.892-.302l2.36-1.206 38.111 21.467zm-3.146 48.767l-.367.201-1.154-.654c0-.1.053-.251.053-.351l1.468.804zm-12.53-34.89l-1.992 1.055c-.366-.201-.786-.402-1.153-.654-3.407-1.86-6.448-3.519-9.174-5.027-.629-.352-1.258-.704-1.887-1.006l1.153-.653.787-.403c3.197 1.76 6.92 3.771 11.113 6.084.42.2.787.402 1.154.603z" fill="#F3F3FF"/><path d="M113.339 118.033c.104.15.262.352.367.452l-11.062 6.134 23.591 13.021c2.359 1.307 2.516 2.463.576 3.519l-32.45 17.898.263-7.994c.052-.854.21-5.128.419-12.82.21-7.239.367-12.368.472-15.485v-1.206c.052-.453.105-.855.157-1.207.315-1.206.786-2.363 1.573-3.418a3.33 3.33 0 01.314-.453c.105-.151.262-.251.42-.352.524-.302 2.044-1.156 4.56-2.564a188.115 188.115 0 004.561-2.514 42.036 42.036 0 012.202-1.206l4.508 5.681.053.1-.262.604c0 .05-.053.1-.053.151-.209.553-.262 1.106-.209 1.659zm5.504-2.363c-.052-.101-.105-.201-.21-.252l-2.149-1.206.21-.654c.052-.251-.053-.653-.262-1.106-.263-.503-.525-.905-.787-1.156l-.262-.402c-.891-1.157-1.73-2.162-2.411-3.067 3.827-2.112 8.283-4.575 13.368-7.391 1.52 1.609 2.306 3.369 2.306 5.279 0 3.168-2.044 5.882-6.081 8.094-.839.453-1.73.905-2.621 1.257l-1.101.604zM32.135 69.467c.787.654 1.206 1.408 1.206 2.262 0 1.106-.629 2.011-1.887 2.766-1.206.754-2.726 1.105-4.456 1.105-1.73 0-3.25-.351-4.456-1.105-1.258-.755-1.887-1.66-1.887-2.766 0-.854.42-1.659 1.258-2.312v2.513c.105.704.629 1.308 1.468 1.86.943.554 2.097.855 3.407.906h.734c1.153-.05 2.202-.352 3.04-.905.84-.553 1.364-1.157 1.469-1.86h.052v-2.464h.052zm30.93 42.834c-.105.051-.157.151-.21.201-.314.352-.681.704-.996 1.056-.157.151-.314.251-.524.402-.052.051-.052.051-.052.101-.053.05-.053.1-.105.1-.053.051-.105.051-.158.101l-.052.05c-1.153 1.006-2.15 1.76-3.04 2.263a.715.715 0 00-.21.15c-.524.252-.996.503-1.468.755-.42.201-.839.402-1.206.653-.839.453-1.572 1.056-2.306 1.76-.63.653-1.049 1.307-1.311 1.91v.151c-.157.603-.262 1.156-.262 1.76v.251c.052.654.524 1.307 1.31 1.86.105.05.21.101.263.151.367.201.733.352 1.1.503h.158v.05c.314.05.576.101.89.151h.42c1.625 0 2.936-.252 3.932-.805.682-.351 1.258-.955 1.782-1.709.472-.804.84-1.408 1.101-1.709.472-.503 1.049-.754 1.835-.754.105 0 .315.05.63.15.314.151.523.202.523.202h.263c.734-.151 1.258-.302 1.625-.403.629-.15 1.1-.352 1.363-.502.472-.302.89-.855 1.205-1.71 0-.05.053-.151.053-.201.262-.754.524-1.408.786-2.011.21-.553.315-1.558.21-2.966v-.905c-.053-.452-.105-.855-.105-1.307.157-.101.367-.201.63-.352.995-.503 1.52-1.458 1.624-2.815 0-.202.053-.403.105-.604l1.153.654.367-.201 7.811 4.323c-.157.403-.262.805-.419 1.157-.944 2.262-1.52 3.67-1.73 4.223-.21.553-.472 1.206-.786 1.86.157.151.367.251.524.402-.262.654-.682 1.609-1.206 2.916 0 .05-.052.101-.052.151-.21.402-.42.955-.63 1.609a5.33 5.33 0 00-.262 1.055c-.052.101-.104.151-.157.252-.157.302-.42.704-.734 1.206-.157.202-.262.352-.419.503-.262.352-.472.604-.681.754-.944.956-1.573 1.71-1.835 2.162-.21.352-.315.754-.367 1.207v.452c0 .453 0 .855.052 1.207.052.402.21.754.42.905.471.553 1.52.804 3.093.804 1.625 0 3.145-.402 4.613-1.156 1.52-.805 2.673-1.911 3.564-3.369.053-.1.158-.502.367-1.156.158-.553.263-.905.315-1.106.157-.553.314-.905.472-1.056.157 0 .314-.05.472-.1.052-.051.104-.051.104-.101 0 0 .053 0 .053-.05.314-.151.681-.553.996-1.207.367-.653.524-1.156.524-1.608v-.202c0-.603-.105-1.256-.21-2.011-.052-.301-.104-.653-.21-1.055-.156-.503-.261-.956-.261-1.257l1.468-.654.314-1.005.472 1.508c.105.352.157.603.157.704 0 .452.157 4.424.367 11.814.262 8.044.42 13.474.524 16.34.157 4.826.315 8.547.367 11.06-1.468.252-2.988-.05-4.613-.955l-67.416-37.053c-2.307-1.307-2.516-2.463-.524-3.569l33.498-18.401c1.94-1.055 4.09-.955 6.448.302l5.505 3.067c-.105.502-.21 1.005-.315 1.458-.052.301-.157.553-.21.854l-1.363 5.782c.105.201.262.352.42.503 0 0 .052.05.157.1zm-15.36-31.02v2.866l12.215 6.737c1.153.15 2.201-.251 3.145-1.106l-.42-.251 5.19 2.865c2.045 1.056 4.09 2.213 6.186 3.42.996.552 1.992 1.155 3.04 1.708.158.1.315.202.525.302.262.05.472.1.577.1.21 0 .472-.1.786-.351l2.15-1.358v-.402l1.467.855-6.867 3.821-42.043-23.981 3.145-1.76c.052.05.052.1.105.15a3 3 0 00.944.855c.366.201.733.402 1.1.553.472.252.892.453 1.31.704.682.352 1.312.704 1.888 1.056l1.573.905c1.468.905 2.83 1.659 3.984 2.313zm33.394-18.903l-2.15 1.207a9.64 9.64 0 01-.314-.704l.314-.15c.944-.453 1.52-.755 1.835-.956.052.15.157.251.21.402.052.05.052.1.105.201zm27.312 28.506c-.262.402-.472.704-.629 1.006-.053.05-.053.15-.105.2a1.499 1.499 0 00-.21.403c.367 1.106.891 1.91 1.625 2.413.787.503 1.835.654 3.041.453.21-.05.367-.101.524-.201.105-.101.262-.202.42-.302 1.415-1.056 2.988-1.76 4.718-2.162h.052l.157-.1c.105-.05.21-.151.315-.202v-.05c0-.1 0-.201-.053-.352a4.57 4.57 0 00-.524-1.407 2.416 2.416 0 00-.472-.654l-.314-.302c-.053-.05-.105-.15-.21-.2-.891-.604-1.52-1.006-1.94-1.157-.419-.151-1.363-.1-2.883.15-1.52.252-2.569.855-3.145 1.81-.157.252-.262.453-.367.654zm4.089-5.279l12.581 7.19-14.206 7.943-12.582-7.19 14.207-7.943z" fill="#DCDCFA"/><path d="M127.65 57.451a172.944 172.944 0 002.097-13.976c.105-.603.052-1.156-.21-1.66.105 0 .262.252.525.705.262.402.419.905.524 1.407.105.503.052 1.559-.157 3.218-.158 1.609-.577 4.123-1.206 7.541-.472 2.615-.891 5.229-1.206 7.894 0-.352-.052-.704-.052-1.107a61.588 61.588 0 00-.315-4.022zm-.629 17.194c-.157-.1-.315-.15-.524-.2-.053 0-.105-.05-.157-.05-.053-.705-.105-1.409-.158-2.062-.052-.503-.052-.905-.105-1.257.263-.201.472-.402.734-.603.158-.403.315-.754.42-1.157-.105 1.86-.053 3.72.157 5.53-.105-.05-.21-.1-.367-.2zm-2.097 9.402l-.314-1.006c.629-.301.891-.703.838-1.307-.052-.804-.262-1.357-.524-1.76-.262-.452-.577-.804-.944-1.156l-.576.302-2.988 1.558 1.31 4.525-1.415-.754-.839-3.016-.052-.252c-.525.252-1.416.654-2.674 1.257-.367-.201-.786-.402-1.153-.654l11.795-6.284.105-.05c.105.301.157.503.105.704 0 .05-.053.1-.053.15.053.202.053.403.105.604l.21.653c.157.453.314 1.207.472 2.162.157 1.006.209 1.66.157 2.011-.105.352-.524.805-1.363 1.307-.472.302-1.153.654-2.202 1.006zm1.73-4.173c-.052-.855-.105-1.659-.157-2.463a24.52 24.52 0 01-2.202 1.256c1.625 1.559 2.411 1.961 2.359 1.207zm1.52 20.613c-.576-.051-1.153-.051-1.73-.101.525-.301 1.049-.553 1.573-.855.157.302.315.654.367 1.006-.105 0-.21-.05-.21-.05zm.42 1.659c.052.301.105.653.157 1.005l-.891-1.307.734.302zm5.347-1.76c.157.302.262.604.262 1.006 0 .603-.21 1.257-.682 1.91-.366.553-.786.955-1.258 1.106-.105-1.307-.262-2.514-.367-3.67.525-.503.944-.754 1.259-.754.262 0 .524.151.786.402zm-20.235 18.149c-.105-.15-.263-.301-.367-.452l2.673.754c-.105-.553-.052-1.056.105-1.609.052-.201.157-.352.21-.553.419-.804 1.205-1.206 2.359-1.257.052.101.105.202.209.252.63 1.005.787 1.86.525 2.564-.262.804-.996 1.508-2.097 2.061-.996.553-2.202-.05-3.617-1.76zM92.002 64.892a54.477 54.477 0 00-3.302.754l-.787-3.368v-.05h.053c.052 0 .052.05.105.1l2.254-1.86c.944-1.006 2.097-2.212 3.407-3.72.105-.151.263-.302.367-.453l.053.05c-.053.1-.21.503-.472 1.207-.315.704-.63 1.207-.996 1.559-.367.351-.786.553-1.206.703-.42.151-.629.403-.734.704l1.258 4.374zm-10.694-2.061c.262-.1.524-.252.839-.402a1.8 1.8 0 01-.524.603c-.105-.05-.21-.15-.315-.201zm32.24 53.442l.262-.603-.052-.101 1.101.151.629-.201 1.206-2.011-.21.654c.157.402.052.905-.367 1.508-.419.653-1.048 1.005-1.835.955l-.786-.302.052-.05z" fill="#A6C6D7"/><path d="M129.747 43.475l-.419 1.86c-.787-3.117-2.622-5.63-5.505-7.44a77.989 77.989 0 00-8.021-4.425 60.009 60.009 0 00-3.564-2.715v-.452c.472.15.996.352 1.52.603 2.988 1.358 5.871 2.815 8.65 4.474 2.883 1.71 5.295 3.872 7.234 6.486.157.452.21 1.005.105 1.609zm-7.968 41.778a226.25 226.25 0 014.141 2.313c2.359 1.307 4.404 2.413 6.186 3.419.315.15.524.352.786.553.21.251.367.553.42.854.105.453-.053 1.006-.524 1.61a6.276 6.276 0 01-1.101.854L97.402 113.86c-.577.301-1.153.553-1.835.704-.629.15-1.31.251-1.992.251-.891 0-1.73-.101-2.411-.352-.367-.101-.682-.302-.996-.452l-75.7-41.93c-.314-.15-.576-.402-.838-.653a2.315 2.315 0 01-.315-.754c-.052-.302-.052-.553.053-.805.21-.603.734-1.156 1.52-1.659l8.23-4.575c0 .1.053.15.053.251-.839.604-1.206 1.257-1.206 2.011l-5.137 2.866c-.787.453-1.258.955-1.363 1.508-.053.302 0 .604.157.855s.367.503.682.654c.157.1.314.25.576.402.367.15.577.251.63.301l72.658 40.271c.419.251.838.452 1.31.553l.787.15a6.802 6.802 0 002.254-.05c.734-.151 1.415-.402 2.044-.804l33.027-18.25c1.625-1.056 1.992-2.011 1.048-2.916a3.815 3.815 0 00-.681-.503c-.315-.15-.525-.301-.682-.402-.996-.553-1.939-1.106-2.883-1.609a145.542 145.542 0 00-4.141-2.262c-.525-.302-.997-.553-1.416-.804a2.147 2.147 0 00-.472-.252c-.209-.1-.419-.251-.629-.352a98.06 98.06 0 01-3.512-1.96c-.21-.101-.367-.202-.577-.302-.419-.201-.786-.402-1.048-.603-.315-.151-.524-.302-.734-.403-.157-.1-.262-.15-.42-.251-1.1-.603-2.149-1.207-3.145-1.76-.052-.05-.105-.05-.157-.1-.472-.251-.891-.503-1.311-.754.472-.1.996-.252 1.468-.403.262.151.524.302.734.403.524-.403 1.153-.805 1.992-1.257a49.225 49.225 0 009.908-4.676h.105a7 7 0 011.31.403c.525.2 1.259.452 2.097.703.053 0 .105 0 .158.05.209.05.367.101.524.202.21.2.21.452 0 .653l-12.057 6.134c.209.15.471.251.681.402.419.201.786.453 1.153.654.158.1.315.15.42.251 1.101.603 2.149 1.156 3.145 1.76.42.352.891.603 1.311.854zm-95.62-23.227l.42-.251c0 .452 0 .855-.053 1.156h-.367v-.905zm-1.31.704c0 .15.052.302.052.402-.105.05-.21.05-.315.1v-.351l.263-.15zm3.145-1.408c0-.15 0-.251.052-.352l.577-.352a4.224 4.224 0 00-.105.805v.302a1.563 1.563 0 00-.42-.403h-.104zm2.15.1l-.368.202c.105-.855.157-1.408.157-1.659l.525-.302-.157.604c0 .1-.053.2-.053.351 0 .151-.052.453-.105.805zm6.342-5.127v1.609l-4.508 2.513c.105-.553.157-.955.157-1.206 0-.201 0-.352-.052-.503l4.403-2.413zm46.133 5.027l-1.678.855c-.052-.1-.157-.251-.21-.402l-3.197-1.76c.838-.603 2.097-1.307 3.722-2.162 1.258-.653 2.411-1.206 3.512-1.76-.052.202-.157.353-.21.554l-.314.754-1.258 3.167c-.053.1-.105.252-.21.403 0 .1-.052.2-.157.351zm5.085 5.028c2.464 1.357 4.823 2.664 7.077 3.921.314.201.629.352.944.503 2.935 1.609 5.714 3.167 8.335 4.625-.158.05-.315.1-.367.1h-.105c-.21-.05-.577-.15-1.206-.351a10.79 10.79 0 00-1.573-.302l-.786-.452c-.42-.201-.786-.453-1.153-.654l-2.202-1.206c-1.153-.654-2.306-1.257-3.46-1.91-1.73-.956-3.565-1.962-5.4-3.017.053-.151.105-.302.105-.453 0-.1-.052-.251-.157-.452.053-.05 0-.201-.052-.352zm-6.606-2.866v-.754c.053.05.158.05.21.1.105.05.21.151.367.202-.157.15-.367.301-.577.452z" fill="#F3DCFA"/><path d="M122.67 40.66c-.472-.704-.944-1.358-1.363-1.961a14.06 14.06 0 00-1.73-1.86c-.682-.604-1.468-1.358-2.412-2.212-.471-.403-.891-.805-1.363-1.207 2.726 1.307 5.348 2.765 8.021 4.424 2.883 1.81 4.718 4.324 5.505 7.44a299.412 299.412 0 00-1.573 8.196v.351c-.053.453-.105 1.006-.262 1.71a73.875 73.875 0 00-.787-5.078c-.262-1.206-.471-2.463-.681-3.72-.315-1.81-1.048-3.47-2.202-4.977-.419-.352-.734-.755-1.153-1.106zm-4.299 22.12c-.472-.301-.996-.653-1.52-.955-.105-.251-.21-.553-.367-.854.157-.403.367-.855.577-1.308.104-.15.262-.502.576-.904.262 1.156.525 2.513.734 4.022zm1.206 18.703c-.577.352-1.363.754-2.307 1.257-.157-.1-.314-.151-.419-.252 1.311-.603 2.202-1.005 2.674-1.257l.052.252z" fill="#EDCAF7"/><path d="M129.747 43.475a172.95 172.95 0 01-2.097 13.976c-.052-.402-.105-.804-.157-1.257 0-.2-.053-.452-.105-.653.105-.654.21-1.257.262-1.71v-.351a299.338 299.338 0 011.573-8.195l.524-1.81zm-14.102 38.36c-.21-.151-.472-.252-.681-.403l12.057-6.133c.262-.201.262-.453 0-.654.157.1.262.151.367.252.21.2.262.402.157.653l-.105.05-11.795 6.235zm-24.9 34.89c-.158-.05-.263-.1-.315-.15l-2.36-1.257-70.456-38.963c-.472-.252-.786-.403-.996-.553a3.982 3.982 0 01-.891-.654 38.264 38.264 0 00-.63-1.056v-.05c-.052-.15-.209-.402-.471-.804l-.42-.805-.052-.1c.105.1.262.2.472.352.105.1.315.2.577.352l67.73 37.454 6.972 3.872c.315.201.63.351.996.452.315.101.63.201.996.251a9.23 9.23 0 002.884 0c.996-.15 1.835-.502 2.621-1.005l33.551-18.552c.052 0 .472-.301 1.258-.804-.105.15-.262.352-.42.603-.209.302-.314.453-.366.503-.105.201-.21.352-.315.453-.105.15-.157.25-.21.352a9.144 9.144 0 01-.576.653v.05l-.158.151-.471.302s-.263.15-.734.402c-.105.05-.158.1-.262.15a304.724 304.724 0 01-3.723 2.062 4684.182 4684.182 0 01-12.476 6.888c-.734.402-1.468.804-2.15 1.206-.524.302-1.048.553-1.572.855a965.699 965.699 0 00-11.48 6.385c-.315.151-.525.302-.682.402-.263.151-.525.302-.734.402-.787.302-1.625.503-2.517.503-.89 0-1.782-.1-2.62-.302zm26.158-54.9c.525.302.996.654 1.521.955.209 1.157.367 2.363.576 3.72-.052.051-.105.051-.157.101a33.205 33.205 0 00-1.835-4.524c-.052-.101-.105-.151-.105-.252zm9.436 12.62c-.891-.302-1.572-.503-2.096-.705-.577-.2-.996-.352-1.311-.402h-.105c.42-.251.839-.503 1.206-.754a51.313 51.313 0 002.044-1.458c0 .352.053.804.105 1.257.105.603.157 1.307.157 2.061zm-9.069 8.295c.944-.503 1.73-.956 2.307-1.257l.839 3.016a97.328 97.328 0 01-3.146-1.76zm7.34.301l-1.154-3.921.577-.302c.367.302.681.704.943 1.157.263.402.42.955.525 1.76 0 .602-.262 1.055-.891 1.306zm2.044-3.167c0 .754-.734.352-2.307-1.207.996-.502 1.73-.955 2.202-1.257.053.805.105 1.61.105 2.464zm-45.66-17.697l1.677-.855c-.105.252-.262.553-.42.905-.052.05-.052.151-.104.252-.315.15-.577.301-.839.402a.404.404 0 00-.21-.1v-.352c-.052-.151-.052-.202-.105-.252z" fill="#C490D5"/><path d="M113.758 115.569l-4.508-5.681c.524-.251 1.048-.553 1.572-.854.839 1.005 1.625 1.96 2.307 2.765 1.101 1.558 1.887 2.312 2.359 2.312.21 0 .629-.201 1.206-.553l-1.206 2.011-.629.201-1.101-.201zm-25.11-49.923c-.42.1-.787.201-1.102.252l-.524-2.212.682-1.257c.052-.05.105-.151.157-.202l.786 3.42z" fill="#D5E6EF"/><path d="M85.869 60.92h-.052c-.158-.05-.263-.1-.42-.15-.367-.1-.786-.151-1.258-.202a4.035 4.035 0 00-1.101 0l1.258-3.167.315-.754c.052-.201.157-.352.21-.553a173.63 173.63 0 012.83-6.485c.839-1.86 1.783-3.771 2.779-5.681a17.657 17.657 0 001.887-6.033c.262-2.112.891-4.123 1.94-5.933.838-1.508 2.096-2.514 3.67-2.966l.314.905c-.682.352-1.258.855-1.783 1.458-1.31 1.508-2.044 3.519-2.201 6.133-.158 2.615-.682 5.078-1.468 7.491a160.963 160.963 0 01-2.674 6.989 41.986 41.986 0 01-.996 2.262 93.878 93.878 0 01-1.153 2.463c-.262.553-.577 1.106-.839 1.66-.157.301-.314.603-.472.955-.21.352-.367.754-.576 1.156-.053.1-.158.251-.21.452zm20.288 16.54c0-.05 0-.1-.053-.15-.052-.05-.157-.251-.314-.503a3.747 3.747 0 00-.367-.603c-.262-.402-.472-.804-.682-1.106 0 0-.052-.05-.052-.1.943-.604 1.835-1.257 2.778-1.86 1.258-.855 2.569-1.66 3.879-2.464a104.945 104.945 0 017.392-4.073c.053-.05.105-.05.157-.1-.209-1.358-.367-2.564-.576-3.72-.262-1.509-.472-2.866-.734-4.022-.262-1.408-.524-2.514-.839-3.319-.681-2.111-1.258-3.318-1.835-3.77l-.524-.252c-.052 0-.052-.05-.157-.05-.21-.05-.42-.15-.682-.251a1.874 1.874 0 01-.681-.553c-.21-.302-.42-.805-.524-1.508.052-.302.104-.604.209-.905.105-.252.21-.503.262-.755.577-1.256 1.521-2.06 2.779-2.463.314-.1.681-.15 1.048-.201.315-.05.629-.05.944-.05 1.153.502 2.044 1.206 2.726 2.111.419.604.681 1.257.891 1.96.21.856.419 1.66.629 2.515a73.861 73.861 0 011.573 11.764c.052 1.106-.105 2.162-.367 3.167-.053.1-.053.252-.105.352-.629 1.76-1.73 3.218-3.408 4.324-.471.352-1.048.653-1.625.905-1.625.754-3.197 1.508-4.823 2.262-2.044.955-4.141 1.96-6.185 2.916-.158.252-.472.352-.734.503zm-40.995 35.897h-.105c-.053 0-.157-.05-.262-.05-.524-.151-.996-.352-1.468-.704-.105-.05-.21-.1-.262-.201h-.053l-.157-.151c-.157-.151-.314-.301-.42-.503l1.364-5.781c.052-.252.157-.553.21-.855.104-.503.21-1.005.314-1.458 0-.151.052-.251.052-.402l2.255 1.257c0 .151-.053.251-.053.402a646.907 646.907 0 01-.943 5.178l-.472 3.268zm16.775 8.296c-.681-.101-1.363-.403-2.097-.905-.157-.151-.367-.252-.524-.403.262-.653.524-1.307.786-1.86.21-.553.787-1.96 1.73-4.223.158-.352.262-.754.42-1.156l2.254 1.257c-.157.553-.367 1.106-.577 1.759-.157.403-.262.805-.42 1.257-.104.252-.156.503-.261.704-.262.754-.472 1.408-.682 1.961a12.512 12.512 0 00-.629 1.609zm12.844-51.381a1598.74 1598.74 0 00-7.077-3.922l-.158-.452h.053c.367-.1.734-.201 1.1-.252a96.16 96.16 0 003.303-.754c.158-.05.315-.05.472-.1.053 2.212.891 4.022 2.569 5.43-.105.05-.21.05-.262.05z" fill="#369BFF"/><path d="M72.973 107.927c0 .101-.053.252-.053.352-.052.201-.052.403-.104.604-.105 1.357-.682 2.312-1.626 2.815-.21.151-.419.251-.629.352-1.782.905-3.617 1.357-5.4 1.307l.525-3.318c.262-1.408.577-3.117.944-5.178 0-.151.052-.252.052-.403l6.29 3.469zm15.098 8.346c.629.804 1.153 1.659 1.52 2.614l-.315 1.006-1.468.653c-1.992 1.106-3.931 1.458-5.87 1.106a37.63 37.63 0 01.628-1.659c.157-.553.42-1.206.682-1.96.105-.252.157-.503.262-.704.157-.453.262-.855.42-1.257.209-.603.419-1.207.576-1.76l3.565 1.961zm7.653-45.448c-.314-.151-.629-.352-.943-.503.105 0 .157-.05.262-.05.157.15.314.25.472.402.052 0 .105.05.21.15zm-17.09 52.939c.892.553 2.57.855 4.98.855 1.678 0 3.094-.151 4.194-.503v.151c-.052.201-.262.503-.524.905-.157.301-.42.603-.681.955-.63.855-.996 1.458-.996 1.86-.105 2.061-1.153 3.72-3.04 4.877-.315.201-.735.402-1.154.603a6.34 6.34 0 01-1.048.402c-.21.101-.42.151-.577.201-1.258.403-2.621.553-4.037.553-.42 0-.89-.05-1.31-.201-.472-.151-.787-.251-.892-.251-.052-.302-.052-.704-.052-1.207v-.452c.052-.453.157-.855.367-1.207.315-.452.944-1.206 1.835-2.162.21-.15.42-.402.681-.754.105-.151.262-.352.42-.502.314-.503.576-.905.734-1.207.052-.101.104-.151.157-.251.105-.403.157-.755.262-1.056.21-.654.42-1.207.681-1.609zm-7.968-9.602c.105 1.407 0 2.413-.21 2.966-.262.553-.524 1.257-.786 2.011-.576.1-1.206.301-1.887.553l-.786.301c-.472.151-1.258.403-2.36.704-.89.302-1.572.604-2.096.905-.262.151-.944.855-2.097 2.061-1.101.956-2.202 1.509-3.408 1.66h-.734c-1.258 0-2.62-.403-4.141-1.157-.367-.201-.734-.352-1.049-.553 0-.553.053-1.156.262-1.759v-.151c.263-.604.682-1.257 1.311-1.911.734-.754 1.468-1.357 2.307-1.759.367-.201.786-.403 1.206-.654.471-.251.943-.503 1.467-.754.053-.05.105-.101.21-.151.891-.503 1.887-1.257 3.04-2.262 0-.05.053-.05.053-.05.052-.051.052-.051.157-.101.157.151.42.352.734.553.891.553 1.992.855 3.25.855l.525-.101c.838.101 2.044-.151 3.722-.754.576-.101.996-.251 1.31-.452z" fill="#0060E1"/><path d="M70.561 112c0 .452.053.854.105 1.307v.905c-.314.15-.786.352-1.31.553-1.678.653-2.884.905-3.722.754l-.525.1c-1.258 0-2.359-.251-3.25-.854a5.147 5.147 0 01-.734-.553c.053 0 .053-.051.105-.101 0 0 0-.05.053-.1.157-.151.314-.302.524-.403.314-.352.681-.704.996-1.055.052-.051.105-.151.21-.202h.052c.052.101.157.151.262.202.42.351.891.553 1.468.703.105 0 .157.051.262.051h.105c1.782.05 3.617-.352 5.4-1.307zm9.28 8.697c.733.553 1.467.855 2.096.905 1.887.352 3.827 0 5.872-1.106.052.302.157.754.262 1.257.105.352.157.704.21 1.056 0-.051-.053-.101-.053-.151l-.315 1.005c-.052.151-.052.302-.104.453-1.154.301-2.57.503-4.194.503-2.412 0-4.09-.302-4.98-.855 0-.05.052-.101.052-.151.472-1.307.891-2.262 1.153-2.916z" fill="#003F95"/><path d="M87.022 127.836c.157-.1.21-.201.21-.251-.105.05-.157.1-.262.151 0 .05-.053.1-.105.201-.157.05-.315.1-.472.1-.157.151-.314.503-.472 1.056-.052.201-.157.553-.314 1.106-.21.654-.315 1.056-.367 1.156-.891 1.458-2.045 2.565-3.565 3.369-1.468.754-2.988 1.156-4.613 1.156-1.573 0-2.621-.251-3.093-.804-.21-.201-.315-.503-.42-.905.105 0 .367.05.892.251.471.151.89.201 1.31.201 1.416 0 2.779-.201 4.037-.553.21-.05.42-.1.577-.201a6.34 6.34 0 001.048-.402c.42-.201.839-.402 1.153-.603 1.887-1.157 2.883-2.816 3.04-4.877 0-.402.368-1.005.997-1.86.262-.352.524-.654.681-.955a9.93 9.93 0 00.524-.905v-.151c.053-.151.053-.302.105-.453l.315-1.005c0 .05.052.1.052.151.158.754.21 1.407.21 2.011v.201c0 .452-.157.955-.524 1.609-.262.703-.63 1.106-.944 1.206zm-17.3-8.697c0 .05-.052.1-.052.201-.314.854-.681 1.407-1.206 1.709-.314.201-.786.352-1.363.503-.367.1-.89.251-1.625.402h-.262c-.052 0-.21-.05-.524-.201-.315-.101-.524-.151-.63-.151-.785 0-1.415.252-1.834.754-.315.302-.681.905-1.1 1.71-.525.754-1.102 1.357-1.783 1.709-.996.553-2.307.804-3.932.804h-.42c-.314 0-.576-.05-.89-.15h-.158a3.6 3.6 0 01-1.1-.503 1.154 1.154 0 00-.263-.151c-.786-.553-1.258-1.207-1.31-1.86v-.252c.314.202.629.352 1.048.553 1.52.755 2.883 1.157 4.142 1.157h.734c1.205-.151 2.306-.704 3.407-1.659 1.153-1.207 1.835-1.911 2.097-2.062.524-.301 1.206-.603 2.097-.905 1.048-.301 1.835-.553 2.359-.703.262-.151.524-.252.786-.302.577-.352 1.206-.503 1.783-.603z" fill="#00265B"/><path d="M86.865 127.987c.052-.1.105-.151.105-.201.105-.1.157-.151.262-.151 0 .051-.053.101-.21.252 0 .05-.052.05-.052.05s-.053 0-.105.05z" fill="#4D4D4D"/><path d="M127.65 57.451a66.08 66.08 0 01.315 3.972c0 .352.052.754.052 1.106.052 1.106 0 2.212-.052 3.268-.053 1.106-.315 2.262-.734 3.57-.105.351-.262.754-.42 1.156-.262.2-.471.402-.734.603-.681.503-1.31 1.006-2.044 1.458-.419.251-.786.503-1.206.754a49.194 49.194 0 01-9.908 4.676c-.891.301-1.835.603-2.778.854-.472.151-.944.252-1.468.403-.472.1-.891.2-1.363.301-.052-.15-.157-.251-.157-.402a13.191 13.191 0 00-.629-1.056c0-.05-.053-.1-.105-.15-.105-.202-.21-.352-.315-.503.262-.151.577-.252.839-.403 2.045-.955 4.141-1.96 6.186-2.915 1.625-.755 3.198-1.509 4.823-2.263.577-.251 1.153-.603 1.625-.905 1.625-1.106 2.778-2.564 3.407-4.323a.894.894 0 00.105-.352c.315-1.006.42-2.062.367-3.168a72.35 72.35 0 00-1.572-11.764c-.21-.855-.367-1.659-.629-2.514-.21-.754-.472-1.407-.892-1.96-.629-.905-1.52-1.61-2.726-2.112-.367 0-.681 0-.943.05a7.6 7.6 0 00-1.049.201c-1.258.403-2.149 1.207-2.778 2.464-.105.251-.21.503-.262.754-.053.302-.158.553-.21.905.105.654.262 1.156.524 1.508.158.201.42.402.682.553.209.1.419.151.681.252.053 0 .105.05.158.05l.524.251c.576.402 1.153 1.66 1.835 3.77.262.855.524 1.962.838 3.319-.262.453-.471.754-.576.905-.21.452-.42.905-.577 1.307.105.302.262.603.367.855.052.1.052.15.105.251a36.172 36.172 0 011.835 4.525 104.5 104.5 0 00-7.392 4.072c-.157-.302-.262-.603-.367-.855-.105-.25-.21-.552-.315-.804l-.786-2.564a32.465 32.465 0 01-.629-5.53v-.654c0-.905-.052-1.81-.052-2.715v-.301c-.053-2.112.104-4.223.576-6.285.315-1.508.891-2.916 1.835-4.223.262-.352.577-.653.891-.955.262-1.357.839-2.614 1.783-3.77a8.137 8.137 0 012.411-1.961c1.258-.654 2.569-.855 3.932-.604.262.101.577.202.839.403.367.2.734.502 1.1.754.367.352.734.704 1.049 1.156 1.153 1.508 1.887 3.167 2.202 4.977.209 1.257.472 2.464.681 3.72.315 1.66.577 3.319.787 5.078.052.202.052.453.104.654.105.352.158.754.21 1.156zm-29.357-27.55c.053.15.105.352.157.502.21.503.42 1.106.577 1.71l.157.452c-1.048 1.86-1.992 3.67-2.778 5.38-.839 1.81-1.31 3.62-1.415 5.48a33.947 33.947 0 000 4.072c.104.855.104 1.91.052 3.167-.052 1.207-.052 2.665-.052 4.374-.315.453-.63.855-.944 1.257-.105.15-.262.302-.367.453a241.099 241.099 0 01-3.408 3.72l-2.254 1.86-.105-.1-.052-.05-.157-.152h-.053c-.157-.15-.314-.251-.524-.402l-1.153-.654c-.053-.05-.105-.05-.157-.1.104-.201.157-.352.262-.553.21-.402.367-.754.576-1.156.158-.302.315-.654.472-.956.262-.553.577-1.106.839-1.659.367-.804.786-1.608 1.153-2.463.315-.754.682-1.508.996-2.262a122.974 122.974 0 002.674-6.989c.839-2.363 1.31-4.876 1.468-7.49.157-2.615.89-4.626 2.201-6.134.577-.453 1.154-.905 1.835-1.307z" fill="#4FB6FB"/><path d="M104.217 37.492a37.885 37.885 0 01-.472-2.162c-.105-.452-.157-.955-.262-1.508 1.468-.503 2.778-1.156 3.879-1.91 1.258-.905 2.15-1.86 2.621-2.966.263-.604.367-1.257.367-1.911.158-.452.315-1.408.472-2.916.105-.05.21-.05.367-.1h.262c.105-.05.21-.151.367-.252l.105-.1-.052-.252-.053-.15c-.262.05-.472.15-.734.2.367-.804 1.049-1.105 1.94-.904.734.703.786 1.659.21 2.765-.367.603-.629 1.055-.734 1.407a5.58 5.58 0 00-.472 1.308v.1c0 .15-.052.252-.052.402l.104-.1v.352a.311.311 0 000 .301c.158.352.21.704.263 1.056v.603c0 .755-.105 1.458-.42 2.162-.419.805-1.258 1.71-2.569 2.715-1.31 1.006-2.988 1.66-4.98 2.011-.157-.05-.157-.1-.157-.15zm2.988 41.678c-.629.251-1.153.503-1.625.855-.052.05-.105.05-.157.15-.105.05-.158.101-.262.151l-.053.05c-.157.101-.314.252-.472.353-.367.402-.891.704-1.572 1.005l-.787.302h-.105c-.367.15-.786.251-1.258.352-.105 0-.262.05-.367.05-.314.1-.786.352-1.363.754h-.052c-.524.402-.839.603-.891.603-.105-.05-.158-.05-.262-.1-.21-.1-.367-.201-.42-.352v-.05c.21-.201.525-.403.891-.604.21-.1.472-.2.734-.301.315-.1.63-.252.944-.352.524-.151.996-.252 1.415-.352h.053l.157-.15.419-.403c1.206-1.207 1.835-2.464 1.835-3.67 0-.302-.052-.603-.157-1.006-.052-.15-.105-.301-.157-.502-.053-.202-.105-.403-.158-.503h.105c.053 0 .158-.05.367-.1.158-.051.42-.202.734-.353.21.302.42.654.682 1.106.105.202.209.403.367.604.157.251.262.452.314.502.053.05.053.101.053.151.104.151.262.352.314.503.053.05.053.1.105.15.21.453.419.805.629 1.157zM87.022 63.685c-.052.202-.105.352-.105.503 0 .151.105.503.367 1.056-.472-.855-.734-1.458-.839-1.81a2.054 2.054 0 00-.419-.905c-.052-.05-.052-.1-.105-.15-.262-.353-.734-.704-1.363-1.107-.105-.05-.21-.15-.262-.2l-.577-.303c-.262-.1-.471-.2-.681-.25h1.1c.42.05.84.1 1.26.2.156.05.261.1.419.151h.052c.052 0 .105.05.157.1l1.154.654c.157.1.366.252.524.402h.052l.157.151.053.05h-.053v.05c-.052.051-.105.152-.157.202l-.734 1.206zm-5.924 6.486v-1.508c.158-.252.315-.503.42-.704.472-.654.681-.805.681-.402 0 .05-.052.15-.157.402 0 .05-.052.05-.052.1l-.734 1.559-.158.553zm0 2.715v-.201c.053-.05.105-.1.158-.201.105-.101.21-.252.367-.403.367-.452.629-.704.681-.854.052-.05.052-.1.105-.151.105-.15.21-.352.314-.654.21-.452.315-.854.472-1.206.42-1.056.84-1.91 1.31-2.564.21-.302.368-.503.525-.604.21-.15.367-.1.42.252v.15c.052.704 0 1.157-.21 1.509l-.786-.252c-.21.403-.63 1.408-1.311 3.017-.105.201-.21.452-.262.704-.053.15-.105.251-.157.402-.21.553-.472.955-.734 1.156-.158.1-.262.151-.42.151-.157-.1-.314-.15-.472-.251zm6.71-6.134c.105.201.158.352.158.453 0 .1-.053.251-.105.452-.157.402-.524.955-1.1 1.66-.735.955-1.26 1.407-1.574 1.407-.262 0-.419-.1-.576-.251.21-.201.471-.453.734-.754.838-.855 1.415-1.408 1.73-1.71.157-.15.314-.352.419-.553.052-.05.052-.1.105-.15a8.49 8.49 0 00.21-.554zm6.239 10.81v-.05h-.052c-.787.1-1.416.3-1.94.502l-.472.15c-.21.05-.42.101-.577.101-.262 0-.472-.05-.629-.15-.21-.151-.314-.302-.314-.554h.314c.734-.05 1.573-.251 2.569-.553.314-.1.63-.2.996-.352.21-.05.367-.15.577-.2.734-.302 1.258-.453 1.52-.453.42-.1.681 0 .786.302a28.23 28.23 0 00-1.94.904c-.261.101-.524.201-.838.352zm-.367 2.614c-.053-.05-.053-.1-.105-.151-.052-.05-.052-.151-.105-.201a.786.786 0 01.315-.403l.105-.1c.419-.402.996-.704 1.677-.905.472-.15.891-.201 1.206-.201.157 0 .262 0 .42.05.419.1.68.302.786.603v.202c0 .05-.053.15-.21.251-.157-.251-.315-.402-.42-.453a.61.61 0 00-.419-.15c-.314 0-.524 0-.734.05-.157.05-.262.1-.367.15a.915.915 0 00-.262.202c-.052.05-.105.15-.21.201a2.94 2.94 0 00-.524.654c-.21.301-.314.402-.367.402-.262 0-.42 0-.524-.05-.157 0-.21-.05-.262-.151zm3.407 1.76c-.21.1-.419.2-.629.2-.052 0-.157 0-.262-.05a1.593 1.593 0 01-.367-.251l-.052-.05c.052-.05.105-.05.157-.101.105-.05.157-.1.262-.15h.053c.21-.152.419-.252.629-.403l.052-.05c1.363-.805 2.15-1.006 2.254-.553 0 .05.053.1.053.15l-.63.453c-.366.201-.786.402-1.257.704-.105.05-.21.1-.263.1z" fill="#ED8A55"/><path d="M24.534 62.881v1.005c0 .151.052.302.105.554.105.553.21 1.357.367 2.463 0 .503.052.905.052 1.257-.472-.15-.838-.352-1.206-.553v.05c-.052-.05-.157-.1-.21-.15-.104-.654-.209-1.358-.314-2.112v-.201c0-.151-.052-.352-.052-.503-.053-.251-.053-.503-.105-.754 0-.1 0-.201-.052-.252-.053-.301-.053-.653-.105-.904-.053-.252-.053-.453-.053-.654-.052-.553-.157-1.006-.21-1.408v-.251a53.635 53.635 0 00-.262-1.76c0-.854.105-1.307.315-1.357.21-.05.42.251.681.855.21.502.42 1.055.577 1.659.053.2.157.452.21.703.052.302.105.654.157 1.006l.053.402c0 .252.052.553.052.905zm5.4-2.966c0 .251-.053.804-.158 1.659a53.205 53.205 0 00-.157 1.71c-.052.2-.052.401-.105.653-.052.402-.105.855-.157 1.357 0 .302-.052.604-.105.905-.052.403-.052 1.006-.052 1.86a6.291 6.291 0 01-1.049.252c.053-.553.157-1.508.262-2.916v-.201c.053-.352.105-.704.105-1.006.053-.754.105-1.407.105-1.96a.789.789 0 00-.157-.453v-.301c0-.302.052-.554.105-.805a3.45 3.45 0 01.629-1.408c.472-.653.681-.452.681.654.053-.05.053 0 .053 0zm73.549-26.093c-.629.201-1.31.402-1.992.603-.262-.05-.524-.1-.734-.15-.577-.151-.891-.352-1.1-.654-.21-.302-.368-.653-.525-1.056l-.157-.452a13.268 13.268 0 00-.577-1.71c-.052-.15-.105-.351-.157-.502l-.315-.905a18.22 18.22 0 01-.629-2.262c.105.1.262.15.42.15.21-.05.367-.1.524-.15l.052-.101c.21-.15.315-.352.42-.654.052-.2.105-.402.157-.653.052-.1.105-.252.157-.453.053-.1.21-.1.42-.05.21 0 .419.05.524.201.052 0 .157.05.209.05 0 .905.263 1.509.682 1.86a3.03 3.03 0 001.52.604c.524 0 .839-.05.944-.201.629-.1 1.048-.302 1.363-.654.262-.352.472-.603.576-.754.053-.15.053-.251 0-.352-.052-.15-.104-.251-.104-.302.104-.05.262-.1.419-.15 1.153-.201 2.254-.402 3.408-.604l.209.201c.262.755.315 1.458.157 2.213l1.049.05c0 .653-.105 1.307-.367 1.91-.472 1.106-1.311 2.062-2.621 2.966-1.153.805-2.464 1.458-3.932 1.961zm-6.71-12.367c.21.1.472.2.786.301.053.151.21.352.42.553.314.302.681.503 1.048.553.367-.15.367-.402 0-.704.63.05 1.52 0 2.621-.2 2.15-.302 3.303-.453 3.408-.403.629 0 1.625.704 2.988 2.011l.472.453c-.996.2-1.94.301-2.779.301-1.835.1-3.302.1-4.456 0-1.153-.1-2.097-.251-2.83-.452-.105-.05-.263-.1-.367-.151-.525-.15-.892-.302-1.049-.402-.052-.05-.105-.05-.105-.05-.157-.553-.157-1.207-.157-1.81zm.786 61.888c-.052-.05-.052-.15-.052-.251 0-.05.105-.252.367-.503.052-.05.052-.05.052-.1.157-.151.262-.353.42-.503.21-.252.419-.553.576-.755v-.301c-.105.05-.262.15-.42.251l.63-.452c0-.05 0-.1-.052-.151-.158-.402-.892-.251-2.255.553 0 0-.052 0-.052.05-.21.1-.42.252-.63.402h-.052c-.052.05-.157.101-.262.151-.052.05-.104.05-.157.1-.157-.2-.262-.401-.262-.552v-.05c.052-.151.157-.302.42-.503.366-.302.89-.654 1.677-1.106.052 0 .105-.05.157-.1 0-.051-.052-.101-.052-.152.157-.1.21-.2.21-.251v-.201c-.053-.302-.315-.503-.787-.603-.105-.05-.262-.05-.42-.05-.366 0-.786.05-1.205.2a4.425 4.425 0 00-1.678.905l-.104.1c-.105.152-.21.252-.315.403a6.802 6.802 0 00-.262-.603v-.1c0-.051.052-.152.105-.252.157-.352.42-.804.681-1.307.315-.151.577-.302.891-.402a28.18 28.18 0 011.94-.905c-.105-.302-.367-.403-.786-.302-.262 0-.787.15-1.52.452-.21.1-.367.151-.577.201-.315.151-.682.252-.996.352-.944.302-1.835.503-2.569.553h-.314c0-.05 0-.1.052-.15.157-.302.734-.654 1.782-1.006.315-.1.63-.201.996-.302.367-.1.84-.2 1.31-.352 2.517-.603 4.457-.904 5.767-.904.263 0 .577 0 .892.05.471.05.996.15 1.572.301.577.202.996.302 1.206.352.053.151.105.352.157.503.053.151.105.352.158.503.104.402.157.754.157 1.005 0 1.207-.629 2.414-1.835 3.67-.105.151-.262.252-.419.403-.053 0-.105.05-.158.15h-.052c-.419.05-.891.202-1.415.352-.367.101-.682.202-.944.352-.262.1-.524.201-.734.302-.262.15-.577.352-.839.553zM87.284 65.244c.053.15.105.302.158.503 0 .05.052.1.052.15l.157.453c.053.15.105.302.158.402l-.263.503c-.052.05-.052.1-.104.15a2.239 2.239 0 01-.42.554c-.314.302-.89.855-1.73 1.71-.314.3-.524.552-.734.753-.052-.1-.157-.2-.21-.301-.052-.453 0-.855.158-1.207.21-.402.42-.754.681-1.005.21-.302.263-.805.21-1.509v-.15c-.052-.302-.21-.403-.42-.252-.157.1-.314.302-.523.603-.472.654-.892 1.509-1.311 2.564a9.137 9.137 0 01-.472 1.207 2.68 2.68 0 01-.314.654c-.053.05-.053.15-.105.15-.105.101-.315.403-.682.855a2.55 2.55 0 00-.367.402c-.052.05-.105.151-.157.201v-1.407c0-.05.052-.1.052-.201.105-.252.158-.553.263-.905.052-.151.104-.252.157-.402.314-.905.472-1.408.472-1.458l.052-.352c.105-.201.157-.352.157-.403 0-.402-.21-.301-.681.403a3.175 3.175 0 00-.42.703v-5.228c.21-.15.42-.302.525-.453.21-.2.367-.402.524-.603.052-.1.052-.15.105-.251.157-.352.262-.654.42-.905.052-.151.104-.252.156-.352l.21-.402c.21.05.42.15.682.251l.576.302c.105.05.21.1.262.2.63.403 1.101.755 1.363 1.107.053.05.053.1.105.15.21.302.367.604.42.906.104.502.367 1.106.838 1.91z" fill="#FEB37C"/><path d="M115.75 33.42c.472.402.891.754 1.363 1.206.944.855 1.73 1.61 2.411 2.213a13.926 13.926 0 011.73 1.86c.472.603.944 1.257 1.363 1.96a4.193 4.193 0 00-1.1-.754 6.442 6.442 0 00-.839-.402c-1.363-.251-2.674-.05-3.932.603-.944.503-1.782 1.157-2.411 1.961-.944 1.157-1.521 2.413-1.783 3.77a4.054 4.054 0 00-.891.956c-.944 1.307-1.52 2.715-1.835 4.223-.472 2.112-.629 4.223-.576 6.285v.301c0 .905.052 1.81.052 2.715v.654c.052 1.86.262 3.67.629 5.53l.786 2.564c.105.251.21.503.315.804.105.302.262.553.367.855-1.311.804-2.621 1.609-3.879 2.463-.944.604-1.888 1.257-2.779 1.86 0 .05.053.101.053.101l-.734.352c-2.621-1.458-5.4-3.016-8.336-4.625-.104-.05-.157-.151-.262-.201a3.35 3.35 0 01-.472-.403c-1.677-1.457-2.516-3.267-2.568-5.43v-.2a18.378 18.378 0 001.835-4.073c.471-1.508.681-3.217.733-5.128v-.402c0-1.71.053-3.167.053-4.374.052-1.257 0-2.312-.053-3.167-.104-.855-.104-2.162 0-4.072.053-1.86.525-3.72 1.416-5.48.786-1.71 1.73-3.52 2.778-5.38.158.403.315.754.525 1.056.157.302.524.503 1.1.654-.996 1.76-1.258 3.57-.943 5.53l3.302-2.061.839 3.72a5.4 5.4 0 002.202-.05c2.307-.553 4.037-1.86 5.19-3.922a19.913 19.913 0 001.415-3.268c.21-.703.262-1.407.105-2.06a3.944 3.944 0 00-.629-1.358v-.05a42.068 42.068 0 013.46 2.664zm-2.778 44.543c-.839.453-1.521.855-1.992 1.257-.263-.15-.472-.251-.734-.402.891-.251 1.782-.553 2.726-.855z" fill="#75D2FE"/><path d="M100.757 34.275c.21.05.472.1.734.15.681-.15 1.363-.351 1.992-.603.105.503.157 1.006.262 1.508-.314.101-.472.352-.576.755-.105.25-.105.502-.105.804 0 .15.052.302.209.452.105.151.262.201.472.252h.472v.15c2.044-.351 3.67-1.005 4.98-2.01 1.311-1.006 2.149-1.91 2.569-2.715.314-.704.419-1.408.419-2.162.315.452.524.905.629 1.357a3.474 3.474 0 01-.105 2.062c-.366 1.106-.786 2.212-1.415 3.267-1.153 2.062-2.883 3.369-5.19 3.922a5.37 5.37 0 01-2.202.05l-.838-3.72-3.303 2.061c-.262-2.01 0-3.82.996-5.58z" fill="#EEFCFF"/><path d="M103.745 35.33c.157.855.315 1.559.472 2.162h-.472a.557.557 0 01-.472-.251c-.157-.151-.209-.252-.209-.453 0-.301 0-.553.105-.804.104-.352.262-.603.576-.654z" fill="#B2D9E1"/><path d="M125.92 87.566c-1.31-.704-2.673-1.508-4.141-2.313l-1.311-4.524 2.988-1.559 1.154 3.922.314 1.005.996 3.47z" fill="#BED6E3"/><path d="M97.507 21.806l-.787-.301h.053c0-.252.052-.503.052-.754.21-.1.472-.201.682-.302-.157.553-.157.955-.105 1.257.105-.05.105 0 .105.1zm10.904 2.263l-.472-.453c-1.363-1.307-2.359-1.96-2.988-2.01-.105-.05-1.258.05-3.408.402-1.101.15-1.94.2-2.62.2-.106-.1-.158-.2-.263-.25.053-.906.682-1.358 1.94-1.358s2.254-.15 3.04-.402c.787-.252 1.363-.503 1.783-.754.209.553.576 1.156 1.101 1.81.262.301.629.703 1.153 1.307.052.1.157.251.262.402a6.8 6.8 0 01.786 1.056h-.052c-.053 0-.157.05-.262.05zm.524.503h.105c.052.05.052.15.105.2-.053-.05-.105-.15-.21-.2z" fill="#FD9F6C"/><path d="M94.152 21.203c.105-.553.21-1.005.262-1.257.157-.603.472-1.156.996-1.558l1.573-1.006c.681-.503.943-.955.943-1.458v-.05l-.105.05c-.052 0-.419.05-1.048.201-.996.201-2.307.201-3.932.05.262-.15.682-.301 1.206-.402.524-.1.996-.15 1.363-.2-.42-.403-.63-.755-.682-1.056V13.36c.315.201.682.402 1.049.553.42.151 1.048.151 1.992.05-.262-.2-.262-.552.105-.955.21.453.996.503 2.359.05 1.153-.653 2.359-1.105 3.617-1.307 2.988-.502 5.504 0 7.601 1.66-.681.904-1.467 1.76-2.359 2.463a13.843 13.843 0 01-3.512 1.96c-.157.101-.367.202-.524.302-1.154.503-2.464.805-3.88.956-1.048.1-1.834.402-2.306.854a1.821 1.821 0 00-.367.503c-.367.754-.472 1.257-.367 1.558 0 .05.052.05.052.101.158.251.472.553.84.805-.368-.05-.735-.252-1.05-.554a1.927 1.927 0 01-.419-.553c0-.05-.052-.1-.052-.15-.053-.302-.053-.704.105-1.257.105-.302.21-.604.367-.805.052-.1.105-.15.157-.251.21-.352.472-.553.734-.754.262-.201.786-.503 1.573-.905-1.311.1-2.464.402-3.513.905-.996.603-1.94 1.458-2.778 2.614zm18.295-6.837a7.848 7.848 0 011.416 2.01v.051c-.105.15-.21.302-.262.553-1.416 2.765-3.303 4.575-5.714 5.48-.053 0-.105.05-.158.05-.524-.553-.891-1.005-1.153-1.307-.524-.654-.891-1.257-1.101-1.81.053-.05.157-.05.21-.05.314-.15.629-.251.943-.402 1.101-.553 2.202-1.207 3.356-1.86 1.048-.553 1.887-1.509 2.463-2.715z" fill="#6F47CB"/><path d="M95.41 18.388c-.472 0-.839-.05-1.206-.151-1.048-.302-1.677-.754-1.782-1.408-.053-.251.052-.452.367-.654 1.625.151 2.936.151 3.931-.05.682-.15 1.049-.2 1.049-.2l.105-.051v.05c.052.503-.262.955-.944 1.458l-1.52 1.006zm-1.258 2.815c.838-1.106 1.782-2.011 2.726-2.614 1.048-.503 2.201-.805 3.512-.905-.839.402-1.363.704-1.573.905-.262.15-.471.402-.733.754-.053.05-.105.15-.158.251a3.815 3.815 0 00-.367.805c-.262.1-.471.2-.681.301-.63.252-1.258.453-1.73.553-.63.1-.944.05-.996-.05zm17.247-7.793l1.048 1.006a6.268 6.268 0 01-2.516 2.765 55.767 55.767 0 01-3.355 1.86c-.315.1-.629.252-.944.402-.052 0-.104.05-.209.05-.367.252-.996.503-1.783.755-.786.251-1.834.352-3.04.402-1.258-.05-1.887.402-1.94 1.357l.262.252c.315.301.315.503 0 .704-.367-.302-.681-.553-.838-.805 0-.05-.053-.05-.053-.1-.157-.302 0-.855.367-1.559.105-.2.21-.352.367-.503.472-.452 1.258-.754 2.307-.854 1.415-.151 2.726-.453 3.879-.956.21-.1.419-.2.524-.301a13.844 13.844 0 003.512-1.96c.944-.805 1.73-1.61 2.412-2.515zm.577 15.033c-.053.05-.053.1-.105.1 0-.15.052-.251.052-.402 0-.05 0-.05.053-.1.104-.453.262-.905.471-1.308.105-.301.367-.804.734-1.407.577-1.107.525-2.011-.209-2.766-.892-.2-1.573.05-1.94.905-.786.201-1.52.352-2.254.453a6.868 6.868 0 00-.787-1.056c-.104-.15-.209-.251-.262-.402.053 0 .105-.05.158-.05 2.359-.905 4.246-2.715 5.714-5.48.105-.201.209-.403.262-.553v-.05c.419.854.734 1.759.891 2.714.052.503.105 1.006.157 1.458 0 .151-.052.302-.052.402-.053 2.816-.996 5.33-2.883 7.542zm-1.154-4.324c-.209 1.508-.367 2.514-.472 2.916l-1.048-.05c.157-.704.105-1.458-.157-2.212-.053-.05-.053-.151-.105-.202.367-.1.734-.2 1.101-.25.262-.051.472-.152.681-.202z" fill="#4721A1"/><path d="M108.935 24.572c-1.101.2-2.254.402-3.407.603-.158.05-.263.1-.42.15 0 .101 0 .202.105.302.052.1 0 .201 0 .352-.105.151-.262.402-.577.754-.314.302-.734.503-1.363.654-.105.15-.419.201-.943.201-.525-.05-.996-.251-1.521-.603-.471-.352-.681-.956-.681-1.86-.052-.05-.105-.05-.21-.05a1.587 1.587 0 00-.524-.202.537.537 0 00-.42.05c-.052.202-.052.352-.157.453-.052.201-.104.452-.157.653-.052.252-.21.503-.42.654l-.052.1c-.157.05-.314.151-.524.151a.61.61 0 01-.42-.15c-.104-.101-.209-.201-.261-.302l-.472-1.056a2.214 2.214 0 01-.262-1.005c0-.151 0-.402.105-.704.052-.302.21-.402.367-.352.052 0 .052.05.104.05.158.1.525.252 1.049.402.105.05.262.1.367.151.734.201 1.677.352 2.831.453 1.153.1 2.621.1 4.456 0 .891-.05 1.782-.151 2.778-.302.105 0 .21-.05.314-.05h.053c.734-.1 1.468-.252 2.254-.453.262-.05.472-.15.734-.2l.052.15.053.251-.105.1c-.105.101-.262.152-.367.252-.052.05-.157.05-.262 0-.105.05-.21.05-.367.1-.21.051-.419.101-.682.202-.366.05-.733.15-1.1.251.104-.15.104-.15.052-.15zm-5.714.603c-.367-.05-.734-.05-1.101-.05-.315 0-.681-.05-.996-.151-.105 0-.21 0-.21.05-.367.503-.262.955.315 1.357.21.201.419.352.681.352.42.05.787.1 1.206.05.367-.1.734-.25 1.101-.452.367-.15.472-.452.419-.804-.105-.05-.157-.1-.262-.151-.367-.1-.734-.201-1.153-.201zm-5.138.301c.105-.301.21-.653.263-1.005l-1.468-.352c.105.804.42 1.458.89 2.061.053-.1.106-.251.158-.402.053-.05.105-.201.157-.302z" fill="#1F7FFF"/><path d="M103.221 25.175c.419.05.786.1 1.101.201.052.05.157.1.262.15.105.403-.052.654-.419.805a3.583 3.583 0 01-1.101.453c-.42.05-.787.05-1.206-.05-.262 0-.472-.151-.682-.353-.576-.402-.681-.854-.314-1.357 0-.05.105-.05.21-.05.314.05.629.1.996.15.419 0 .786 0 1.153.05zm-5.138.302c-.052.15-.104.251-.157.351a3.416 3.416 0 01-.157.403c-.472-.604-.734-1.307-.891-2.062l1.468.352c-.053.302-.158.604-.263.956z" fill="#E6EDF6"/><path d="M132.263 104.459c.262 2.664.577 5.63.892 8.848.419 3.871.838 8.144 1.31 12.82v.251l1.416 13.675.052.302c.052.301 0 .653-.157 1.005l-4.718-38.359c-.053-.352-.053-.704-.105-1.006-.105-.754-.315-1.357-.524-1.76-.525-1.005-1.363-1.206-2.464-.703-.525.301-1.049.553-1.573.854-.052 0-.052.051-.052.051a1731.325 1731.325 0 00-13.368 7.39c-.734.402-1.468.804-2.15 1.207-.524.301-1.048.603-1.572.854-.787.402-1.521.805-2.202 1.207a197.419 197.419 0 01-4.561 2.514 628.002 628.002 0 00-4.56 2.564c-.158.1-.263.201-.42.352a3.374 3.374 0 00-.315.452 10.24 10.24 0 00-1.572 3.419c-.053.352-.158.754-.158 1.206v1.207a3348.32 3348.32 0 00-.471 15.485c-.21 7.692-.367 11.965-.42 12.82l-.262 7.993-.105 3.469c-.052.201-.052.352 0 .503v1.307h-.21c0-.251 0-1.96-.052-5.128-.052-6.536-.157-19.255-.314-38.158 0-.151 0-.352-.158-.553 0 0-.105-.151-.262-.453-.262-.402-.524-.855-.839-1.357-.419-.553-.786-1.056-1.153-1.408-.21-.251-.42-.453-.524-.603.839.201 1.73.301 2.621.251.891-.05 1.73-.201 2.516-.503.21-.1.472-.201.734-.402.157-.101.42-.201.682-.402 1.782-1.006 5.609-3.117 11.48-6.385.525-.302.996-.553 1.573-.855.682-.402 1.416-.804 2.149-1.206 3.565-1.961 7.707-4.274 12.477-6.888 1.206-.654 2.412-1.358 3.722-2.061.105-.05.157-.1.262-.151.472-.251.734-.402.734-.402l.472-.302.157-.15v-.051c.158-.15.367-.352.577-.654.052-.1.157-.2.21-.352.104-.1.209-.251.314-.452v.402c0 .1 0 .252.053.352.052.805.157 1.609.262 2.514.052.553.105 1.106.157 1.709.157 1.207.315 2.413.419 3.721zM10.747 119.591c-.105-.201-.158-.452-.158-.754 0-.151.053-.402.053-.704l.105-1.156 4.298-42.231c.158.1.42.201.682.402.262.201.524.402.891.654.21.15.524.301.996.553-.786-.252-1.415-.1-1.835.402-.419 1.005-.734 2.665-.996 5.027-.262 2.313-.471 4.274-.681 5.832-.21 1.559-.367 3.117-.524 4.676a98.892 98.892 0 00-.42 4.123c-.21 1.96-.472 3.921-.681 5.831-.105 1.056-.21 2.062-.315 3.067-.21 2.061-.577 5.178-.996 9.251-.052.251-.052.653-.052 1.106-.053.301-.105.754-.158 1.257a47.74 47.74 0 00-.157 1.307c0 .151-.052.402-.052.704.105.201.052.402 0 .653zm70.352-41.175v6.888l12.11 6.686c.261.151.523.151.838 0h.052l13.001-7.189.262.201c.158.05.263.15.21.302 0 .1-.052.2-.21.301l-13.263 7.29h-.052c-.315.151-.577.151-.839 0l-12.11-6.686v10.055L78.95 97.62V63.585l-4.98 2.664s-.052 0-.052.05l-13.108 6.99a1666.183 1666.183 0 00-11.114-6.083l-.786.402-11.796-27.852c.263 0 .577.1.892.301l18.086 10.005s.052 0 .052.05c.105.05.21.1.262.151l21.546 11.965c.21.202.42.403.682.704.104.252.262.503.314.704l2.15-1.206v15.986zm-21.18-3.52v15.988l-12.214-6.686V68.26c.63.352 1.206.654 1.887 1.006 2.726 1.508 5.82 3.167 9.174 5.027.42.202.787.403 1.154.604z" fill="#B0B0E2"/><path d="M135.776 141.36a42.396 42.396 0 01-1.311-.704c-.105-.603-.157-1.156-.262-1.709a1174.746 1174.746 0 01-2.097-13.926c0-.05-.052-.151-.052-.201-.525-3.369-.996-6.486-1.468-9.351-.734-4.877-1.363-9-1.888-12.368-.052-.352-.104-.704-.157-1.006-.105-.553-.157-1.055-.262-1.558-.052-.352-.21-.654-.367-1.006 1.101-.553 1.94-.301 2.464.704a6.51 6.51 0 01.524 1.76c.053.302.105.653.105 1.005l4.771 38.36zm-123.3-25.288l-.314 1.961c0 .201-.052.502-.157.955-.053 0-.262.1-.577.301-.262.101-.472.252-.734.352.053-.201.105-.452.105-.754.053-.301.053-.553.053-.704.052-.502.104-.905.157-1.307.052-.502.105-.955.157-1.257.052-.251.577-4.424 1.52-12.568 1.206-9.754 1.992-16.189 2.412-19.306v-.503l.472-3.67a5.7 5.7 0 01.314-.754c.157-.251.315-.503.524-.653l.63-.453c.261-.15.524-.201.786-.201l.734.402c-.158.302-.315.603-.367.905a7596.652 7596.652 0 01-5.714 37.254zM59.92 90.884V74.897l1.991-1.056v15.334l.787.402.42.251c-.944.855-1.993 1.207-3.199 1.056zm32.135-1.257s-.053 0-.053.05l-.629.302c-.21.1-.367.1-.524 0l-1.573-.905s0-.05.053-.05l.629-.302c.21-.1.367-.1.576 0l1.52.855v-.05c-.052.05 0 .05 0 .1zm2.411 1.307c.053 0 .105.05.105.1 0 0-.052 0-.105.051l-.576.352c-.21.1-.367.1-.525 0l-1.572-.905.629-.402c.21-.1.42-.1.629 0l1.415.804zm.315-2.111c.21-.1.42-.1.576 0l1.52.804v-.05l.106.1c-.053 0-.053 0-.105.101l-1.52.804a.493.493 0 01-.525 0l-1.468-.804-.105-.1.105-.101v.05l1.416-.804zm-2.884-2.464l.158-.05 1.468-.804h-.053c.21-.1.42-.1.577 0l1.52.804c.053.05.053.05.105.05-.052 0-.052.05-.105.1l-1.468.856a.59.59 0 01-.576 0l-1.626-.956zm.525 1.106c.21-.1.367-.1.576 0l1.52.855v-.05c.053.05.053.1.053.1s-.052.05-.052.1l-1.52.755c-.21.1-.42.15-.577.05l-1.52-.854c-.053-.05-.105-.05-.105-.1l.105-.102v.05l1.52-.804zm-.367-.452h.052c0 .05-.052.05-.105.1l-1.572.805c-.158.1-.315.1-.525 0l-1.467-.805c-.053-.05-.105-.05-.105-.1l.105-.1 1.467-.805c.158-.1.367-.1.577 0l1.573.905zm-1.363-3.369c.052 0 .052 0 .105.05-.053 0-.053 0-.105.051l-1.468.855c-.21.05-.367.05-.524 0l-1.625-.905c0-.05.052-.05.157-.1l1.468-.805c.157-.1.314-.05.524.05l1.468.804zm.42.503c.156-.1.366-.1.576 0l1.52.855h.052s-.052.05-.157.05l-1.468.855c-.21.1-.419.1-.576 0l-1.573-.905s.052-.05.105-.05l1.52-.805zm3.826-.804c.052.05.105.05.105.1 0 0-.053 0-.105.101l-1.468.804c-.21.1-.367.1-.524 0l-1.52-.804c-.053-.05-.053-.05-.053-.1 0 0 0-.05.053-.101v.05l1.52-.804c.157-.1.367-.1.524 0l1.468.754zm1.415 2.815h-.104s.052-.05.157-.1l1.468-.754v-.101c.157-.1.314-.1.524 0v.05l3.198 1.76c.052.05.105.05.105.05s-.053 0-.105.05l-1.416.805c-.21.1-.367.1-.524 0l-3.303-1.76zm-.366.754c.157-.1.367-.1.576 0l2.621 1.408c.053.05.053.05.053.1l-.105.05-1.468.856c-.21.1-.367.1-.524 0l-2.621-1.458c-.053-.05-.053-.05-.105-.05.052-.05.105-.05.157-.101l1.416-.805zm1.415-2.212c.052 0 .052.05.052.05l-.052.05-1.52.856c-.21.1-.367.1-.525 0l-1.572-.905c0-.05.052-.05.157-.101l1.468-.804c.157-.1.314-.1.524 0l1.468.854zm.21-1.357l-.577.301a.491.491 0 01-.524 0l-1.468-.754-.105-.1.105-.05 1.206-.704a.49.49 0 00.262.05c.157 0 .367-.05.629-.201l.891.503c0 .05-.052.05-.052.1-.263.302-.367.453-.367.503-.105.201-.053.251 0 .352zm2.83-.302h.053l1.468-.855c.052-.05.105-.05.157-.05a.6.6 0 01.419 0v.05l1.468.855c.053 0 .105.05.157.05-.052 0-.052.05-.104.101l-1.521.804c-.209.05-.367.05-.576 0l-1.521-.804-.052-.1c0-.05 0-.05.052-.05zm-1.205.151c.052 0 .105 0 .157.05l4.456 2.514v-.05l.105.1-.105.1-1.468.755c-.157.1-.367.1-.524 0l-4.613-2.514c0-.05.052-.05.105-.1l.681-.352c.052.05.157.05.262.1.052 0 .367-.2.944-.603-.053 0 0 0 0 0zM81.098 71.126c.053.05 0 .1 0 .15v-.15zm0-.754c0-.05.053-.05.053 0h-.053zm.892 2.564c.262-.201.524-.553.734-1.156.052-.151.104-.302.157-.403l1.153.654c.052 0 .105.05.157.1 0 0-.052 0-.052.05l-1.52.805a.93.93 0 01-.525 0l-.104-.05zm-.892 1.458l.944-.503h-.052c.21-.1.419-.1.576 0v.05l1.468.805c.052.05.105.05.157.05-.052 0-.052 0-.105.05l-1.467.805c-.158.1-.367.1-.577.05h.052l-.943-.503v-.804h-.053zm0-.553v-.704l.525.302c.052 0 .052.05.052.05s-.052 0-.052.05l-.525.302zm0 1.96c.105 0 .21 0 .263.05l1.467.805.105.1-.105.101-1.468.805c-.104.05-.21.1-.262.1v-1.96zm0 2.615v-.1h.053c0 .05 0 .05-.053.1zm0 2.01V79.02l.315-.15c.21-.101.367-.151.577-.05v.05l1.52.804c.052 0 .052.05.052.05s-.052 0-.052.05l-1.468.855c-.21.1-.42.1-.63 0l-.314-.201zm0 2.062V80.98l1.258.704c.053 0 .053.05.105.1h-.105l-1.258.704zm0 2.011v-.905l.787.453c.052 0 .052.05.105.05-.053 0-.053 0-.105.1l-.577.302c-.052-.05-.157 0-.21 0zm10.8-8.144c-1.049.352-1.626.703-1.783 1.005l-7.077-3.871-.105-.05c0-.05.053-.1.157-.1l1.416-.755c.052-.05.157-.1.21-.1.104 0 .21 0 .314.1l6.867 3.77zM84.4 75.249c.157-.1.367-.1.577 0l1.468.754c.052.05.104.05.157.1-.053 0-.053 0-.105.05l-1.468.855c-.21.1-.42.1-.577 0l-1.467-.854h-.053l-.052-.05s0-.051.105-.101l1.415-.754zm-1.1 1.96c.156-.1.314-.1.523 0l1.52.805v-.05c.053.05.106.05.106.1 0 0-.053 0-.105.05l-1.468.805c-.21.1-.42.1-.63 0l-1.467-.754-.105-.05c0-.051.052-.101.157-.101l1.468-.805zm-.945 3.871c-.052-.05-.104-.1-.157-.1.053 0 .105-.05.157-.05l1.468-.805h-.052c.21-.1.42-.1.629 0l1.468.805v-.05c0 .05.052.05.052.1 0 0-.052 0-.052.1l-1.468.805c-.21.1-.42.1-.63 0h.053l-1.468-.805zm1.783-1.659s0-.05.052-.05l1.468-.855c.157-.1.315-.1.524 0v.05l1.468.805c.053 0 .053.05.105.05 0 0-.052 0-.105.05l-1.468.855c-.21.05-.367.05-.524 0l-1.468-.854-.052-.05zm9.121-.301l-1.677-.955.472-.151c.472-.201 1.153-.352 1.94-.503l.052.05c-.262.503-.524.955-.682 1.307-.052.1-.052.202-.105.252zm.315.905c0 .05.052.15.105.15l-1.468.805c-.21.1-.367.1-.524 0l-1.468-.804c-.105-.05-.157-.05-.157-.101l.105-.1 1.467-.805c.158-.1.315-.1.525 0l1.415.855zm-7.34 1.458c.158-.1.368-.1.578 0l1.467.804v-.05c.053.05.105.05.105.1 0 0-.052 0-.105.05l-1.468.805c-.21.1-.419.1-.524.05l-1.468-.854c-.052-.05-.104-.05-.157-.05 0-.05.053-.05.157-.05l1.416-.805zm.368-.805l1.468-.754c.157-.1.367-.1.524 0l1.468.805c.052 0 .105 0 .105.05 0 0-.053.05-.105.05l-1.468.855a.93.93 0 01-.524 0l-1.573-.905c0-.05.052-.1.105-.1zm2.411-3.217c-.052 0-.052 0-.105.05l-1.467.855c-.21.1-.367.1-.525 0l-1.52-.855h-.052c-.053-.05-.053-.05-.105-.05 0 0 .052-.05.157-.1l1.468-.755v-.05c.157-.1.367-.1.577.05l1.467.754c0 .05.053.05.105.1zm.787.452l1.52.855c.052.05.052.05.105.05l-.105.1-1.468.805c-.21.1-.42.1-.524 0l-1.52-.804c-.053-.05-.053-.05-.053-.1 0-.051 0-.051.052-.051l1.52-.855c.053-.1.263-.1.473 0zm5.766 3.218v.05c0 .201.105.352.262.553l-1.153.603c-.21.1-.367.1-.577 0l-1.468-.754c-.052-.05-.052-.05-.104-.05.052 0 .104-.05.157-.05l1.468-.805c.157-.1.367-.1.576 0l.84.453zm.63-2.363l-.682.352c.105-.1.21-.151.262-.201.105-.05.262-.1.42-.151zm1.467.704c-.786.452-1.363.804-1.677 1.106l-.42-.252h.105l1.468-.854c.052-.05.105-.05.157-.05.105 0 .21 0 .367.05zm1.31 1.709a7.657 7.657 0 01-.576.805l-.42-.202s0-.05.053-.1l.944-.503zm-8.492 0c.157-.1.367-.1.524 0l1.52.855c.053 0 .105.05.158.1-.053 0-.053 0-.105.05l-1.468.855c-.21.1-.42.1-.577 0l-1.467-.855c-.053-.05-.053-.05-.053-.1 0 0 0-.05.053-.1v.05l1.415-.855zm-7.601 3.368l1.52.855v-.05l.105.1c-.053 0-.053 0-.105.05l-.577.302c-.21.1-.367.1-.524 0l-1.573-.905.105-.05.577-.302c.105-.1.314-.1.472 0zm1.94-1.558h.052s-.053 0-.053.05l-1.52.805a.59.59 0 01-.576 0l-1.468-.805c-.105-.05-.158-.05-.158-.1 0 0 0-.05.105-.1v.05l1.468-.855c.21-.1.367-.1.577 0l1.572.955zm2.044 4.675l.577-.301c.157-.1.367-.151.524-.05v.05l1.468.804c.052 0 .052.05.105.1-.053 0-.053 0-.105.051l-.525.352c-.21.05-.367.05-.524 0l-1.573-.905c-.052-.05 0-.05.053-.1zm-.577-.452c-.157.1-.367.1-.524 0l-1.468-.804c-.105-.05-.157-.05-.157-.1l.105-.102v.05l.576-.3a.693.693 0 01.63 0l1.467.804.105.05-.105.1-.629.302zm-.576-3.72l1.467.804v-.05c.053.05.053.1.105.1 0 0-.052 0-.105.05l-1.52.855c-.157.1-.367.1-.524 0l-1.573-.905s0-.05.053-.1v.05l1.52-.804c.21-.1.367-.1.577 0zm1.834 1.307c.158-.1.367-.1.525 0l1.468.855c.052 0 .104.05.104.05s-.052 0-.105.1l-1.467.805c-.21.1-.367.1-.525 0l-1.467-.805-.105-.1s0-.05.105-.05l1.467-.855zm17.405-1.307l1.468.854c.052 0 .105.05.157.05 0 0-.052 0-.105.05l-1.468.805a1.33 1.33 0 01-.629 0l-1.468-.854c-.052-.05-.052-.05-.104-.05h.104l1.468-.855c.053-.05.105-.05.21-.1.105.05.21.05.367.1z" fill="#8C8CC8"/><path d="M17.876 77.46l-.734-.452c-.681-.05-1.153.302-1.31 1.056-.158.704-.21 1.207-.262 1.408l-.472 3.67a19.56 19.56 0 00-.63 3.419c-.104.854-.471 3.921-1.1 9.3-.682 5.531-1.049 8.648-1.153 9.352.104-1.006.21-2.011.314-3.067.21-1.911.42-3.871.682-5.832.157-1.357.262-2.765.419-4.123.157-1.558.315-3.066.524-4.675.21-1.559.42-3.52.682-5.832.262-2.313.576-4.022.996-5.028.42-.502.996-.653 1.835-.402l70.404 39.014v1.005l-3.617-2.011-2.255-1.257-7.81-4.323-1.468-.805-6.291-3.469-2.254-1.257-14.312-7.943-31.506-17.446-.682-.301z" fill="url(#paint3_linear)"/><path d="M17.876 77.46c-.262 0-.524.051-.786.202-.21.1-.42.251-.63.452a3.267 3.267 0 00-.523.654 5.74 5.74 0 00-.315.754c0-.251.105-.704.262-1.408.157-.754.577-1.106 1.31-1.055l.682.402z" fill="#ADA7A2"/><path d="M15.098 74.092c.157.252.367.604.629 1.056-.262-.15-.524-.302-.682-.402l.053-.654z" fill="#9B9591"/><path d="M11.219 115.569c0-.452.052-.804.052-1.106.42-4.122.786-7.189.996-9.25.105-.704.472-3.821 1.153-9.352.63-5.329.996-8.446 1.101-9.3.105-1.107.315-2.263.63-3.42v.504c-.42 3.117-1.207 9.552-2.412 19.305-.944 8.195-1.468 12.368-1.52 12.619z" fill="#BCB5B0"/><path d="M93.995 164.386c-.21.05-.472.05-.734.05h-1.468v-.05h-.262c0-.201-.053-1.609-.105-4.072-.105-2.514-.21-6.184-.367-11.061-.105-2.815-.262-8.245-.524-16.339-.21-7.441-.315-11.412-.367-11.815 0-.1-.053-.351-.158-.703a8.347 8.347 0 00-.471-1.509c-.367-.955-.892-1.81-1.52-2.614v-1.005l2.358 1.256.315.151c.157.151.314.352.524.604.367.402.734.854 1.153 1.407.315.453.577.905.84 1.358.156.301.261.452.261.452.105.201.158.402.158.553.157 18.904.262 31.623.314 38.159.053 3.217.053 4.927.053 5.178z" fill="url(#paint4_linear)"/><path d="M26.63 68.411a58.72 58.72 0 01-.156-1.106 88.966 88.966 0 00-.158-1.609 80.75 80.75 0 01.158-2.262v-.553c0-.302 0-.654.052-1.156v-2.514c-.21-1.559-.052-2.413.577-2.564.262-.05.471.05.681.251.21.252.315.553.315.955 0 .654-.053 1.66-.158 3.067 0 .1 0 .252-.052.352-.315-.201-.577.05-.681.754-.053.252-.053.553-.105.955v1.157c-.053.251-.053.603-.158 1.056 0 .1-.052.2-.052.352 0 .301-.053.603-.105.904v.956c0 .252-.052.604-.052 1.006h-.105zm3.146-5.027c.157-.754.315-1.408.367-1.961.053-.352.105-.603.105-.855 0-.1.052-.251.052-.352l.158-.603c.157-.553.42-.955.839-1.206.419-.302.733-.202.786.301 0 .15.052.302.052.503 0 .251-.052.603-.157 1.206 0 .101-.052.252-.052.403-.158.854-.42 1.96-.787 3.368-.105.251-.157.553-.21.805l-.157.452c-.052.352-.157.955-.262 1.81-.157.15-.314.251-.524.402-.262.15-.524.302-.839.453 0-.855.053-1.458.053-1.86.052-.302.052-.604.104-.906.105-.402.158-.854.263-1.307a4.52 4.52 0 00.21-.653z" fill="#6C32EB"/><path d="M29.2 68.06c.314-.101.576-.252.838-.453.21-.1.367-.251.525-.402l.314-.302.21-.352v-.05c0-.05.052-.1.052-.15.053-.152.105-.353.105-.504 0-.352-.157-.653-.314-.955a3.61 3.61 0 01.21-.804c.628.553.943 1.156.943 1.81 0 .15 0 .301-.052.452-.105.654-.577 1.257-1.416 1.76-.052 0-.157.05-.157.1-.367.201-.786.403-1.206.503H29.2c-.315.1-.682.15-.996.201-.367.05-.734.05-1.154.05h-.367c-.576 0-1.048-.1-1.52-.2-.105-.051-.262-.051-.367-.101a4.02 4.02 0 01-.944-.402c-.157-.101-.314-.151-.471-.252-.84-.503-1.31-1.106-1.468-1.76v-.452c0-.754.42-1.408 1.206-2.01.052.25.052.502.104.753-.21.252-.366.503-.471.754-.053.151-.053.302-.105.453 0 .15.052.352.105.503.105.402.419.754.838 1.106.053.05.158.05.21.15v.101c.367.201.786.402 1.206.553.472.1.943.201 1.52.251h.367c.42 0 .839-.05 1.206-.1.42-.1.786-.151 1.1-.252zm.419-4.777c.053.05.105.05.157.1-.052.202-.104.403-.157.654-.052 0-.052-.05-.105-.05.053-.251.053-.503.105-.704zm-3.407.201v-.553h.366v.553h-.052c-.157-.05-.262 0-.314 0zm-1.678-.251c.105-.05.21-.05.315-.1 0 .2.052.402.052.552-.105.05-.262.101-.367.151v-.603z" fill="#E3F0FA"/><path d="M29.514 63.937c.053 0 .053.05.105.05-.105.453-.157.905-.262 1.307.052-.452.157-.905.157-1.357zm1.416 1.056c.21.251.314.603.314.955 0 .15-.052.352-.105.503 0 .05-.052.1-.052.15v.05l-.21.353c-.105.1-.21.251-.314.301.104-.854.157-1.458.262-1.81 0-.251.052-.402.105-.502zm-7.287 2.513c-.472-.352-.734-.704-.84-1.106a1.723 1.723 0 01-.104-.502c0-.151.052-.302.105-.453.105-.251.262-.553.472-.754 0 .15.052.302.052.503v.2c.105.805.262 1.509.315 2.112zm1.415-.603c-.157-1.106-.314-1.91-.367-2.463-.052-.252-.052-.403-.105-.553.105-.05.21-.101.367-.151v.553c0 .402.053.704.053 1.005 0 .603.052 1.106.052 1.61zm1.416-3.469a80.734 80.734 0 00-.158 2.263 33.397 33.397 0 00-.157-1.86v-.352c.105 0 .21-.05.315-.05z" fill="#222"/><path d="M21.913 69.417V66.4c.157.654.629 1.257 1.468 1.76.157.1.314.15.471.251.315.151.63.252.944.403.105 0 .21.05.367.1.472.1.996.201 1.52.201h.368c.419 0 .786 0 1.153-.05s.681-.1.996-.201h.052c.42-.151.839-.352 1.206-.503.052-.05.105-.1.157-.1.839-.503 1.31-1.106 1.416-1.76h.104v5.53h-.052c-.105.704-.577 1.307-1.468 1.86-.891.553-1.887.855-3.04.905h-.735c-1.31-.05-2.463-.352-3.407-.905-.839-.553-1.31-1.156-1.468-1.86v-2.614h-.052zm88.595 22.825c-.053.15-.157.402-.262.854-.158.403-.42.604-.787.604-.367 0-.524-.252-.524-.805-.052-.05-.105-.1-.157-.2a1.725 1.725 0 01-.105-.554c0-.352.052-.653.157-.905.21-.452.629-.855 1.206-1.156.734-.402 1.153-.402 1.311-.05.314-.05.524.15.524.653 0 .302-.157.503-.42.654-.367.2-.629.502-.838.804-.053 0-.105.05-.105.1zm-2.831-.151v.15c.052.202.105.353.21.504.052.15.419.452.996 1.005.629.503 1.415.754 2.464.754.733 0 1.887-.402 3.407-1.257 1.52-.855 2.621-1.257 3.25-1.257h.315c0 .1.052.252.052.352v.05c-.105.05-.209.101-.314.202l-.158.1h-.052c-1.73.402-3.303 1.106-4.718 2.162-.157.1-.262.201-.419.302-.158.1-.315.15-.525.2-1.205.202-2.254.051-3.04-.452-.734-.503-1.258-1.307-1.625-2.413 0-.15.052-.251.157-.402z" fill="#AFCAD8"/><path d="M58.871 16.477v2.665l-1.048-.603v-2.665l1.048.603zm3.932 13.172v-2.664l1.363.804v2.665l-1.363-.805zm4.456-1.558v-2.665l5.924 3.318v2.665l-5.924-3.318zm-20.236.804v-2.664l6.553 3.62v2.714l-6.553-3.67zm8.703-5.781v2.714l-8.703-4.826v-2.715l8.703 4.827zm-4.037 20.411V40.81l3.617 2.011v2.665l-3.617-1.96zm2.202-5.53v2.665l-6.815-3.771v-2.665l6.815 3.771zm19.24 2.715v2.715l-5.925-3.268v-2.715l5.924 3.268zm-12.163-6.737l1.31.754v2.715l-1.31-.754v-2.715zm.262 14.73V46.04l1.783 1.005v2.715l-1.783-1.055zm2.516 1.509v-2.715l1.783 1.005v2.665l-1.783-.955zm4.718-1.458v-2.715l4.666 2.614v2.665l-4.666-2.564z" fill="#FF79D6"/><path d="M59.71 16.98l1.1.553v2.614l-1.1-.553V16.98zm2.359 12.267l-1.31-.754v-2.665l1.31.805v2.614zm-3.303-4.474l1.363.754v2.664l-1.363-.754v-2.665zm4.142-1.66v2.665l-1.626-.955v-2.614l1.626.904zm4.77.905v-2.664l5.452 2.966v2.715l-5.452-3.017zm-1.573 7.491l-1.363-.804V27.99l1.363.805v2.714zm-19.082-6.586V22.21l2.726 1.508v2.715l-2.726-1.509zm7.077-11.06v2.664l-7.077-3.921V9.941l7.077 3.922zm2.779 1.558v2.665l-.996-.603v-2.665l.996.603zm-5.61 1.207v2.665l-4.193-2.363v-2.665l4.194 2.363zm6.816 3.82v2.665l-1.573-.904v-2.665l1.573.905zM50.22 40.007v2.664l-3.198-1.76v-2.714l3.198 1.81zm4.561-5.43v2.665l-2.254-1.307V33.32l2.254 1.257zm-7.759-4.323l2.097 1.156v2.664l-2.097-1.106v-2.714zm9.489-.05v-2.716l1.887 1.056v2.665l-1.887-1.006zm-2.516-4.073v2.715l-1.888-1.056v-2.715l1.888 1.056zm3.46 16.54v-2.664l2.673 1.458v2.715l-2.673-1.509zm15.674-5.932v2.665l-4.456-2.514v-2.665l4.456 2.514zM56.511 46.14v-2.614l3.67 2.011v2.665l-3.67-2.062zm2.411-9.3l2.517 1.357v2.665l-2.517-1.408V36.84zm.472-3.771v2.715l-3.46-1.961v-2.665l3.46 1.91zm13.735-.352v2.715l-1.835-1.056v-2.614l1.835.955zm-6.762 16.188l1.73 1.006v2.715l-1.73-1.006v-2.715zm-4.142-6.234l2.936 1.61v2.714l-2.936-1.659V42.67zm7.706 8.245l3.198 1.76v2.715l-3.198-1.81v-2.664zm3.198-3.569l-1.415-.804v-2.665l1.415.804v2.665z" fill="#DDCFFB"/><path d="M97.612 83.343c.105.15.21.251.42.352l-.682.352c-.053.05-.105.05-.105.1l4.613 2.514c.157.1.367.1.524 0l1.468-.754.105-.1s0-.05-.105-.101v.05l-4.456-2.513c-.052-.05-.105-.05-.157-.05.577-.403 1.048-.654 1.363-.755.105-.05.209-.05.367-.05.472-.1.891-.201 1.258-.352h.105c.314-.1.576-.201.786-.302l4.246 2.363c.158.05.262.15.21.352 0 .1-.052.201-.21.302l-.262.15-13 7.19h-.053c-.315.15-.577.15-.839 0l-12.11-6.687V84.6c.053 0 .158-.05.21-.05l.577-.302c.052-.05.052-.1.105-.1-.053 0-.053-.05-.105-.05l-.787-.453v-1.106l1.259-.704h.104l-.104-.1-1.259-.705v-.502l.315.2c.21.101.42.101.63 0l1.467-.854.052-.05-.052-.05-1.52-.805v-.05c-.21-.1-.367-.05-.577.05l-.315.15v-.653c.053 0 .053-.05.053-.05h-.053v-.603c.105 0 .21 0 .263-.1l1.467-.805.105-.1c-.052 0-.052-.051-.105-.101l-1.467-.805c-.105-.05-.21-.05-.263-.05v-.654l.944.503h-.052c.21.1.419.05.576-.05l1.468-.804c.053-.05.053-.05.105-.05-.052 0-.105 0-.157-.051l-1.468-.804v-.05c-.157-.101-.367-.101-.577 0h.053l-.944.502v-.603l.524-.302.053-.05-.053-.05-.524-.302v-.252c.157.101.315.202.472.202.157 0 .262-.05.42-.151l.052.05c.21.05.367.05.524 0l1.52-.804.052-.05c0-.05-.052-.101-.157-.101l-1.153-.654c.105-.251.21-.452.262-.704l9.698 5.38c-.367.1-.734.201-.996.302l-6.815-3.771c-.105-.05-.21-.1-.314-.1-.053 0-.157 0-.21.1l-1.415.754c-.105 0-.158 0-.158.1l.105.05 7.077 3.872c0 .05-.052.1-.052.15 0 .252.105.403.314.554.158.1.367.15.63.15.157 0 .367 0 .576-.1l1.678.955v.1s.105.202.262.604c0 .05.052.1.105.201l-1.363-.754c-.21-.1-.367-.1-.525 0l-1.467.805-.105.1s.052.05.157.1l1.468.805c.157.1.314.1.524 0l1.468-.804c.052.1.105.15.21.15.105.05.262.05.524.05 0 0 .157-.15.367-.401.262-.352.42-.553.524-.654l.21-.201.629-.352h.052c.21-.05.472-.05.734-.05.157 0 .262.05.42.15.104.05.262.202.419.453 0 .05.052.1.052.15-.052 0-.105.051-.157.101-.157-.05-.262-.05-.367 0-.052 0-.105 0-.157.05l-1.468.855h-.105l.42.252a1.412 1.412 0 00-.42.502l-.891-.502c-.21-.1-.42-.1-.577 0l-1.468.804c-.052 0-.104.05-.157.05.053 0 .053 0 .105.05l1.468.755c.21.1.367.1.577 0l1.153-.604.052.05c.105.101.262.202.367.252l-1.206.704-.104.05.105.1 1.467.755c.158.1.367.1.525 0l.629-.352zm2.831-.302c-.053 0-.053.05-.053.05l.053.101 1.52.805c.209.05.367.05.576 0l1.521-.805c.052-.05.052-.1.105-.1-.053 0-.053-.05-.158-.05l-1.468-.855v-.05c-.104-.05-.262-.101-.419 0-.052 0-.157 0-.157.05l-1.468.854h-.052zm-19.345-12.87l.21-.503.262.151c-.052.1-.105.251-.157.402-.105.352-.21.654-.262.905l-.053.05v-.703h.053-.053v-.302zm3.303 5.078l-1.468.754c-.052.05-.105.05-.105.1l.053.05h.052l1.468.855c.21.1.42.1.577 0l1.468-.854c.052-.05.052-.05.104-.05-.052 0-.052-.05-.157-.101l-1.468-.754a.493.493 0 00-.524 0zm-1.1 1.96l-1.469.805c-.104 0-.157 0-.157.1l.105.05 1.468.755c.21.1.42.1.629 0l1.468-.805c.052-.05.105-.05.105-.05 0-.05-.053-.05-.105-.1v.05l-1.52-.804c-.21-.101-.368-.101-.525 0zm-.944 3.872l1.467.804h-.052c.21.1.42.1.63 0l1.467-.804c0-.05.052-.1.052-.1s-.052-.051-.052-.102v.05l-1.468-.753c-.21-.1-.42-.1-.629 0h.052l-1.467.804c-.053 0-.105.05-.158.05.105 0 .105 0 .158.05zm1.782-1.66l.105.05 1.468.855c.157.05.314.05.524 0l1.468-.854c.052-.05.052-.05.105-.05 0 0-.053-.05-.105-.05l-1.468-.805v-.05c-.21-.1-.367-.1-.524 0l-1.468.854c-.105 0-.105 0-.105.05zm9.908-1.86l-.052-.05h.052v.05zm-4.246.352c-.21-.1-.367-.1-.525 0l-1.52.855-.052.05s0 .05.052.1l1.52.805c.158.1.315.1.525 0l1.468-.804.104-.1s-.052-.051-.105-.051l-1.467-.855zm-.787-.452c-.052 0-.052-.05-.105-.1l-1.467-.755c-.21-.15-.42-.15-.577-.05v.05l-1.468.754c-.052.05-.105.05-.157.1 0 0 .052 0 .105.051h.052l1.52.855c.158.1.315.1.525 0l1.468-.855c0-.05.052-.05.104-.05zm-2.411 3.217c-.053.05-.105.05-.105.101l1.573.905a.93.93 0 00.524 0l1.468-.855c.052-.05.105-.05.105-.05s-.053 0-.105-.05l-1.468-.805a.493.493 0 00-.524 0l-1.468.754zm-.367.805l-1.468.804c-.052 0-.105 0-.157.05 0 0 .052.05.157.05l1.468.856c.157.05.367.05.524-.05l1.468-.805c.052-.05.105-.05.105-.05 0-.05-.053-.05-.105-.101v.05l-1.468-.804a.493.493 0 00-.524 0zM97.402 84.7l-1.52-.804c-.21-.1-.367-.1-.525 0l-1.467.804c-.105 0-.158.05-.158.101l1.573.905c.157.1.367.1.524 0l1.52-.855.053-.05c.052-.1 0-.1 0-.1zm-1.415 2.212l-1.468.805c-.053 0-.105.05-.157.1.052 0 .052 0 .104.05l2.622 1.459c.157.1.366.1.524 0l1.468-.855.104-.05s0-.05-.052-.1l-2.621-1.409c-.157-.15-.315-.15-.524 0zm.367-.754l3.197 1.81c.158.1.315.1.525 0l1.415-.804c.052-.05.105-.05.105-.05s-.053-.05-.105-.05l-3.198-1.76v-.1c-.157-.101-.314-.101-.524 0v.05l-1.468.754c-.052.05-.105.05-.157.1h.209v.05zm-1.416-2.815l-1.468-.754c-.21-.1-.367-.15-.524 0l-1.52.804v-.05c-.053.05-.053.05-.053.1s0 .05.053.101l1.52.805c.157.1.367.1.524 0l1.468-.805.105-.1c0-.05 0-.101-.105-.101zm-3.827.804l-1.52.855c-.052 0-.105.05-.105.05l1.573.905c.157.1.367.1.576 0l1.468-.854c.053-.05.105-.05.158-.05h-.053l-1.52-.855c-.21-.151-.42-.151-.577-.05zm-.42-.502l-1.467-.805c-.21-.1-.367-.15-.524-.05l-1.468.804c-.105.05-.157.05-.157.1l1.625.906c.157.05.314.05.524 0l1.468-.855c.052-.05.052-.05.105-.05-.053 0-.053-.05-.105-.05zm1.364 3.368l-1.52-.855a.589.589 0 00-.577 0l-1.468.805-.105.1c0 .05.053.05.105.1l1.468.805c.157.1.367.1.524 0l1.573-.804.105-.1c-.053-.05-.105-.05-.105-.05zm.367.453l-1.52.854v-.05l-.105.1.105.101 1.52.855c.21.1.42.05.577-.05l1.52-.755c.052-.05.052-.1.052-.1s-.052-.05-.052-.1v.05l-1.52-.855c-.21-.151-.42-.151-.577-.05zm-.524-1.106l1.572.904c.157.101.367.101.577 0l1.468-.854.105-.1c-.053 0-.053-.051-.105-.051l-1.52-.805c-.158-.1-.368-.1-.577 0h.052l-1.468.805-.104.1zm2.883 2.463l-1.468.804v-.05c-.052.05-.105.05-.105.1l.105.101 1.468.805c.157.1.367.1.524 0l1.52-.805c.053-.05.053-.1.105-.1-.052 0-.052-.05-.105-.1v.05l-1.52-.805c-.105-.1-.315-.1-.524 0zm-.315 2.112L93 90.13c-.21-.1-.42-.1-.63 0l-.629.402 1.573.905c.157.1.314.1.524 0l.577-.352c.052-.05.105-.05.105-.05.052-.05 0-.1-.053-.1zm-2.411-1.308s-.053-.05-.053-.1v.05l-1.52-.855a.59.59 0 00-.576 0l-.63.302-.052.05 1.573.905c.157.1.367.1.524 0l.629-.301c.052-.05.105-.05.105-.05zm6.343-7.641c-.157.15-.262.301-.42.502l-.89-.502c.052-.05.157-.101.21-.151.471-.302.89-.503 1.257-.704.158-.1.315-.201.42-.252v.252l-.944.503c-.052.05-.052.05-.052.1l.419.252zm-7.916-.805l-1.468.855v-.05c-.052.05-.052.1-.052.1s0 .05.052.1l1.468.855c.157.1.367.1.577 0l1.468-.854c.052-.05.052-.05.105-.05-.053-.05-.105-.05-.158-.101l-1.52-.855c-.105-.05-.315-.05-.472 0zm-2.936 3.62l-1.467.855c-.053.05-.105.05-.105.05l.105.1 1.468.805c.157.1.314.1.524 0l1.468-.805.104-.1s-.052-.05-.105-.05l-1.467-.855a.493.493 0 00-.525 0zm-1.834-1.307c-.21-.1-.42-.1-.525 0l-1.52.804v-.05c-.052.05-.052.1-.052.1l1.572.906c.158.1.315.1.525 0l1.52-.855c.052-.05.052-.05.105-.05l-.105-.101v.05l-1.52-.804zm.576 3.72l.63-.302.104-.1-.105-.05-1.467-.805c-.21-.1-.42-.15-.63 0l-.576.302v-.05c-.053.05-.105.05-.105.1s.052.05.157.1l1.468.805c.21.1.367.1.524 0zm.577.453c-.052 0-.105.05-.105.05l1.573.905c.157.05.314.05.524 0l.524-.352c.053-.05.053-.05.105-.05l-.105-.1-1.468-.805v-.05c-.21-.101-.367-.101-.524.05l-.524.352zm-2.044-4.676l-1.52-.855c-.21-.1-.368-.15-.577 0l-1.468.855v-.05l-.105.1s.052.05.157.1l1.468.805c.21.1.367.1.577 0l1.52-.804.052-.05c-.052-.05-.105-.05-.105-.1zm-1.94 1.559a.493.493 0 00-.524 0l-.577.301-.105.05 1.573.906c.157.1.367.1.524 0l.577-.302c.052-.05.052-.05.105-.05l-.105-.101v.05l-1.468-.854zm34.861 6.083c-.681.15-1.468.452-2.411.905-1.311.653-2.621 1.005-3.932 1.005-.21 0-.524-.1-.944-.251 0-.05.053-.1.053-.1.157-.352.472-.654.839-.805.314-.15.419-.352.419-.654 0-.452-.157-.653-.524-.653-.158-.352-.577-.352-1.311.05a2.9 2.9 0 00-1.206 1.156c-.104-.1-.262-.2-.419-.301.105-.201.21-.402.367-.603.629-.956 1.677-1.559 3.145-1.81 1.521-.252 2.464-.302 2.884-.151.419.15 1.048.553 1.939 1.156.105.05.158.15.21.201l.314.302c.263.05.42.251.577.553zm-12.791-7.14c-.157-.05-.262-.1-.419-.05a.402.402 0 00-.21.101l-1.468.855h-.105c.053 0 .053 0 .105.05l1.468.855c.21.05.419.05.629 0l1.468-.805c.052-.05.052-.05.105-.05 0-.05-.053-.05-.158-.05l-1.415-.905z" fill="#F6FCFF"/><path d="M108.83 91.236a2.343 2.343 0 00-.157.905c0 .201.052.402.105.553.052.1.105.15.157.201 0 .553.21.805.524.805.315 0 .577-.201.787-.604.105-.402.209-.704.262-.854.367.15.681.251.943.251 1.259 0 2.569-.302 3.932-1.005.944-.453 1.73-.755 2.412-.906.262.453.471.906.524 1.408h-.367c-.629 0-1.73.402-3.25 1.257-1.521.805-2.674 1.257-3.408 1.257-1.048 0-1.835-.251-2.464-.754-.576-.503-.943-.855-.996-1.006a1.46 1.46 0 01-.209-.502v-.151c.052-.05.052-.151.104-.201.158-.302.367-.604.629-1.006.21.151.367.251.472.352z" fill="#DBE8EE"/><path d="M37.115 39.755l11.796 27.852-1.154.653v13.072c-1.205-.653-2.516-1.408-4.089-2.262-.524-.302-1.048-.553-1.572-.905a30.413 30.413 0 00-1.888-1.056c-.419-.251-.838-.453-1.31-.704a11.26 11.26 0 00-1.101-.553 2.501 2.501 0 01-.944-.855c-.052-.05-.052-.1-.105-.15-.21-.352-.314-.654-.314-.956V41.414c.21-1.006.42-1.61.681-1.66zm41.834 23.83v34.086c-.314.252-.577.352-.786.352-.105 0-.315-.05-.577-.1-.157-.1-.367-.201-.524-.302-1.049-.553-2.045-1.156-3.04-1.71-2.098-1.206-4.142-2.362-6.187-3.418l-5.19-2.866-.786-.402V73.891c-.367-.2-.734-.402-1.1-.603L73.863 66.3l.052-.05 5.033-2.665zm-40.366 8.044l.367.201-.367-.201z" fill="#9C9CD2"/><path d="M38.583 71.629l.367.2-.367-.2z" fill="#364860"/><path d="M166.653 28.694l4.299 2.313c.733.402 1.048 1.005 1.048 1.81v9.15c0 .352-.052.553-.157.703-.053 0-.105.05-.158.05-.157.051-.419 0-.786-.2l-5.924-3.268-2.359-1.307c-.734-.403-1.101-1.006-1.101-1.76v-9.15c0-.402.105-.654.315-.754.157-.1.419-.05.786.15l3.303 1.81v-.05l.734.503zM123.718 13.11s-.052.05-.104.05c-.105.05-.263 0-.42-.1l-4.613-2.564c-.419-.201-.629-.553-.629-1.006V4.411c0-.2.052-.352.157-.402.105-.05.262-.05.472.05l4.613 2.564c.42.201.577.553.577 1.006v5.078c0 .2 0 .352-.053.402zm16.304 26.696l4.613 2.564c.42.201.577.553.577 1.005v5.078c0 .201-.053.302-.105.402l-.052.05c-.105.05-.263 0-.42-.1l-4.613-2.564c-.419-.201-.577-.553-.577-1.006v-5.128c0-.2.053-.351.158-.402.104-.05.262 0 .419.1zm18.872 35.343c.315.201.472.453.472.805v4.072c0 .15 0 .251-.105.301l-.052.05c-.105.051-.21 0-.367-.1l-1.049-.603-2.621-1.458c-.314-.201-.472-.453-.472-.805v-4.022c0-.2.053-.301.105-.351.105-.05.21 0 .367.1l1.783 1.006 1.939 1.005zm-3.669 5.229l1.782 1.005 1.887 1.006c.315.2.472.452.472.804v4.072c0 .151 0 .252-.105.302l-.052.05c-.105.05-.21 0-.367-.1l-1.049-.604-2.621-1.458c-.314-.2-.472-.452-.472-.804v-4.022c0-.201.053-.302.105-.352.157 0 .262.05.42.1zm0 7.29l1.782 1.005 1.887 1.006c.315.2.472.452.472.804v4.072c0 .151 0 .252-.105.302l-.052.05c-.105.05-.21 0-.367-.1l-1.049-.604-2.621-1.458c-.314-.2-.472-.452-.472-.804v-4.022c0-.201.053-.302.105-.352.157 0 .262.05.42.1zM77.062.842l1.782 1.005 1.94 1.006c.314.2.472.452.472.804V7.73c0 .151 0 .252-.053.302h-.052c-.105.05-.21 0-.315-.05l-1.048-.603v.05L77.167 5.97c-.315-.201-.472-.453-.472-.805V1.093c0-.201.052-.302.105-.352-.053 0 .052 0 .262.1zm4.141 10.105v4.072c0 .151 0 .252-.052.302h-.053c-.104.05-.21 0-.314-.05l-1.049-.604v.05l-2.62-1.457c-.315-.201-.472-.453-.472-.805V8.383c0-.201.052-.302.104-.352.105-.05.21 0 .367.05l1.783 1.006 1.94 1.005c.209.252.366.503.366.855zm0 7.29v4.072c0 .151 0 .252-.052.302h-.053c-.104.05-.21 0-.314-.05l-1.049-.604v.05l-2.62-1.458c-.315-.2-.472-.452-.472-.804v-4.072c0-.201.052-.302.104-.352.105-.05.21 0 .367.05l1.783 1.006 1.94 1.005c.209.252.366.503.366.855z" fill="#EDE9FF"/></g><defs><linearGradient id="paint0_linear" x1="0" y1="103.757" x2="167.754" y2="103.757" gradientUnits="userSpaceOnUse"><stop stop-color="#FFECF8"/><stop offset="1" stop-color="#E9F7FF"/></linearGradient><linearGradient id="paint1_linear" x1="0" y1="151.932" x2="167.754" y2="151.932" gradientUnits="userSpaceOnUse"><stop stop-color="#FFECF8"/><stop offset="1" stop-color="#E9F7FF"/></linearGradient><linearGradient id="paint2_linear" x1="1.258" y1="149.676" x2="166.548" y2="149.676" gradientUnits="userSpaceOnUse"><stop stop-color="#FFB5E4"/><stop offset="1" stop-color="#00ABFF"/></linearGradient><linearGradient id="paint3_linear" x1="88.071" y1="96.254" x2="12.293" y2="96.254" gradientUnits="userSpaceOnUse"><stop stop-color="#D4D4F1"/><stop offset="1" stop-color="#B0B0E2"/></linearGradient><linearGradient id="paint4_linear" x1="91.891" y1="139.867" x2="93.529" y2="139.867" gradientUnits="userSpaceOnUse"><stop stop-color="#D4D4F1"/><stop offset="1" stop-color="#B0B0E2"/></linearGradient><clipPath id="clip0"><path fill="#fff" transform="translate(0 .741)" d="M0 0h172v178.426H0z"/></clipPath></defs></svg>