<svg width="176" height="180" fill="none" xmlns="http://www.w3.org/2000/svg"><g clip-path="url(#clip0)" fill-rule="evenodd" clip-rule="evenodd"><path d="M148.282 100.942v-.085l21.417-11.919v-2l-.573-.298.573-.298v-1.277l3.349 1.873v2L151.676 100.9h-.089v-.043l-3.305.085zm-11.325-1.064l1.499 4.512 1.454.085 1.763-.979-.529-1.575c1.674 1.107 2.027 1.958 1.013 2.512l-12.603 7.066c-1.41.766-3.877.34-7.403-1.362l-3.878-1.916.044-.298-7.887-4.725c.044-.255.22-.468.573-.638l10.355-5.79 4.671 14.303 1.454.128 1.763-.979-1.587-5.108 9.298-5.236zm-49.75 42.056c-.044.255-.044.553-.044.809.088 2.085 1.454 3.831 4.186 5.193 2.688 1.405 5.905 2.043 9.65 1.915 3.746-.127 6.919-.979 9.519-2.554 2.6-1.575 3.834-3.405 3.745-5.448 0-.256-.044-.511-.088-.724.088-.34.088-.723.088-1.064-.044-1.149-.484-2.213-1.366-3.193l4.054-2.17c.089.085.177.127.221.212.396.341.661.469.881.384l10.4-5.662c.176-.128.264-.383.176-.851.088.17.22.298.308.468.353.596.573 1.149.661 1.66.089.511.044.809-.176.937l-10.399 5.661c-.221.128-.485 0-.882-.341a27.749 27.749 0 01-.176-.17l-3.569 1.916c1.454 1.192 2.203 2.596 2.247 4.171.088 2.256-1.322 4.257-4.186 5.96-2.865 1.702-6.346 2.639-10.488 2.809-4.098.128-7.623-.553-10.62-2.086-2.952-1.532-4.495-3.405-4.583-5.661 0-.809.132-1.533.44-2.171zm-16.833-23.327l-.044 1.916v.511l-3.305 1.83 2.203 1.235-10.796 6.044c0-.255-.044-.553-.044-.809 0-.298-.044-.638-.044-.936a87.272 87.272 0 00-.353-3.533 55.36 55.36 0 00-.44-2.852l12.867-7.109v3.703h-.044zm-27.321 43.206c.837 2.341 2.688 3.149 5.64 2.426.485-.17.97-.256 1.498-.256l.265.682c.837.255 1.586.34 2.203.212.793-.17 1.41-.681 1.895-1.447.44-.34.66-.851.66-1.49-.175-2.639-.396-5.15-.704-7.534 1.498.638 2.908 1.49 4.186 2.639.176.17.353.298.573.341.352.127.705.085 1.102-.043.44-.213.705-.511.749-.979.088-.298.132-.596.176-.894l2.732 1.49c2.027 1.149 2.38 2.086 1.058 2.852l-12.383 6.938c-1.366.766-3.085.596-5.112-.51l-4.583-2.554c-2.027-1.107-2.335-2.044-.969-2.81l6.566-3.661v.256a14.943 14.943 0 01-.264 1.958l-.441.298c-2.247.553-3.614.979-4.186 1.405-.573.255-.794.51-.661.681zm-13.088-15.835c0-.043-.044-.128-.044-.17-.485-1.107-1.454-2.044-2.953-2.895-2.159-1.192-4.759-1.788-7.8-1.788-3.04 0-5.684.596-7.843 1.831-.22.127-.44.255-.617.383L0 137.337l5.376-2.98c.088.085.176.128.309.213.484.34 1.013.681 1.542.979.66.383 1.278.724 1.895 1.064.66.383 1.366.426 2.115.085a100.359 100.359 0 002.996-1.575c1.807-.979 3.614-2 5.376-2.979 1.719-.979 3.482-1.958 5.2-2.937 1.146-.639 2.336-1.32 3.481-2.001l10.047 5.448 5.905-3.277c-.308 2.511-.264 4.937.133 7.236.088.426.176.809.264 1.235l-14.674 8.13zm-21.813 1.915v2.554a4.3 4.3 0 00.485 1.958c.529.894 1.454 1.703 2.732 2.427 2.16 1.191 4.715 1.787 7.756 1.787 3.084 0 5.684-.595 7.843-1.83 1.763-1.022 2.82-2.171 3.13-3.533a2.89 2.89 0 00.131-.851c0-.128-.044-.298-.044-.426v-.468a4.13 4.13 0 01.617 2.384c-.088 1.872-1.322 3.447-3.701 4.682-2.424 1.234-5.288 1.788-8.637 1.703-3.35-.128-6.17-.894-8.505-2.257-2.336-1.404-3.437-3.022-3.393-4.895.044-1.192.573-2.256 1.586-3.235zm72.489-123.4l28.334-15.708v2.682l-32.564 18.09a.59.59 0 01-.133-.17l1.41-.808c.662-.383 1.102-.766 1.322-1.107l1.631-2.98zm-13.22 10.003L17.671 62.12v9.706l-2.688 1.49V60.887l48.78-27.072c.177.042.31.127.441.17.22.128.485.17.794.128.264-.043.484-.17.749-.341.396.128.88.383 1.542.681.088.043.088.043.132.043zm12.559 6.853v8.513c0-.042-.044-.042-.044-.042a4.999 4.999 0 01-.705-.852 16.67 16.67 0 01-.661-.979c0-.212-.088-.553-.176-1.064a5.69 5.69 0 01-.133-1.064c-.176-.809-.22-1.873-.176-3.15v-.34l1.895-1.022zm24.809-12.6v6.172l-1.278-4h-.044l-.396-1.235 1.718-.937zm-7.623 5.236v-1.15L87.03 38.498v1.15l10.135-5.662zm3.922.383l-12.295 6.896c-1.057.596-1.586 1.49-1.586 2.681v2.044c-1.851 1.49-2.82 3.533-2.82 6.087v10.641c0 3.108 1.41 3.916 4.23 2.341L99.369 59.1c1.851-1.064 3.085-2.469 3.746-4.171l.132-.085.485.468c.352.127.705.255 1.013.34v14.813l-27.189 15.24V55.012h.133a1.52 1.52 0 00.66-.256c.265-.17.353-.383.353-.596.044-.468-.22-.936-.705-1.404a1.894 1.894 0 00-.308-.256l.264.128c.264.17.66.298 1.146.426.308.085.617.127.881.085v28.307l1.013-.554V40.838l18.86-10.429.574 1.745v.043l.661 2.171zM22.87 84.213v32.351l-2.82 1.575V77.616L67.994 50.84v2.937L22.87 78.935v5.278zm74.648-18.048c.22.128.44.128.705-.042.265-.17.53-.426.705-.767.22-.34.309-.638.309-.936 0-.298-.088-.553-.309-.681-.22-.128-.44-.128-.705.043-.264.17-.484.425-.705.766-.22.34-.308.68-.308 1.021 0 .298.088.511.308.596zm-11.81 5.193v1.15l9.519-5.321v-1.15l-9.518 5.321zm12.515-2c-.264.17-.484.425-.705.766-.22.34-.308.681-.308 1.022 0 .297.088.51.308.596.22.127.44.127.705-.043a1.89 1.89 0 00.705-.809 1.56 1.56 0 00.309-.894c0-.298-.088-.553-.309-.68-.176-.129-.44-.129-.705.042zm-2.996 3.405v-1.15l-9.518 5.322v1.149l9.518-5.32zM89.146 99.24l-3.085-1.448-2.6-1.234c1.895-1.064 3.834-2.171 5.729-3.235a435.635 435.635 0 016.08-3.405l5.685-3.193c2.116-1.192 4.275-2.341 6.434-3.49l11.81 6.597 1.762 5.449-12.206 6.811-8.593-5.151-10.972 6.087V99.24h-.044zm36.266-4.13c1.366.043 3.217.64 5.552 1.746l3.217 1.575-7.403 4.129-2.203-7.024.837-.425zm-1.939-2.809l1.014.554-.705.383-.309-.937zM10.135 28.92c.75-.425 1.41-.468 1.94-.17.528.298.792.852.792 1.703 0 .851-.264 1.745-.793 2.639-.529.894-1.19 1.575-1.983 2-.749.426-1.41.469-1.939.17-.529-.297-.837-.85-.837-1.702 0-.851.264-1.745.837-2.596.617-.98 1.278-1.618 1.983-2.044zm18.949-9.577c.528.298.837.851.837 1.703 0 .85-.264 1.745-.793 2.639-.53.894-1.19 1.532-1.983 1.958-.75.425-1.41.468-1.94.17-.528-.298-.836-.851-.836-1.703 0-.85.264-1.702.837-2.596.529-.894 1.19-1.575 1.939-2 .793-.427 1.454-.469 1.939-.171zm-8.24 4.682c.528.298.836.852.836 1.703 0 .851-.264 1.745-.793 2.64-.529.893-1.19 1.531-1.983 1.957-.749.426-1.41.468-1.939.17-.528-.298-.837-.85-.837-1.702s.265-1.703.837-2.597c.53-.894 1.19-1.575 1.94-2 .748-.426 1.41-.469 1.938-.17z" fill="#85C2F7"/><path d="M66.275 12.19c-.22-.127-.396-.17-.484-.212a4.852 4.852 0 01-1.675-1.32 6.92 6.92 0 01-1.057-1.83v-.256h.176c.132 0 .264 0 .44.085.133.043.265.17.397.341l.088.128c.088.085.177.17.265.34.132.128.22.213.352.256l.132.085c.044 0 .088 0 .132-.043.133.043.265.043.397.043 1.366 0 2.556-.34 3.57-.98.176-.084.308-.212.44-.297 0 .042-.044.085-.044.127-.132.511-.352.937-.705 1.277a.518.518 0 00-.22.426v.468c0 .213 0 .34-.044.426-.044.128-.133.255-.265.255-.176.043-.44.17-.705.426-.264.255-.529.426-.705.426-.132-.043-.308-.043-.485-.17zM73.9 24.152c.22.17.573.34.97.553.352.17.66.298.88.468l-.44.213c-.264.128-.44.298-.617.426l-.617-.34c-.308-.17-.793-.043-1.454.34l-.309.213a1.433 1.433 0 01-.22-.766s0-.043-.044-.043c0-.085-.044-.128-.044-.213v-.085l-.044-.043c-.044-.212-.088-.34-.088-.383a6.364 6.364 0 00-.793-1.532c-.22-.298-.485-.724-.926-1.235-.044-.212-.088-.425-.132-.596-.088-.51-.176-.808-.176-.936 0-.638.176-1.447.484-2.426.045-.17.133-.34.177-.468.44.808.881 1.745 1.366 2.766.044.043.044.128.088.17.088.17.617 1.405 1.63 3.747a.72.72 0 01.309.17zm52.306 18.9c.265.17.617.383 1.102.68 1.102.681 1.674 1.022 1.718 1.022.309-.085.529-.255.661-.553.309.298.573.596.838.894l.352.212v.171c-.044.042-.088.085-.176.127-.397.17-.793.384-1.146.596-.308.043-.617.085-.925.043-.044 0-.044 0-.088.042a2.29 2.29 0 01-.926-.085 3.107 3.107 0 00-.352-.127c-.397-.213-.617-.511-.749-.937-.044-.213-.088-.425-.044-.638l-.749-.34c.132-.299.308-.64.44-.98 0-.085.044-.128.044-.128zm-62.31-13.026c0-.043.045-.085.089-.128v-.042l-.088-.085-.353-.341-.22-.17c-.044-.043-.044-.085-.088-.085-.044-.043-.088-.043-.132-.128l-.53-.383c-.264-.17-.748-.511-1.541-.98-.22-.127-.441-.255-.617-.425a5.695 5.695 0 00-.661-.425.955.955 0 01-.22-.17 8.736 8.736 0 01-1.279-1.278c-.088-.085-.352-.383-.793-.809-.308-.34-.573-.596-.705-.85-.088-.47-.088-1.108.044-1.831.088-.383.132-.724.176-.937.045-.34.089-.638.133-.894.088-.383.176-.893.22-1.575.044-.723.088-1.277.132-1.532a5.24 5.24 0 00.088-.936v-.98c0-.808.088-1.404.309-1.872.088-.17.22-.383.396-.596.177-.256.353-.469.441-.596.793.468 1.498.979 2.027 1.575l.044.042s0 .043.044.043c0 0 0 .042.044.042.397.426.705.894.926 1.405-.309.128-.617.383-.97.681-1.454 1.362-2.16 3.235-2.16 5.576 0 0 .133.384.397 1.065.353.596.794.936 1.322 1.021a.606.606 0 00.177.128l.044.042.22.213.176.17c.044 0 .044.043.089.128.132.128.352.383.617.724l1.057 1.277c.485.553.881 1.021 1.278 1.405l.132.127.132.128h.044l.089.085.088.043.176.17c.176.17.397.255.705.255h.397c.132 0 .22.043.308.043.044 0 .044 0 .088.042.353 0 .705.086 1.058.213.132.043.308.085.44.17.441.213.882.511 1.234.894l-.396.256c.176.298.264.468.264.468.044.128.088.298.088.426v.127c-.044 0-.088-.042-.132-.042a1.551 1.551 0 01-.573-.51c-.264-.341-.484-.597-.66-.682.131.17.308.468.616.851.132.17.265.34.309.511 0 .043.044.043.044.085.044.128.088.213.132.34a.686.686 0 01-.573-.127l-.044-.043a3.51 3.51 0 01-.353-.383 2.713 2.713 0 00-.264-.383l-.088-.085a.923.923 0 00-.485-.34c.044.042.044.085.088.127a.59.59 0 01.133.17l.088.128c.088.085.176.17.352.256 0 .042.044.042.044.042.177.17.265.34.353.511 0 .043.044.043.044.085v.426c-.132-.043-.265-.085-.397-.17a17.046 17.046 0 01-.66-.511c-.397-.383-.75-.639-1.058-.681.044.128.176.255.308.383.044.042.176.128.397.34.308.256.484.469.573.724v.085c-.044 0-.089 0-.177-.042-.22-.043-.396-.128-.617-.298a13.876 13.876 0 00-.705-.554c-.132-.127-.396-.34-.837-.638-.264-.213-.485-.383-.66-.554 0 .043-.045.043-.177.043zm12.163 20.006c.088.511.264.98.485 1.32-.485.426-.793.638-.926.638-.749 0-1.278-.468-1.674-1.404-.309-1.022-.485-1.618-.573-1.83-.264-.852-.529-1.448-.705-1.874v-.042c-.132-.383-.22-.809-.397-1.235-.176-.468-.352-.979-.573-1.49a30.342 30.342 0 00-1.145-2.596c-.22-.596-.309-1.234-.353-1.916a7.02 7.02 0 01.132-1.915 2.06 2.06 0 01.309-.639c.176-.255.308-.468.352-.638-.528-.383-1.19-.724-2.027-1.064-.176-.085-.484-.213-.837-.426a6.98 6.98 0 01.132-.894c.044-.17.044-.255.089-.255.088-.128.352-.213.88-.34h.133c.837-.171 1.322-.256 1.41-.256.176-.043.353-.085.485-.128.132-.042.264-.128.396-.17.22-.085.441-.213.617-.34l.044.042c.397.298.706.596 1.014.894.308.34.529.638.75.979.087.17.175.298.22.468.132.34.176.724.176 1.107 0 .468-.132.936-.353 1.447 0 .043-.044.085-.044.128a23.531 23.531 0 00-.088 1.915c0 .128 0 .767.044 1.958.22 1.32.397 2.299.485 2.895.044.128.044.255.088.383s.044.213.088.34c.22 1.065.529 2.044.881 2.852.089.256.177.554.265.937.044.213.088.553.132.979.088.043.088.085.088.17zm47.151.767c-.529.17-1.058.297-1.587.425.044-.17 0-.383-.088-.553v-.043c-.132-.213-.308-.34-.617-.425-.176-.043-.352-.043-.573-.043-.572 0-1.322.255-2.159.766-.308.17-.573.34-.793.511-.044-.51.22-.936.837-1.277.749-.383 1.454-.766 2.204-1.107h.088l1.41-.085h.22l.97.085v.256l.088 1.49zm-19.962 4.043l1.807-1.021c.572-.34.969-.724 1.233-1.235.177.128.353.256.573.426.088.085.221.17.397.213.176.085.441.127.749.213-.088.17-.22.34-.264.51 0 .043 0 .086-.044.128-.045.085-.045.128-.089.213 0 .042-.044.128-.044.17l-.044.766c-.44.128-.793.256-1.101.426-.353.17-.926.17-1.675 0-.308-.085-.661-.17-1.013-.34l-.485-.469zm28.951-9.833h-1.322c.088-.596.397-.936.97-1.064.264-.042.484 0 .749.128l-.397.936z" fill="#FFAA83"/><path d="M68.082 21.172c-.308.894-1.013 1.575-2.071 2-.881.384-1.895.554-2.996.512-.706 0-1.278-.085-1.763-.256-.661-.255-1.014-.638-1.102-1.192 0-.425.044-.723.044-.893 0-.341-.044-.639-.132-.894.176-1.363.397-2.47.573-3.363.44 0 .793-.128 1.146-.34.352-.256.484-.554.396-.98v-.042c-.044-.085-.044-.17-.088-.213l-.044-.043c-.044-.085-.088-.213-.132-.255a6.422 6.422 0 00-.926-1.405l-.044-.042c-.044 0-.044-.043-.044-.043l-.044-.043c-.528-.595-1.234-1.106-2.027-1.575-.088.128-.264.341-.44.596-.177.256-.309.426-.397.596 0-.255.044-.468.132-.68.088-.214.176-.426.353-.597.088-.085.132-.17.22-.255.132 0 .309.043.44.043.353.042.662.127.97.255.44.553.837.894 1.234 1.022.308.085.485.127.485.127.749.724 1.145 1.533 1.145 2.512 0 .255-.132.723-.352 1.404-.265.681-.397 1.15-.397 1.405 0 .17.177.426.573.681.353.256.661.383.926.383.617 0 1.674-.34 3.084-.979 1.102-.51 1.983-.808 2.732-.979-.088.085-.176.128-.22.213-.264.213-.44.383-.573.51-.22.171-.396.341-.529.554-.044.298-.044.681-.044 1.235-.088.425-.088.808-.088 1.021zM66.1 12.148c.044.043.088.043.176.043.22.085.397.127.53.127.175-.042.44-.17.704-.425.265-.213.485-.383.705-.426-.044.724.133 1.405.573 2.086-.308.127-.573.17-.837.17-1.542 0-2.644-.213-3.35-.596a3.785 3.785 0 001.5-.979zm59.005 42.567c-.177.042-.309.127-.529.17-.22.043-.485.085-.705.128-.088 0-.221.042-.309.042-.352.086-.705.17-1.057.213a56.417 56.417 0 01-7.139.98l-2.38.127-1.894-.17-.044-.043-1.543-.17-1.41-.17-.441-.043a2.833 2.833 0 00-.132-.34l-.044-.043v-.128c.132-.042.221-.042.353-.085h.22c.309 0 .661-.042 1.102-.042.573 0 1.278-.043 2.027-.043h.088c.264-.043.573-.043 1.013-.043.397 0 .838-.042 1.411-.042h.176a28.509 28.509 0 002.6-.213 37.5 37.5 0 002.335-.468l1.587-.383a71.492 71.492 0 002.203-.639c.22-.085.396-.128.617-.213a11.31 11.31 0 001.454-.596c.397-.17.793-.383 1.146-.553a14.49 14.49 0 001.234-.766c.396.425.44.936.22 1.575-.309.894-1.058 1.575-2.159 1.958zm-.397-4.427v-.213h.044c0 .085 0 .17-.044.213zM57.242 105.71c.088-.128.132-.256.22-.383 0 0 .044 0 .132.042.088.043.22.128.309.17.132.086.22.128.352.213a3.6 3.6 0 01.617.809c.088.128.133.298.176.468-.22-.468-.44-.809-.705-1.021-.308-.213-.66-.298-1.101-.298zm-13.176 11.024c-.22-.085-.44-.17-.66-.298a11.47 11.47 0 00-1.5-.808c-.396-.171-.704-.298-.925-.426-.088-.043-.132-.085-.22-.128-.529-.298-1.058-.596-1.586-.936-.485-.298-.926-.639-1.454-.937-.133-.085-.22-.127-.309-.212-.308-.213-.573-.341-.793-.469-.176-.127-.397-.255-.617-.383-.088-.042-.132-.085-.22-.127-.353-.171-.705-.341-1.058-.554-.396-.213-.837-.638-1.322-1.277a13.54 13.54 0 01-1.454-2.171l-1.19-2.043a20.185 20.185 0 01-.529-.979c-.176-.34-.396-.681-.572-1.022 0-.042-.045-.042-.045-.085l-.528-1.149c-.133-.298-.265-.596-.441-.851a2.008 2.008 0 00-.132-.298c-.088-.128-.133-.256-.177-.298a2.25 2.25 0 01.309-1.746l.044-.042c.264.426.573.851.881 1.319.044.043.044.086.088.128.133.17.265.383.397.596.044.085.176.256.308.511.177.255.353.638.617 1.064.177.298.397.681.617 1.107.22.426.485.851.794 1.362 1.322 2.341 2.115 3.576 2.335 3.788.265.213.75.554 1.498 1.065.485.298.97.553 1.366.766.53.298 1.058.553 1.499.809 1.41.766 2.38 1.234 2.908 1.404.352.171.705.256 1.058.298.572.085 1.19 0 1.806-.213 0 0 .044 0 .088-.042 1.014-.341 1.675-.979 1.94-1.831h.132c.264.086.484.213.705.341.22.128.44.383.705.766.264.341.44.979.528 1.873.088.894-.264 1.533-1.101 1.916-.793.383-1.63.51-2.424.425-.485.043-.925-.085-1.366-.213zm3.702-13.195l.617 1.702c.044.384.132.724.352 1.022-.176-.128-.352-.298-.573-.426a2.428 2.428 0 01-.352-.298c-.265-.212-.485-.383-.617-.51-.22-.171-.529-.383-.837-.596-.309-.213-.661-.426-.97-.639-.352-.255-.75-.723-1.146-1.405-.308-.51-.617-1.021-.881-1.617-.088-.213-.22-.468-.308-.681-.089-.17-.133-.34-.22-.51-.177-.427-.397-.852-.574-1.278l-.132-.383a6.44 6.44 0 00-.352-.809c-.177-.383-.309-.766-.485-1.15 0-.042-.044-.084-.044-.127a31.665 31.665 0 00-.397-1.106c-.132-.341-.22-.682-.352-1.065-.133-.298-.176-.51-.22-.638-.045-.639.132-1.235.572-1.788.353.681.705 1.405 1.102 2.214.044.127.132.297.22.553.132.298.309.724.529 1.234.132.34.308.724.485 1.107.176.34.308.724.484 1.15.045.084.089.127.089.212.176.383.308.724.44 1.064.22.469.397.852.53 1.192.484 1.022.792 1.618.924 1.745.22.213.661.639 1.322 1.192.265.256.53.469.794.639z" fill="#A7C4E4"/><path d="M112.369 2.826c-.441 0-1.102.212-1.939.638L73.855 24.152c-.088-.043-.133-.128-.22-.17-1.014-2.342-1.543-3.576-1.631-3.747-.044-.085-.044-.127-.088-.17L106.199.74c.749-.468 1.454-.468 2.204 0l3.966 2.086zM167.98 80.85l.837-.553-.837.553zM28.246 127.248c-1.145.681-2.291 1.32-3.48 2.001-1.72.979-3.482 1.958-5.2 2.937-1.763.979-3.57 1.958-5.377 2.979-.97.554-1.983 1.065-2.996 1.575-.75.341-1.454.341-2.115-.085-.617-.34-1.234-.723-1.895-1.064a18.575 18.575 0 01-1.543-.979 1.359 1.359 0 01-.308-.213c-.044-.042-.132-.085-.176-.128-.53-.383-.794-.851-.838-1.447a30.17 30.17 0 01-.22-3.448v-19.325c-.044-1.32-.044-2.597-.044-3.916V95.876c-.044-1.064-.044-2.17-.044-3.277V82.085c-.044-1.277-.044-2.554-.044-3.746V66.122c0-1.447 0-2.894-.044-4.341v-2.257c-.044-.85.396-1.447 1.322-1.787l53.1-29.967v.042c.044.256.132.554.22.809.088.298.22.596.352.894.22.468.485.894.794 1.277 0 .042.044.042.044.042v.043s.044 0 .044.043v.042l.044.043c.088.128.176.213.22.298l.44.425-50.367 28.52c-.66.553-1.057 1.235-1.101 2.043v70.448l31.639-17.58c.088.043.176.085.22.128.22.127.53.255.926.425.396.171.925.426 1.498.809.22.128.44.213.66.298a11.547 11.547 0 000 1.745l-11.412 6.3-.265.171c-.484.255-1.366.766-2.688 1.532l-1.366.681zm40.409-105.31l1.19-.681c.088.085.176.213.22.298l.132.128v.042c.397.511.705.894.926 1.235a6.35 6.35 0 01.793 1.532c-.22-.043-.44-.128-.705-.213a12.353 12.353 0 01-.661-.298c-.573-.213-1.058-.34-1.454-.255-.089-.596-.177-1.064-.265-1.32a.77.77 0 00-.088-.298c-.088-.127-.088-.17-.088-.17zm-4.23 5.96a.608.608 0 01-.177-.128.606.606 0 01.177.127zm41.378 10.684v13.663l-.221.128c-.044-.085-.132-.127-.176-.213a4.604 4.604 0 00-.661-.638c-.132-.17-.308-.298-.441-.468a8.625 8.625 0 00-.705-.639c-.969-.894-1.63-1.447-1.983-1.66a5.675 5.675 0 00-.705-.298c-.176 0-.308.085-.396.255-.132.213-.485 1.107-1.146 2.64-.176.298-.397.638-.661 1.021l-.881-.468c-.177-.17-.573-.468-1.234-.979-.617-.468-1.058-.766-1.366-.937-.75-.34-1.719.98-2.953 4.002-.176.468-.352.894-.528 1.277v-9.152c.044-1.022.396-1.703 1.057-2.086l11.854-6.427c.705-.298 1.058.042 1.146.979zm-2.204 4.724c-.308-.085-.617-.042-1.013.17a3.068 3.068 0 00-1.146 1.193c-.352.51-.529 1.021-.529 1.532 0 .51.177.851.529 1.064.309.17.705.128 1.146-.127.396-.213.705-.554 1.013-.937a.74.74 0 01.177-.213c.308-.51.44-1.064.44-1.575 0-.51-.176-.851-.44-1.021-.089-.043-.133-.086-.177-.086zm-43.934 66.49c0-.171-.044-.298-.044-.426-.132-.979-.352-1.745-.617-2.341-.044-.17-.132-.341-.176-.468a3.585 3.585 0 00-.617-.809.974.974 0 00-.352-.213l55.743-30.946c0 1.192-.044 2.17-.132 2.98a4.308 4.308 0 01-.661 2c-.176.298-.396.511-.705.724-1.498 1.064-3.085 2.086-4.759 2.98-.044.042-.088.042-.132.085a159.126 159.126 0 00-6.434 3.49l-5.684 3.193c-2.027 1.106-4.01 2.256-6.082 3.405-1.894 1.064-3.79 2.171-5.728 3.235-.264.128-.529.298-.75.426-.484.298-.925.553-1.365.766-1.587.894-3.129 1.788-4.671 2.639l-16.834 9.28zm-23.663 2.341l-13.176 7.321V84.171l47.988-26.732v35.33l-15.908 8.854c-.484-1.022-1.454-2-2.952-2.852-1.719-.98-3.04-.809-4.054.553 0-.042-.044-.085-.044-.085a5.868 5.868 0 00-.353-.766l8.152-4.555v-1.447l-8.813 4.895c-.176-.298-.308-.596-.484-.851-.045-.128-.133-.255-.177-.383l9.386-5.236v-1.532l-9.959 5.576c-.176-.34-.396-.724-.572-1.064L55.566 88v-1.53l-11.06 6.215c-.309-.596-.617-1.192-.926-1.745-.132-.043-.22-.043-.352-.085-.22-.724-.353-1.363-.353-1.916 0-.51-.352-1.107-1.101-1.788v-.128c0-.212-.044-.425-.088-.595l14.057-7.833v-1.447l-15.16 8.386c-.44-.043-.925.085-1.497.383l-8.109 4.512c-.749.425-1.366 1.021-1.894 1.83-.353.511-.573 1.022-.661 1.533-.089.042-.133.085-.22.127-.31.639-.574 1.32-.794 2.043-.088.256-.132.554-.176.852-.044.553.132 1.021.44 1.447.265.255.441.553.617.851.088.17.177.341.309.554a2.25 2.25 0 00-.309 1.745c.044.085.088.17.177.298l-3.482 1.958v1.447l4.01-2.256.53 1.15-4.584 2.554v1.447l5.156-2.895c.176.341.353.639.529.979l1.19 2.044c.484.808.97 1.532 1.454 2.17.485.639.925 1.065 1.322 1.277.352.213.705.384 1.057.554.22-.085.265-.043.353 0zm32.83-47.973c0-1.107-.441-1.404-1.367-.894l-6.83 3.874c-.881.468-1.278 1.234-1.278 2.298v8.003c0 1.064.44 1.32 1.278.809l6.83-3.789c.925-.51 1.366-1.277 1.366-2.298v-8.003zm0 23.284v-8.002c0-1.107-.441-1.362-1.367-.852l-6.83 3.831c-.881.469-1.278 1.235-1.278 2.299v8.002c0 1.065.44 1.32 1.278.852l6.83-3.789c.925-.51 1.366-1.277 1.366-2.34zm20.93 36.267l-18.155-10.94 17.539-9.705 10.972-6.087 8.593 5.151 1.719 1.021 7.887 4.725-28.554 15.835zm-6.037-7.832l.618-.341-7.227-4.257-.573.341 7.182 4.257zm-2.776-5.279l5.905 3.533.617-.34-5.905-3.533-.617.34zm-1.63.894l5.905 3.576.617-.341-5.905-3.533-.617.298zm3.129-1.745l5.905 3.533.616-.34-5.948-3.576-.573.383zm16.7-9.237l5.906 3.533.616-.34-5.904-3.533-.617.34zm-4.89 2.682l5.948 3.575.617-.34-5.949-3.533-.617.298zm1.762-.937l5.905 3.533.661-.34-5.95-3.533-.616.34zm1.542 5.832l-5.772-3.49-.617.34 5.816 3.491.573-.341zm1.675-.851l-5.861-3.533-.617.34 5.86 3.576.618-.383zm-1.63-5.875l5.904 3.533.617-.34-5.905-3.533-.617.34zm-10.356 5.747l5.905 3.533.617-.341-5.905-3.533-.617.341zm1.542-.851l5.905 3.533.617-.341-5.905-3.533-.617.341zm-3.129 1.702l5.861 3.533.661-.298-5.905-3.575-.617.34zm6.698 5.108l5.994 3.618.616-.34-5.993-3.576-.617.298zm-5.508 3.065l5.993 3.618.617-.34-5.993-3.618-.617.34zm-1.674.979l5.993 3.576.617-.341-5.993-3.575-.617.34zm4.847-2.682l6.037 3.576.573-.34-5.993-3.576-.617.34zm-1.498.809l5.993 3.618.617-.34-5.993-3.618-.617.34zm10.267-5.661l5.993 3.618.617-.341-6.037-3.618-.573.341zm-4.891 2.639l5.993 3.618.617-.34-5.993-3.619-.617.341zm1.718-.937l6.037 3.576.573-.34-5.993-3.576-.617.34zm1.63-.851l5.994 3.618.617-.383-5.993-3.575-.617.34zm3.085-1.703l5.949 3.619.661-.341-6.037-3.575-.573.297zm36.047-21.496l12.867 5.917.22-.128-.22.128-12.867-5.917zm-32.83 19.666l6.037 3.576.573-.341-5.993-3.618-.617.383zm1.631-.894l5.993 3.618.617-.34-5.993-3.618-.617.34zm1.498-.851l6.037 3.575.617-.34-6.037-3.618-.617.383zm1.763 5.959l-5.993-3.575-.617.34 5.993 3.618.617-.383zm-52.792-38.48v-1.532L25.074 88.3v1.447l30.581-17.112zm0 2.852V74.04L25.074 91.194v1.447l30.581-17.154zm-14.41 20.517c.177.383.31.766.486 1.15l-8.24 4.639c-.089-.128-.177-.213-.265-.34-.132-.213-.309-.469-.44-.681l8.46-4.768zm-.44-1.234l-8.769 4.937c-.22-.298-.397-.553-.617-.851-.264-.042-.485-.042-.705-.042-.044-.554-.044-1.107-.088-1.66a2.66 2.66 0 00-.132-.852c-.044-.128-.133-.255-.177-.426.22-.085.441-.17.661-.298l8.153-4.512c.264-.127.484-.298.749-.51.176.085.352.127.529.212.176.043.352.17.572.383-.088.043-.132.086-.22.128-.44.553-.617 1.15-.573 1.788.044.128.132.34.22.639.177.34.309.68.397 1.064zm-6.654 8.087l8.02-4.512c.176.426.353.852.573 1.277l-7.844 4.342a9.926 9.926 0 00-.749-1.107zm7.403 6.172a3.112 3.112 0 01-.352-.127 10.596 10.596 0 01-2.512-.979c-.573-.298-1.19-.596-1.763-.894v-.043c-.088-.127-.132-.255-.22-.34a4.781 4.781 0 00-.44-.809l-.53-.766 7.668-4.257c.264.553.573 1.107.881 1.618.397.723.794 1.191 1.146 1.404.309.213.661.426.97.639.308.213.617.383.837.596.176.127.352.298.617.511l-6.302 3.447zm14.013 41.588l-.352 1.32c.132.51.308 1.021.573 1.49a.925.925 0 00.22.34c.176.341.397.639.661.979l-2.115-.936-.088-.043-.397-3.022 1.322.042.176-.17zm-7.711 9.024c-.044 2.043 1.19 3.278 3.701 3.746.309.085.573.128.793.17a39.264 39.264 0 00-5.464-.127c-1.806.085-3.084-.426-3.878-1.618-.132-.17.089-.426.617-.766.617-.383 1.983-.851 4.23-1.405zm83.99 4.002l-3.526 2-.088-.085 3.614-1.915zm-28.731-24.263c-.133.042-.265 0-.397 0-1.895-.767-3.702-.682-5.332.34a68.363 68.363 0 00-2.908 1.83c-.177-.723 0-1.362.573-1.915 1.41-1.49 3.172-2.469 5.287-2.852 1.719-.341 2.821.17 3.305 1.49l-.528 1.107z" fill="#fff"/><path d="M69.228 124.098l-2.203-1.234 3.304-1.83v1.915l20.007 10.982 26.748-14.898v-.426l-.044-1.873v-.681l4.891 2.724-26.66 14.856c-1.587.426-3.04 1.022-4.363 1.831-.22.127-.44.298-.66.425l-21.02-11.791z" fill="#65B4F9"/><path d="M71.607 112.776l18.2 10.939-.177 1.958-3.216-1.872-14.895-8.854.044-.767.044-1.404zm-1.233 5.746v-1.83l19.83 11.067h.043v1.873h-.044l-19.83-11.025v-.085zm29.964-9.79l.573-.341 6.037 3.576-.661.341-5.949-3.576zm-3.084 1.703l.617-.341 5.993 3.576-.617.383-5.993-3.618zm-1.63.851l.616-.341 5.993 3.576-.573.341-6.037-3.576zm-1.72.936l.618-.34 5.993 3.618-.617.341-5.993-3.619zm4.892-2.639l.573-.34 6.037 3.618-.617.34-5.993-3.618zm-10.267 5.662l.617-.341 5.993 3.618-.617.341-5.993-3.618zm1.498-.809l.617-.341 5.993 3.576-.573.34-6.037-3.575zm-4.847 2.682l.617-.341 5.993 3.576-.617.34-5.993-3.575zm1.674-.979l.661-.341 5.993 3.618-.617.341-6.037-3.618zm5.508-3.065l.617-.341 5.993 3.618-.616.341-5.993-3.618zm-6.697-5.108l.616-.341 5.905 3.576-.66.298-5.861-3.533zm3.128-1.703l.617-.34 5.905 3.533-.617.34-5.905-3.533zm-1.542.851l.617-.34 5.905 3.533-.617.34-5.905-3.533zm10.355-5.746l.617-.341 5.905 3.533-.617.341-5.905-3.533zm1.63 5.874l-.66.383-5.861-3.575.617-.341 5.905 3.533zm-1.674.851l-.617.341-5.816-3.491.617-.34 5.816 3.49zm-1.542-5.831l.617-.341 5.949 3.533-.661.341-5.905-3.533zm-1.763.936l.617-.298 5.949 3.533-.617.341-5.949-3.576zm4.892-2.681l.617-.341 5.904 3.533-.616.341-5.905-3.533zm-16.701 9.237l.573-.341 5.948 3.576-.616.34-5.905-3.575zm-3.129 1.745l.573-.341 5.905 3.533-.617.341-5.861-3.533zm1.63-.894l.573-.341 5.905 3.533-.617.341-5.86-3.533zm2.777 5.278l-7.183-4.257.573-.34 7.182 4.299-.572.298zm24.721-4.767l-.617.34-5.993-3.618.617-.341 5.993 3.619zm-1.763-5.96l.617-.34 6.037 3.618-.617.34-6.037-3.618zm-1.498.852l.617-.341 5.993 3.618-.617.341-5.993-3.618zm-1.631.894l.617-.341 5.993 3.618-.573.341-6.037-3.618zm-33.226 14.132v-.511l19.874 11.067h.088v1.831l-.132.042-19.874-11.067v-1.362h.044zm57.991 44.61l-.088.042v-.128l.088.086z" fill="#A9CBF3"/><path d="M116.687 110.69l-26.968 14.898-.089.043.177-1.958 28.554-15.792-.044.298-.132 1.66-1.498.851zm-26.44 15.239l26.837-14.856v1.873l-26.793 14.856-.044-1.873zm26.792-9.237L90.335 131.59l-.044-1.915 26.793-14.856v1.873h-.045zm.045 1.915v.426l-26.749 14.898v-.51l26.749-14.814z" fill="#D8EAFF"/><path d="M68.831 87.448c0 1.065-.44 1.83-1.366 2.342l-6.83 3.788c-.881.51-1.278.213-1.278-.851v-8.003c0-1.021.44-1.788 1.278-2.298l6.83-3.831c.926-.511 1.366-.213 1.366.851v8.002z" fill="#566CD2"/><path d="M90.291 135.847c.22-.128.441-.298.661-.426 1.322-.766 2.733-1.405 4.363-1.83 1.586-.426 3.305-.639 5.156-.724 3.745-.128 6.962.511 9.65 1.873 1.19.596 2.115 1.277 2.82 2.043.882.937 1.322 2.001 1.366 3.193 0 .383 0 .723-.088 1.064-.308 1.66-1.542 3.107-3.701 4.384-2.6 1.575-5.773 2.427-9.519 2.554-3.745.128-6.962-.51-9.65-1.915-2.38-1.192-3.746-2.682-4.098-4.427a4.532 4.532 0 01-.088-.766c-.088-1.873.97-3.576 3.128-5.023zm-60.106 11.876c-.044.426-.22.851-.44 1.277-.53.979-1.455 1.83-2.82 2.597-.221.127-.441.255-.662.34-1.983.979-4.362 1.49-7.094 1.49-2.556 0-4.76-.383-6.61-1.192-.397-.17-.75-.383-1.146-.553-1.895-1.065-2.952-2.342-3.217-3.789v-.042c0-.171-.044-.383-.044-.554 0-.213 0-.383.044-.553.044-.298.132-.596.265-.894.396-.894 1.145-1.745 2.291-2.511.176-.128.397-.256.617-.384 2.16-1.191 4.803-1.83 7.844-1.83 2.996 0 5.596.596 7.8 1.788 1.498.851 2.467 1.788 2.952 2.894.044.043.044.128.044.171.088.298.176.553.22.851a.373.373 0 01.044.213v.298c-.044.128-.044.255-.088.383zm50.456-123.23l-1.675 2.98c-.22.382-.66.765-1.322 1.106l-1.41.809-4.582 2.554-.045.042c-.22.128-.396.17-.484.213-.22.085-.265 0-.133-.255l2.997-5.406h.044l.132-.256c.132-.17.309-.298.529-.468.176-.128.397-.298.617-.426l.44-.212 5.553-3.108c.705-.383.925-.383.705 0l-1.366 2.426zm-11.81 39.672v8.002c0 1.064-.44 1.83-1.366 2.299l-6.83 3.788c-.881.51-1.278.213-1.278-.809v-8.002c0-1.022.44-1.788 1.278-2.299l6.83-3.873c.926-.469 1.366-.213 1.366.894zM33.226 59.78c0 .766-.265 1.575-.705 2.384-.485.851-1.102 1.447-1.807 1.83-.705.383-1.278.426-1.763.17-.484-.297-.749-.808-.749-1.574 0-.767.265-1.575.75-2.384.484-.809 1.057-1.447 1.762-1.83.705-.384 1.278-.426 1.807-.213.44.298.705.851.705 1.617zM30.14 77.743c0 .298-.132.596-.352.98a1.741 1.741 0 01-.617.638c-.265.128-.485.17-.661.085-.22-.085-.353-.255-.353-.553 0-.34.132-.639.353-.98a2 2 0 01.66-.68c.265-.128.441-.17.618-.086.22.128.352.298.352.596zm11.634 9.365c-.044.681-.309 1.362-.794 2.128-.352.511-.705.98-1.145 1.32-.22.213-.485.34-.75.51L30.98 95.58c-.22.128-.485.213-.662.298-.44.127-.837.127-1.19 0-.528-.213-.793-.681-.793-1.405 0-.255.045-.51.089-.766a5.769 5.769 0 01.66-1.533c.53-.808 1.146-1.404 1.896-1.83l8.108-4.512c.572-.298 1.057-.426 1.498-.383.132 0 .264.043.396.085.353.128.573.426.706.809.044.17.088.383.088.596v.17zm-11.546 17.963l-5.155 2.895v-1.448l4.582-2.554c0 .043.045.043.045.086.132.34.308.681.528 1.021zm16.04-9.024c-.176-.383-.396-.766-.572-1.15l9.959-5.576v1.448l-9.387 5.278zm-12.779 5.747l8.285-4.64c.132.255.22.553.352.809l.132.383-8.02 4.512c-.308-.383-.528-.724-.749-1.064zm-9.122 42.779l-11.5 1.958 8.416 4.47 3.085-6.428zm66.629-3.49c.176 1.362 1.19 2.468 2.952 3.405 1.939 1.021 4.23 1.49 6.962 1.405 2.688-.086 4.98-.724 6.831-1.831 1.63-.979 2.511-2.128 2.688-3.363 0-.17.044-.34 0-.553-.044-1.49-1.058-2.767-2.997-3.746-1.939-.979-4.23-1.447-6.962-1.362-2.688.085-4.98.724-6.83 1.83-1.895 1.15-2.777 2.469-2.733 3.959.044.043.044.17.088.256z" fill="#FF65A7"/><path d="M55.656 75.487L25.074 92.642v-1.448L55.656 74.04v1.447zm0-2.852l-30.582 17.07v-1.448L55.656 71.06v1.575zM28.51 101.666c.044.085.088.17.132.298.132.298.264.553.44.851l-4.01 2.256v-1.447l3.438-1.958zm15.996-8.982l11.149-6.257v1.532l-10.532 5.874c-.044-.085-.044-.127-.088-.17-.177-.34-.353-.68-.53-.979zm3.084 5.747c0-.043-.044-.085-.044-.085-.176-.341-.396-.681-.572-1.065l8.813-4.895v1.448L47.59 98.43zm-5.904-12.047a1.114 1.114 0 00-.706-.808c-.132-.043-.264-.086-.396-.086l15.159-8.385v1.447l-14.057 7.832zm-.882 8.386c.132.383.265.766.397 1.107 0 .042.044.085.044.127l-8.505 4.725c-.264-.34-.485-.723-.705-1.064l8.77-4.895zm-5.86 9.194l7.843-4.341c.088.17.176.34.22.51.089.256.22.469.309.681l-7.667 4.257c-.22-.34-.485-.681-.706-1.064v-.043zm75.485 36.693c-.397-1.107-1.322-2.043-2.865-2.81-1.983-1.021-4.318-1.447-7.05-1.362-2.732.085-5.068.724-6.919 1.831-1.366.808-2.247 1.745-2.6 2.766 0-.127-.044-.212-.044-.34-.044-1.49.838-2.809 2.733-3.959 1.85-1.106 4.142-1.745 6.83-1.83 2.688-.085 5.023.383 6.962 1.362 1.939 1.022 2.953 2.256 2.997 3.746 0 .255-.044.426-.044.596z" fill="#BFD8DF"/><path d="M135.063 41.562c-.705.596-1.763 1.106-3.085 1.49-1.058.297-2.071.425-2.996.383-.133-.128-.265-.213-.397-.341l-.044-.043c0-.042-.044-.042-.088-.042 0-.043 0-.043-.044-.085-.044-.043-.133-.085-.221-.17a12.469 12.469 0 00-1.983-1.363c-.088-.17-.176-.298-.264-.468l-.353-.68v-.044c.133.086.309.128.529.213 1.146.511 2.027.852 2.688 1.065 1.058.298 1.983.383 2.732.17 1.366-.383 2.248-.98 2.732-1.745.089-.17.177-.298.221-.426.088.128.132.298.176.425.088.256.176.469.264.724.045.34.133.639.133.937zm-5.597 2.34c.309-.042.617-.084 1.014-.127 1.057-.128 1.63-.213 1.762-.255a8.76 8.76 0 001.411-.596c.749-.383 1.145-.596 1.233-.639.044 0 .088-.042.133-.042-.045.085-.045.127-.045.212l-.308.639v.085l-.969 1.15-1.411.638.397-.98a1.131 1.131 0 00-.749-.127c-.573.128-.881.511-.97 1.064l-.396.043c-.265-.298-.529-.596-.837-.894-.044-.042-.044-.085-.088-.128-.089.086-.133 0-.177-.042zM62.486 4.657c-.044 0-.044 0-.044.043-.397.51-.617.936-.75 1.32-.044.255-.088.595-.044 1.106a.474.474 0 01-.132.34v-.084l-.132-.34s0-.044-.044-.044v-.042c-.308.17-.617.383-.881.681-.133.043-.265.043-.485.043l-.176-.043h-.044v-.383c0-1.745.617-3.107 1.85-4.087.485-.383.882-.595 1.278-.595.265 0 .441.085.53.298l-.045.042c-.22.085-.44.255-.617.468l-.044.043c-.22.298-.352.638-.308 1.021-.044.086 0 .17.088.213zm2.556 5.023c-.044 0-.088.043-.133.043l-.132-.085c-.132-.043-.22-.128-.352-.256a1.398 1.398 0 01-.265-.34l-.088-.128c-.132-.17-.264-.298-.396-.34-.133-.086-.265-.086-.441-.086-.088-.17-.132-.34-.22-.553-.353-1.447-.485-2.17-.485-2.214 0-.34.088-.723.308-1.149.133-.042.22-.085.265-.213l.264-.383c.088-.085.22-.17.265-.255.044-.043.132-.085.22-.17.088-.043.132-.086.22-.128 0 .085.044.128.044.213 0 .042-.088.255-.264.68-.132.469-.22.724-.22.81 0 .51.176 1.021.484 1.49.177.127.397.255.661.425.838.553 1.498.809 2.027.809.793 0 1.675-.298 2.644-.852 0 .213-.044.384-.132.596l-.75.639c-.352.213-.925.383-1.674.468l-.044.085c-.176.256-.484.426-.837.554-.22.255-.529.298-.97.34zm-9.783 94.073v.127l-.264 1.235a6.557 6.557 0 01-2.248.383c-1.454 0-2.996-.852-4.627-2.597-.22-.213-.44-.425-.617-.638v-.043c0-.042 0-.128-.044-.255 0-.298-.044-.596-.044-.894.176.298.397.596.661.979 1.322 1.49 2.776 2.256 4.45 2.256 1.058 0 1.94-.213 2.6-.639.089-.042.177-.127.265-.17-.088.043-.132.128-.132.256zm-7.535-.554c.308.341.617.639.88.937.926.894 1.808 1.489 2.557 1.702.22.085.44.128.66.128 1.147.043 1.94 0 2.38-.043.177-.042.353-.085.485-.127a9.925 9.925 0 01-.573.894c-.132.127-.308.212-.44.298h-.044c-.133.042-.265.127-.353.127 0 0-.044 0-.088.043-.088.042-.22.042-.353.128l-.044.042h-.088c-1.19.256-2.335-.042-3.349-.936 0-.128-.044-.298-.044-.426-.044-.511-.264-.979-.705-1.49l.176.894-.264-.213-.617-1.702-.044-.128c-.132.042-.132-.043-.132-.128z" fill="#452312"/><path d="M64.072 3.55c.044-.043.088-.043.132-.043.044-.043.089-.043.133-.043.705-.298 1.498-.255 2.291.086a4.17 4.17 0 011.807 1.447c.352.383.572.723.749 1.021.22.383.308.81.264 1.192v.043l-.044.042c-.97.554-1.85.852-2.644.852-.529 0-1.19-.256-2.027-.809-.264-.17-.485-.298-.66-.426-.31-.51-.486-1.021-.486-1.49 0-.085.088-.34.22-.808.177-.426.265-.681.265-.681.044-.256 0-.298 0-.383zm70.418 35.926c-.044.127-.132.255-.221.425-.44.767-1.366 1.32-2.732 1.746-.749.212-1.63.17-2.732-.17-.661-.17-1.542-.554-2.688-1.065-.176-.085-.352-.127-.529-.213a5.348 5.348 0 011.807-1.872c.793-.469 1.675-.81 2.556-.937h.661c.881 0 1.719.213 2.512.681a3.828 3.828 0 011.366 1.405zm-5.509 3.959c.97.042 1.983-.043 2.997-.384 1.322-.383 2.335-.894 3.085-1.49 0 .256 0 .511-.089.724-.044 0-.088.043-.132.043-.044.042-.44.255-1.234.638-.528.256-1.013.468-1.41.596-.132.043-.749.128-1.762.256-.397.042-.705.085-1.014.127-.132-.127-.22-.255-.352-.383-.044-.042-.044-.085-.089-.127zM63.235 8.572h-.176v.256c-.309 0-.617-.128-.882-.34-.176-.171-.352-.426-.529-.724a2.38 2.38 0 00-.176-.298c.044-.085.088-.213.132-.34-.044-.512 0-.852.044-1.108.133-.383.353-.851.75-1.32 0-.042.044-.042.044-.042h.044c.044.043.088.043.176.043h.132c-.22.425-.308.809-.308 1.15 0 .042.176.765.485 2.213.132.127.176.298.264.51zm.132-5.746c-.088-.213-.264-.298-.529-.298-.396 0-.793.213-1.278.596-1.233.979-1.85 2.341-1.85 4.086v.383h-.265c0-.212-.044-.51-.176-.808a7.828 7.828 0 01-.264-.894c-.089-.298-.133-.596-.044-.81.044-.297.132-.552.352-.765.044-.043.088-.256.22-.596.088-.256.177-.426.265-.554a2.685 2.685 0 011.454-.808c.396-.085.97-.128 1.674-.128.133-.043.265 0 .397.17.044.085.132.17.22.34H63.5c-.044.043-.088.086-.132.086zm-8.46 98.755c.22.51.352 1.021.352 1.532v.298c-.088.042-.176.128-.264.17-.661.426-1.499.639-2.6.639-1.675 0-3.13-.767-4.451-2.256-.22-.341-.44-.681-.661-.979v-.298c0-.341.088-.639.22-.852.133-.212.22-.383.353-.553.97-1.362 2.335-1.575 4.054-.553 1.542.894 2.512 1.83 2.996 2.852zm.044 3.533c-.089.255-.22.468-.353.723-.132.043-.264.043-.485.128-.396.085-1.19.128-2.38.042-.22 0-.44-.042-.66-.127-.75-.213-1.63-.809-2.556-1.703-.265-.298-.573-.596-.882-.936-.088-.341-.176-.639-.22-.979.176.212.397.425.617.638 1.63 1.745 3.129 2.597 4.627 2.597.837 0 1.586-.171 2.291-.383z" fill="#713D22"/><path d="M65.747 11.978l.352.17c-.44.468-.925.766-1.542.98-.661.17-1.322.212-1.983.17a4.82 4.82 0 01-.837-.17s-.177 0-.485-.129c-.397-.127-.793-.468-1.234-1.021-.176-.34-.352-.681-.44-1.064-.045-.085-.045-.213-.045-.298l.837-.724-.132.256c-.176.383-.132.808.133 1.277.132.255.352.425.572.595.22.17.485.298.75.383.617.17 1.19.256 1.762.256.132 0 .265 0 .353-.043a4.03 4.03 0 001.674-.468c.088-.043.177-.085.265-.17zm-2.688-7.492a1.16 1.16 0 01-.265.213h-.132c-.088 0-.132 0-.176-.043h-.044c-.089-.042-.133-.127-.133-.255-.044-.34.089-.681.309-1.022l.044-.042c.176-.213.397-.383.617-.468.044 0 .044 0 .044-.043h.044c.044-.043.088-.043.132-.043.176 0 .309.086.485.256.088.085.22.213.352.426-.044 0-.088.042-.132.042-.044 0-.088 0-.132.043-.088.042-.132.085-.22.127a.778.778 0 00-.22.17l-.265.256-.308.383zm5.948 19.155c-1.366.256-2.07 1.192-2.07 2.81 0 .085.22.51.704 1.234.044.043.044.085.089.128.132.17.264.34.352.51l-.793.469c-.353-.128-.705-.213-1.058-.213-.044 0-.044 0-.088-.043-.088 0-.176-.042-.308-.042h-.397c-.308 0-.573-.085-.705-.256l-.176-.17-.088-.043-.088-.085c-.044-.042-.089-.085-.177-.127l-.132-.128c-.397-.383-.793-.851-1.278-1.405l-1.057-1.277a7.738 7.738 0 00-.617-.723c.573.17 1.233.255 1.983.255.352 0 .749-.043 1.101-.085 1.19-.17 2.292-.596 3.261-1.32.529-.383.926-.723 1.146-1.064a.768.768 0 01.088.298c.176.213.264.681.308 1.277zm-5.287 7.024v-.043c-.133-.085-.22-.17-.397-.255a.606.606 0 01-.176-.128c-1.278-.894-2.204-1.873-2.688-2.895.176.128.396.256.617.426.749.468 1.277.809 1.542.98l.529.382.132.128c.044 0 .044.042.088.085l.22.17.353.34c0 .043.044.043.088.086v.043c-.044.042-.044.042-.088.127a.78.78 0 00-.088.34c-.044.086-.044.128-.044.214v.042c-.044-.085-.044-.085-.088-.042zm-5.332-2.938c.176.596.352 1.192.572 1.703-.132-.298-.264-.596-.352-.894a4.373 4.373 0 00-.22-.809z" fill="#BC4074"/><path d="M44.33 128.44c.353-1.149.617-2.213.838-3.15.088-.596.132-1.191.132-1.787 0-.554-.088-1.065-.176-1.575 0-.213-.044-.469-.177-.681-.088-.128-.132-.256-.22-.384l-.132-.127c-.044-.128-.088-.213-.132-.341a4.833 4.833 0 01-.22-.851c-.089-.383-.133-.724-.177-1.064a11.564 11.564 0 010-1.746c.44.171.881.256 1.322.256a4.463 4.463 0 002.424-.426c.793-.383 1.19-1.021 1.101-1.915-.088-.894-.264-1.533-.528-1.873a3.195 3.195 0 00-.705-.766 3.525 3.525 0 00-.706-.341h-.132c-.22-.085-.44-.213-.66-.298h.396c.176.043.352.085.485.128.572.213 1.101.681 1.586 1.404.44.682.75 1.533.881 2.512.044.34.044.724.044 1.149 0 .043-.044.596-.044 1.618 0 .34-.044.766-.044 1.192v.17l-1.013 10.216c-1.366.042-2.512-.256-3.481-.851a6.257 6.257 0 01-.661-.469z" fill="#343354"/><path d="M59.005 107.029c.264.596.44 1.362.616 2.341.044.128.044.298.044.426.089.851-.044 1.83-.264 2.894a22.95 22.95 0 01-1.19 3.278c-.132.213-.22.426-.352.596-.044.085-.088.17-.177.255l-.044.086c-.044.127-.176.553-.396 1.234a3.97 3.97 0 00-.176 1.149c0 .298.044.639.132.937.132.596.22 1.192.352 1.788.177.936.309 1.915.441 2.852a7.976 7.976 0 01-1.454 1.745 10.9 10.9 0 01-2.115 1.49c-.838.468-1.763.808-2.82 1.106-.573.171-1.19.298-1.851.426l-1.19.128 1.013-10.216v-.171c0-.468.044-.851.044-1.191.044-1.022.044-1.575.044-1.618 0-.383-.044-.766-.044-1.149a6.352 6.352 0 00-.88-2.512c-.442-.723-.97-1.192-1.587-1.404a7.943 7.943 0 01-.485-.128h-.397s-.044-.043-.088-.043a5.3 5.3 0 01.485-.51c.309-.298.661-.596 1.058-.937a84.716 84.716 0 011.674-1.192l-.22.766c.308.043.573.086.837.086h.617c.793-.043 1.454-.213 2.071-.554.705-.34 1.322-.894 1.85-1.575 0-.042 0-.042.045-.042 0-.043 0-.043.044-.085l-.22-.256-.22-.255c.132-.085.22-.171.352-.213.308-.17.617-.341.925-.468.75-.298 1.366-.426 1.895-.426.44 0 .793.128 1.102.341.088.255.352.595.529 1.021z" fill="#52517B"/><path d="M110.694 14.574l1.763-1.021 2.688 8.258 8.857 27.328-.881-.086-.97-.085h-.22l-.97-2.98-1.145-3.405-1.19.681-5.068 2.852-4.318 2.384.397 1.192h.044l1.013 3.107a35.02 35.02 0 01-2.115.17l-1.102-3.362-.793-2.384V40.71l1.719 5.449.22.638 10.62-5.959-1.983-6.002h-.044l-.529-1.532-1.146.638h-.044l-1.983 1.107-4.671 2.596-2.159 1.192v-1.575c0-.212 0-.383-.044-.51l9.518-5.321-2.467-7.62-1.234.639-3.658 2.043-4.054 2.256-1.718.937.396 1.234h.044l1.278 4.001.132.383-.44-.255-1.851-1.064c-.088-.043-.176-.043-.264-.043l-.573-1.83-.485-1.49-.309-.936-1.85-5.662h.044l-.793-2.426-.044-.043 1.762-1.021 2.203 6.768.177.638h.044l10.576-5.917-1.058-3.235-1.322-4.214zm26.66 75.684l.793 2.384.265.766.793 2.383 1.983 6.13.529 1.575-1.763.979-1.234-3.873-.441-1.405-1.277.68-9.431 5.237 1.587 5.108-1.763.979-4.891-15.154-.441-1.405-1.234-3.83-1.189-3.747-6.038-18.559-4.098-12.557 1.543.17.044.043 1.895.17c.793-.042 1.586-.042 2.379-.127l-1.851 1.021-1.234.681 1.234 3.704 1.058 3.277.22.596.97-.553c.088.638.308 1.234.573 1.83l-.97.553 2.292 7.024.176.638 2.159-1.191.881 1.617-2.423 1.362.132.383h-.044l2.159 6.64h.044-.044l.22.64 1.455-.81h.264c.397.086.749 0 1.014-.255.881-.596 1.762-1.192 2.643-1.83l.485.34h.132c1.19-.468 2.027-1.192 2.512-2.17l1.278-.724.309 1.277-.044.68-9.431 5.194 1.983 6.172.309.936h.044-.044l.22.639 5.112-2.852 1.895.639a.77.77 0 00.088.297l-5.685 3.108-.837.426 2.203 7.023.221.766 10.62-5.916-2.468-7.62-.309.17.441-3.107.264-2 .794 2.51.661 2.087.308.85zM79.936 49.862c.352.383.573.766.75 1.234.175.511.175 1.022.131 1.49-.132.298-.396.469-.793.511h-.088c-.264.043-.573 0-.881-.085a6.401 6.401 0 01-1.146-.426l-.265-.127c.089.085.177.17.309.255.485.426.75.894.705 1.405.044.255-.088.425-.353.596a1.523 1.523 0 01-.66.255h-.133a9.858 9.858 0 01-1.586 0 4.93 4.93 0 01-1.586-.51c-.309-.214-.53-.511-.661-.937-.044-.17-.177-.554-.309-1.15v.554c-.22.128-.397.17-.573.17-.22 0-.44-.042-.617-.17a7.65 7.65 0 00-.132-2 8.91 8.91 0 00-.617-1.916c-.132-.426-.044-.809.265-1.235.22-.34.572-.638 1.013-.979v.043c-.132.298-.176.596-.22.851 0 .34.088.639.22.894.176.34.44.894.705 1.66.309.724.529 1.277.705 1.66.132.298.309.554.617.767.309.212.617.255.925.17.397-.17.706-.298.882-.426.308-.255.352-.51.176-.809.132.17.309.34.573.596.044.043.088.043.132.085-.176-.127-.264-.298-.396-.468-.089-.255-.177-.68-.265-1.192-.088-.553-.176-.979-.264-1.234a.7.7 0 01-.132.425 1.16 1.16 0 01-.265.213c0-.085-.044-.127-.044-.212-.088-.426-.132-.767-.132-.98a8.997 8.997 0 00-.264-.936c-.353-.809-.617-1.788-.882-2.852l.177-.17a2.22 2.22 0 01.749-.256c-.044.086-.133.17-.265.34-.088.129-.132.214-.132.341.044.639.264 1.363.617 2.214.132.213.308.553.529 1.021.22.426.352.767.44 1.065.133.383.265.596.309.68.088.171.22.299.352.384a.34.34 0 00.177.085c.352.085.705 0 1.013-.255.353-.213.529-.469.617-.81-.044-.17-.176-.425-.397-.808l-.044-.043c-.22-.34-.352-.638-.396-.85.132.212.352.552.66.978.221.34.486.639.706.851l.044.043zm45.785 11.663l-.485.298-2.953-.468 3.085-1.745-1.322-4.214-.132-.426c.264-.042.485-.085.705-.128a2.52 2.52 0 00.529-.17c0 .043.044.128.044.17.044.17.088.383.132.554l.661 3.575-.264 2.554zm-4.76-10.13c-.396.085-.793.17-1.233.255l.925-.51.264.17.044.084zm-16.524-16.346h-.044c-.044 0-.044-.043-.088-.043.044 0 .088.043.132.043zm23.399 36.48l-2.159 1.234-.705-1.703 1.982-1.106 1.322.468 1.102.127.265 1.873-.485-1.575-1.322.681zm48.032 107.608c.044.043.088.043.132.043h-.132v-.043z" fill="#62598E"/><path d="M69.448 8.445c-.132.085-.264.213-.44.298-1.014.638-2.204.979-3.57.979-.132 0-.264 0-.396-.043.44-.042.749-.127.925-.17.353-.128.617-.298.837-.51l.044-.043c.75-.128 1.322-.298 1.675-.469l.749-.638c.088-.17.176-.383.176-.596v.17c.088.34.044.724 0 1.022zm.044 5.831c0-.042-.044-.042-.044-.042l-.044-.085c0-.043-.044-.043-.044-.043-.088-.085-.132-.17-.22-.255l-.22-.256c-.045-.042-.089-.127-.133-.17a3.156 3.156 0 01-.573-2.043c.177-.043.265-.128.265-.255.044-.086.044-.213.044-.426v-.468c0-.17.088-.34.22-.426.132 1.277.22 2.043.22 2.256.089.681.22 1.32.397 1.83 0 .043.044.043.044.085.044.086.044.213.088.298zm-.044 3.023c.176-.17.309-.34.44-.469l.265-.425.309.553.132.128c-.044.128-.132.298-.176.468-.353.98-.485 1.745-.485 2.384 0 .128.044.425.176.936.044.17.088.383.132.596l-.132-.127a1.292 1.292 0 01-.22-.299c-.397-.51-.661-.85-.837-1.021-.353-.51-.661-.98-.882-1.405.132-.17.309-.34.53-.51.131-.128.307-.299.572-.511.044-.128.132-.213.176-.298zm55.259 32.265c-.529.17-1.013.298-1.542.468l-.088-1.49v-.212l.881.085.705.043v1.106h.044zm4.98-6.044c-.133.255-.353.425-.661.51-.045 0-.617-.297-1.719-.979-.485-.297-.837-.51-1.102-.68v-1.576c.749.384 1.41.81 1.983 1.32.088.043.132.085.221.128.044.042.044.042.044.085.044 0 .088 0 .088.042.044 0 .044.043.044.043.132.085.22.213.396.298l.133.128c.132.127.22.255.352.383.044.042.132.085.132.127.044.086.044.128.089.17zM68.523 30.877l1.718.937c.22.128.485.085.882-.043.132-.042.264-.085.484-.213.044.043.133.086.177.128.22.17.396.298.572.426a2.834 2.834 0 01-.616.34c-.133.043-.265.128-.397.17a7.38 7.38 0 00-.485.128c-.088 0-.573.086-1.41.256h-.132c-.529.085-.793.213-.881.298 0 0-.044.085-.088.255a8.513 8.513 0 00-.133.894c-.176-.128-.44-.213-.705-.34l-.044-.043c-.044 0-.044 0-.088-.043-.66-.34-1.146-.553-1.542-.68-.353-.171-.617-.256-.793-.341l-.265-.128c-.176-.085-.352-.213-.485-.298-.308-.426-.484-.894-.572-1.49v-.851c0-.085.044-.128.044-.213 0-.128.044-.213.088-.298h.264c.176.17.397.34.661.51.44.341.75.554.837.64.177.127.397.297.706.553.22.17.44.255.616.298h.177v-.085a1.576 1.576 0 00-.573-.681c-.22-.17-.353-.298-.397-.298-.132-.128-.264-.256-.308-.383.264.042.617.297 1.057.68.265.213.485.384.661.511.133.085.265.128.397.17v-.255c0-.042 0-.042-.044-.085a3.47 3.47 0 00-.353-.51c-.044 0-.044-.043-.044-.043a1.442 1.442 0 00-.352-.256l-.088-.085a.591.591 0 00-.133-.17l.485.255c.044.085.176.213.264.383.133.17.22.298.353.384l.044.042c.176.128.353.128.573.085-.044-.298-.088-.383-.132-.51zm8.505-1.021c.176.17.396.34.66.51.53.511.838 1.192.926 2.044.088.68.044 1.405-.176 2.256-.133.553-.177 1.32-.177 2.213 0 1.15 0 1.873-.044 2.214 0 .425 0 .936-.044 1.532 0 .298-.044.681-.088 1.192v.298c-.088 1.234-.044 2.299.176 3.107 0 .256.044.596.133 1.022.088.468.176.851.176 1.064.044.213.176.511.397.852l.043.042c-.396.426-.66.724-.88.809-.221-.34-.397-.596-.574-.894-.22-.383-.44-.724-.572-.98-.441-.723-.706-1.319-.838-1.744-.088-.213-.132-.511-.132-.894-.044-.596-.088-.894-.088-.937a2.799 2.799 0 00-.264-.51s0-.043-.045-.043c-.088-.51-.176-1.15-.396-1.788-.176-.596-.309-1.064-.397-1.32-.132-.51-.22-.979-.264-1.362-.088-.212-.132-.383-.22-.596.044.086.044.17.088.256.44-.426.793-1.15 1.057-2.171.265-1.788.397-2.682.397-2.724 0-.085-.044-.298-.132-.596-.088-.298-.133-.511-.133-.596 0-.937.353-1.575 1.014-2a.643.643 0 00.397-.256zm44.594 20.602l-.661.128-.044-.085-.264-.128-.573-.298-2.159 1.15c-.132.042-.265.042-.397.042-.088-.213-.176-.383-.176-.553.22-.17.485-.341.793-.511.882-.511 1.587-.767 2.159-.767.221 0 .397 0 .573.043.309.085.529.213.617.383v.043c.132.213.132.383.132.553zm-45.08.128c.045.085.133.17.177.255.176.298.132.554-.176.766a3.273 3.273 0 01-.882.426c-.308.085-.616.043-.925-.17a1.678 1.678 0 01-.617-.724 67.94 67.94 0 01-.705-1.617c-.308-.767-.573-1.277-.705-1.618-.132-.298-.22-.596-.22-.894 0-.298.088-.553.22-.851.176.425.44 1.022.705 1.873.088.213.264.809.573 1.788.397.894.925 1.362 1.675 1.362.088 0 .396-.213.88-.596zM63.456 12.574a6.802 6.802 0 01-1.762-.256c-.265-.085-.53-.17-.75-.34-.22-.17-.44-.34-.572-.596-.265-.426-.309-.851-.133-1.234h.044c.353-.17.794-.213 1.234-.213.794 0 1.41.34 1.763 1.064.176.383.264.809.264 1.192-.044.042-.044.17-.088.383 0-.043 0-.043 0 0zm-3.393 7.662c0 .127-.088.468-.22 1.021-.088.426-.176.767-.176 1.022.132.298.352.553.66.851l.045.043c.044.042.088.042.132.085-.573-.085-1.014-.426-1.322-1.022-.265-.68-.397-1.021-.397-1.064 0-2.298.705-4.129 2.16-5.49.352-.299.66-.512.969-.682l.132.255.044.043c0 .043.044.128.088.213v.042c.088.383-.044.681-.396.937-.309.213-.705.298-1.146.298-.22.979-.397 2.086-.573 3.448z" fill="#ED9870"/><path d="M148.282 98.942v1.958l-.044-.043-9.077-5.065-.793-2.384 9.914 5.534zm.97-5.747l.264 2-.044-.042-12.426-5.789-.661-2.086 12.867 5.917zm-11.105-.553l-.793-2.384 10.928 6.087v2l-.044-.042-10.091-5.661zm-3.349.553l.044.213-.22-.128c.088-.042.132-.042.176-.085z" fill="#E3E2E2"/><path d="M149.516 93.025l18.508-12.217.881-.553.309 1.915-1.498 1.064-18.156 11.92-.264-2.001.22-.128zm-1.234 5.278v-2l21.417-11.962v2.043l-.573.298-20.844 11.621zm0 2.554v-1.915l21.417-11.962v2.001l-21.417 11.876z" fill="#B7B7B7"/><path d="M148.238 100.857l.044.043h-.044v-.043zm1.278-5.661l-.044-.043.044.043zm-1.234 3.107h-.044.044z" fill="#868082"/><path d="M149.516 93.025l-.264.127-12.867-5.916-.794-2.512.089-.638 17.185-11.28 9.695 4.512h-.044a236.66 236.66 0 00-1.983-.128c-4.847-.298-7.271.085-7.271 1.234 0 .469.088 1.235.308 2.342.221 1.106.397 1.83.529 2.128v1.405c-.705.127-1.278.212-1.762.212-2.424-.17-3.878-.212-4.319-.212-.308 0-.485.127-.573.34-.044.17-.088.511-.088 1.107 0 .681.441 2.299 1.278 4.853.308.893.573 1.745.881 2.426zm-10.223-7.918c.044.383.22.681.617.98.396.297.881.425 1.454.425s1.058-.128 1.498-.425c.397-.256.573-.597.573-.98v-.127c0-.383-.22-.724-.573-1.022-.396-.298-.925-.425-1.498-.425s-1.058.127-1.454.425c-.397.298-.573.596-.617.98v.17z" fill="#F3FAFF"/><path d="M137.266 64.888l-1.146 1.022-1.851 1.022c-1.498.595-2.908.85-4.274.766-.485-.043-1.014-.085-1.454-.213.088-.724.176-1.575.308-2.469 0-.255.044-.553.044-.809.044-1.021.088-2.086.133-3.192v-.894c.044-.681.044-1.575.044-2.682v-.511c0-1.234 0-2.043-.044-2.426v-.128c0-.127 0-.213-.045-.34a9.671 9.671 0 00-.22-1.277v-.128c-.044-.042-.044-.085-.044-.128l-.132-.51a4.901 4.901 0 00-.353-.852c-.132-.34-.352-.68-.661-1.064-.22-.255-.44-.468-.705-.724-.264-.212-.573-.383-.837-.596-.088-.042-.176-.127-.264-.17.044-.042.088-.042.132-.085a26.462 26.462 0 012.908-1.958c.088.17.176.298.309.468.396.511.925.724 1.586.554a3.312 3.312 0 001.454-.724c.176-.128.309-.298.441-.468.352-.596.705-1.235 1.013-1.873.441-.128.926-.256 1.366-.383l1.19.638c.177.085.353.213.529.383 1.19.894 1.719 2.086 1.586 3.661v.255a19.361 19.361 0 00-.44 1.703c-.132.553-.265 1.064-.397 1.618v.17c-.176 1.15-.264 2.299-.352 3.448v.042l.088 3.406c.22 1.617.352 3.235.308 4.852 0 .213-.088.383-.22.596zm30.714 15.963l-18.508 12.216a38.746 38.746 0 01-.881-2.468c-.837-2.555-1.278-4.172-1.278-4.853 0-.553.044-.936.088-1.107.088-.213.264-.34.573-.34.441 0 1.851.042 4.318.212.485 0 1.058-.085 1.763-.212v-1.405c-.132-.298-.308-1.022-.529-2.128-.22-1.107-.308-1.873-.308-2.342 0-1.149 2.423-1.532 7.271-1.234.705.043 1.366.085 1.983.128h.044l6.345 2.98-.881.553z" fill="#27E0C0"/><path d="M134.842 89.875l-.088.681h-.705c-.088 0-.22 0-.308-.043h-.089a6.582 6.582 0 01-1.762-.468c-.176-.085-.353-.213-.485-.298-.22-.17-.396-.298-.529-.51-.132-.213-.22-.426-.22-.682l.132-3.618c.353-.213.661-.766.926-1.575.22-.68.396-1.617.528-2.724v-.128c.133-1.958.309-3.533.441-4.725.132-.936.22-1.617.353-2.043.176-.596 1.366-2.384 3.569-5.363a29.743 29.743 0 00-1.234 6.555c-.044.426 0 .851.088 1.234a19.54 19.54 0 01.353 6.598l-.177 1.277-.088.639-.264 2-.441 3.193zm-8.416-23.71l.396.426.177.085v.043l.793.553.749.298c.485.128.969.17 1.454.213 1.322.085 2.732-.17 4.274-.766-.088.34-.176.638-.352.936a1.742 1.742 0 01-.661.894c-.749.553-1.586 1.022-2.468 1.32-.485.17-1.013.297-1.542.425l-1.102-.127-1.322-.469-.837-.298-2.027-.766c-2.292-1.66-3.966-2.767-4.98-3.32-.176.043-.352.085-.572.17-.133.043-.221.256-.221.681 0 .256 1.366 2 4.142 5.279.133.17.265.34.441.51.397.469.793.937 1.234 1.448 1.014 1.149 2.115 2.468 3.349 3.916l-2.732 1.83-1.542.298-2.336-4.257-.881-1.617-.221-.426-.044-.17-.661-1.532-.352-.596c-.22-.469-.441-.894-.661-1.32-.309-.596-.661-1.15-1.014-1.745-.264-.383-.484-.809-.705-1.235a8.927 8.927 0 01-.573-1.83 3.612 3.612 0 01-.088-.681c0-.255-.044-.51 0-.809 0-.68.441-1.277 1.278-1.745.882-.51 1.939-.766 3.129-.766l1.234.212 1.013.17 2.953.469.44.085-.132.511a3.972 3.972 0 00-.132 1.745l.397 1.15.132.255c.132.128.22.298.352.426.133 0 .177.042.221.127zm-22.827-22.858c.044 0 .089.042.177.042.308.17.44.511.44 1.022 0 .51-.176 1.064-.44 1.575-.044.085-.088.17-.177.213-.308.426-.617.724-1.013.936-.441.256-.837.298-1.146.128-.352-.17-.529-.553-.529-1.064 0-.51.177-1.022.529-1.532a3.797 3.797 0 011.146-1.192c.396-.17.705-.213 1.013-.128zm35.694 41.8v-.127c.044-.383.22-.681.617-.98.396-.297.881-.425 1.454-.425s1.058.128 1.498.426c.397.298.573.638.573 1.021v.128c0 .383-.22.724-.573.979-.396.298-.925.426-1.498.426s-1.058-.128-1.454-.426c-.397-.34-.573-.681-.617-1.022z" fill="#FFD22E"/><path d="M80.95 40.838l-1.014.553-1.895 1.065c.044-.511.088-.937.088-1.235.044-.638.044-1.15.044-1.575.044-.34.044-1.064.044-2.256 0-.894.044-1.66.177-2.256.22-.851.264-1.617.176-2.299-.088-.85-.397-1.532-.925-2.043l-.661-.51a3.92 3.92 0 01-.573-.682c0-.042-.044-.042-.044-.085l32.608-18.048h.045l4.45-2.469h.044l5.905-3.278v13.835l-4.274 2.383-2.688-8.343-1.675-.936-1.807 1.021 1.675 5.108h-.044l1.102 3.235-9.386 5.279-2.204-6.768-1.674-.894-1.763 1.021 1.102 3.406h-.044l2.07 6.342-18.86 10.429zm-8.638 4.767l-54.64 30.308V62.12l49.75-27.626c.044 0 .044.043.044.043.265.128.485.256.705.383.397.17.661.34.837.426.838.34 1.499.724 2.028 1.064-.044.17-.133.383-.353.639a2.019 2.019 0 00-.308.638 7.02 7.02 0 00-.133 1.915c.044.682.133 1.32.353 1.916.529 1.064.881 1.958 1.146 2.597.22.51.396 1.021.573 1.49zm2.072-10.726c-.044-.17-.133-.298-.22-.469-.221-.298-.441-.638-.75-.979.088 0 .22 0 .309.043.308.043.573.085.705.128.264.085.396.255.44.468-.22.255-.352.51-.484.809zm-.177 2.554l.177 1.064c.044.213.132.383.22.596.044.425.176.894.264 1.404.089.298.22.767.397 1.363.176.68.308 1.277.397 1.83v.043l-1.058.595c-.088-.596-.264-1.575-.485-2.894-.044-1.15-.044-1.83-.044-1.958 0-.724.044-1.405.088-1.916 0-.042.044-.085.044-.127zm20.756-16.389l-7.183 4.002v1.66l7.183-4.001v-1.66zm-7.183 12.43l7.183-4.001v-1.66L87.78 31.77v1.703zm0-3.363l7.183-4.001v-1.66l-7.183 4v1.66zM70.814 57.44L22.87 84.213v-5.278l45.124-25.2 2.82-1.574v5.278zm-32.653-3.405c-.705.383-1.278.979-1.762 1.83-.485.809-.75 1.617-.75 2.426 0 .767.265 1.277.75 1.575.484.256 1.057.213 1.762-.17.705-.383 1.278-.979 1.807-1.83.485-.81.705-1.618.705-2.384 0-.766-.264-1.32-.705-1.575-.485-.298-1.102-.255-1.807.128zm-6.08 21.836c-.133-.127-.353-.085-.618.043-.264.128-.44.383-.617.724-.22.297-.352.638-.352.979 0 .297.132.468.352.553.177.085.397.085.617-.085.265-.128.44-.383.617-.681.22-.298.353-.596.353-.894-.044-.298-.133-.511-.353-.639zm1.145-16.09c0-.766-.264-1.32-.705-1.617-.485-.256-1.102-.17-1.807.212-.705.383-1.278.98-1.762 1.83-.485.81-.75 1.618-.75 2.385 0 .766.265 1.276.75 1.575.484.255 1.057.212 1.762-.17.705-.384 1.278-.98 1.807-1.831.44-.809.705-1.618.705-2.384zm-7.491 2.767c-.485-.255-1.102-.213-1.763.213-.705.383-1.322.979-1.807 1.83-.485.809-.749 1.618-.749 2.384 0 .766.264 1.277.75 1.575.396.213.88.213 1.453 0 .089-.043.22-.085.309-.17.132-.086.22-.128.352-.213.53-.383 1.014-.937 1.455-1.618.484-.808.705-1.617.705-2.383 0-.81-.22-1.363-.705-1.618zm4.406 15.196c0-.298-.132-.468-.352-.596-.133-.085-.353-.042-.617.085-.265.128-.485.384-.661.681-.22.341-.353.639-.353.98 0 .297.133.468.353.553.176.085.396.085.66-.085.265-.128.441-.34.618-.639.22-.383.352-.68.352-.979zm-3.437.852c-.308.17-.529.383-.66.638-.221.34-.353.639-.353.98 0 .297.132.467.352.553.132.127.353.127.661 0 .264-.128.44-.384.617-.724.176-.34.264-.639.264-.937 0-.298-.088-.51-.264-.638-.176-.043-.353 0-.617.128z" fill="#4367C7"/><path d="M97.166 33.985L87.03 39.646v-1.15l10.135-5.66v1.149zM79.936 53.14h.088c.353-.043.617-.213.793-.511a2.917 2.917 0 00-.132-1.49c-.132-.468-.397-.851-.75-1.234V41.39l1.014-.553V80.85l-1.013.553V53.14zm17.582 13.025c-.22-.085-.308-.298-.308-.596 0-.34.088-.68.308-1.021.22-.34.44-.596.705-.767.265-.17.53-.17.705-.042.22.128.309.34.309.68 0 .299-.088.597-.309.937-.22.34-.44.596-.705.767-.264.17-.484.17-.705.042zm-11.81 5.193l9.519-5.32v1.149l-9.518 5.32v-1.149zm12.515-2c.265-.17.53-.17.705-.043.22.128.309.34.309.681 0 .298-.088.596-.309.894-.22.34-.44.596-.705.809-.264.17-.484.17-.705.042-.22-.085-.308-.298-.308-.596 0-.34.088-.68.308-1.021.22-.383.44-.639.705-.766zm-2.996 3.405l-9.518 5.32v-1.148l9.518-5.321v1.149zm-70.858 71.81l-3.085 6.428-8.417-4.47 11.502-1.958z" fill="#FFFBF0"/><path d="M61.737 13.085c.264.085.528.127.837.17.66.042 1.322 0 1.983-.17.705.383 1.806.595 3.349.595.264 0 .573-.042.837-.17.044.043.088.128.132.17l.22.256c.089.085.177.17.221.255.044 0 .044.043.044.043l.044.085s.044 0 .044.042c.353.469.573.81.661 1.022.176.426.176.809 0 1.107l-.264.426c-.132.17-.265.34-.44.51-.75.17-1.631.511-2.733.98-1.41.638-2.468.978-3.085.978-.264 0-.573-.127-.925-.383-.353-.255-.573-.51-.573-.68 0-.214.132-.682.397-1.405.22-.682.352-1.15.352-1.405.088-.851-.308-1.703-1.101-2.426zm62.97 36.99v-1.362l1.102-.213c-.044.042-.088.042-.133.085l-.837.894c0 .255-.044.426-.132.596.044 0 .044 0 0 0zM59.533 10.658c0 .085.044.213.044.298.089.383.265.724.441 1.064a3.6 3.6 0 00-.97-.255c-.176 0-.308-.043-.44-.043.176-.213.44-.468.66-.851.089-.085.177-.17.265-.213zm60.195 40.992c.396-.085.837-.17 1.233-.255a3.75 3.75 0 00.661-.17c.529-.129 1.058-.256 1.587-.426.529-.128 1.013-.298 1.542-.469 1.146.17 1.895.426 2.336.81a14.44 14.44 0 01-1.234.765c-.353.17-.749.383-1.146.554-.441.212-.925.383-1.454.596-.22.085-.397.127-.617.212-.705.213-1.41.426-2.203.639l-1.587.383c-.749.17-1.498.298-2.335.468-.617.085-1.499.17-2.6.213h-.176c-.529 0-1.014.043-1.411.043-.396 0-.749.042-1.013.042h-.088c-.793 0-1.454.043-2.027.043-.441 0-.793.042-1.102.042h-.22a.856.856 0 00-.353.085v-.042l.044-.766c0-.043.044-.128.044-.17.044-.086.044-.17.089-.213.044-.043.044-.085.044-.128l.264-.51c.088-.171.22-.299.353-.427.044 0 .132 0 .176-.042.705-.043 1.41-.128 2.115-.17.969-.085 1.895-.17 2.864-.298 1.014-.128 2.027-.213 3.041-.34.308-.043.661-.086.969-.129.132 0 .265-.042.397-.042.617-.043 1.234-.17 1.807-.298zm7.755 25.88l.132-.085.97.767.044.34c-.264.51-.573.98-.97 1.362-.572.639-1.322 1.15-2.203 1.533a3.996 3.996 0 00-1.322 1.064 2.824 2.824 0 01-.396.34l-.529.298a1.77 1.77 0 01-1.234-.042c-.176-.085-.353-.17-.529-.298l-.308-.468c0-.894.484-1.49 1.498-1.916.397-.128.617-.34.573-.766l1.542-.298 2.732-1.83zm-73.37 29.286l-.044-.127c.22-.341.397-.639.573-.894.132-.213.22-.469.352-.724l.265-1.234v-.128c.352.255.705.553 1.057.809.353.298.75.553 1.146.766-.044.128-.132.255-.22.383-.529 0-1.146.128-1.895.426-.264.127-.573.298-.925.468-.088.085-.177.17-.309.255zm76.543-18.26c0 .255.088.467.22.68.132.17.309.34.529.511.132.085.309.213.485.298.485.255 1.101.383 1.762.468h.089c.088 0 .176.043.308.043h.705l.088 1.49c-.088.042-.22.085-.308.127-.397.128-.749.213-1.102.213a3.169 3.169 0 01-1.895-.638 2.979 2.979 0 01-.529-.511 2.123 2.123 0 00-1.013-.553c-.088 0-.132 0-.22-.043a2.93 2.93 0 01-.926-.255 1.394 1.394 0 01-.44-.213l.132-.724 2.115-.894zM41.554 109.03c.573.213 1.146.425 1.719.723.264.128.529.256.793.426l1.587.894c.176.085.308.17.484.298.044 0 .044 0 .088.042.22.128.441.213.661.298-.264.894-.925 1.49-1.939 1.831-.044 0-.044 0-.088.042-.617.213-1.234.298-1.806.213-.353-.042-.706-.17-1.058-.298-.529-.17-1.498-.638-2.908-1.404-.441-.256-.97-.511-1.499-.809-.44-.256-.881-.511-1.366-.766-.749-.511-1.233-.852-1.498-1.065-.22-.17-1.013-1.447-2.335-3.788-.309-.511-.573-.979-.794-1.362-.22-.426-.44-.766-.616-1.107-.265-.468-.441-.809-.617-1.064-.133-.255-.22-.426-.309-.511-.132-.213-.264-.383-.396-.596-.045-.042-.045-.085-.089-.127-.308-.469-.573-.937-.881-1.32.485-.468 1.146-.724 2.027-.766.22 0 .485 0 .705.042.176.298.397.554.617.852.22.34.485.723.705 1.064.176.213.309.468.44.681.089.128.177.255.265.34.22.341.485.724.705 1.065.265.383.485.766.75 1.106 0 .043.043.043.043.085.22.341.485.682.706 1.065l.528.766c.177.255.353.511.44.809a.917.917 0 01.221.34v.043c.573.298 1.19.596 1.763.894.793.425 1.63.766 2.512.979.176 0 .308.042.44.085zm5.376-11.706c.177.34.397.681.573 1.064 0 .043.044.043.044.085.133.256.22.511.353.766 0 .043.044.043.044.086-.132.17-.22.34-.353.553-.132.255-.22.553-.22.851v.298c.044.298.044.596.044.894.044.085.044.17.044.256v.042c.044.341.132.639.22.979v.213l.045.128c-.265-.171-.53-.383-.838-.596a23.896 23.896 0 01-1.322-1.192c-.132-.128-.44-.724-.925-1.745-.176-.34-.353-.724-.529-1.192-.132-.34-.308-.681-.44-1.064-.045-.085-.045-.128-.089-.213-.176-.426-.352-.809-.484-1.15-.177-.425-.353-.808-.485-1.106-.22-.511-.397-.937-.529-1.235-.132-.255-.176-.425-.22-.553-.353-.809-.75-1.532-1.102-2.213a.966.966 0 01.22-.128c.573-.383 1.322-.469 2.248-.298.132 0 .22.042.352.085.309.596.617 1.15.926 1.745.176.34.352.639.529.98a.319.319 0 01.088.17c.176.383.396.723.572 1.064.177.383.397.766.573 1.149.044.128.133.255.177.383.176.298.352.596.484.894z" fill="#D1E7F4"/><path d="M113.514 8.956h-.044V6.274l-4.45 2.511v2.682h-.045V8.785L80.641 24.492l1.322-2.426c.22-.383 0-.383-.705 0l-5.552 3.107c-.22-.17-.53-.297-.882-.468-.44-.213-.749-.383-.97-.553L110.43 3.464c.837-.425 1.498-.638 1.939-.638.661.255 1.057 1.064 1.145 2.469v3.66zM14.983 61.398l-1.807 1.021v63.978l24.236-13.409c.088.043.22.128.309.213.484.298.97.596 1.454.937.529.34 1.057.638 1.586.936l-31.64 17.58V62.206c.045-.766.441-1.447 1.102-2.043l50.368-28.52c.529.469 1.013.895 1.454 1.192a7.988 7.988 0 001.763.98L14.983 60.886v.51zm98.531-33.67v4.426l-4.671 2.597v-8.258l3.658-2.043 1.013 3.277zm0 15.536l-4.671 2.64v-8.259l4.671-2.596v8.215zm0 9.28c-.969.085-1.895.213-2.864.298l-1.014-3.108h-.044l-.396-1.192 4.318-2.383v6.385zm0 9.11l-1.234-3.704 1.234-.681v4.384zm.132 12.897l-55.743 30.988c-.088-.042-.22-.127-.309-.17-.088-.043-.132-.043-.132-.043a6.613 6.613 0 01-1.146-.766c-.352-.255-.705-.553-1.057-.808.044-.128.044-.213.044-.341v-.298l53.54-29.584V58.035l4.803 14.856v1.66zm-67.509 36.82a2.954 2.954 0 01-.484-.298 9.37 9.37 0 00-1.587-.894c-.264-.128-.529-.255-.793-.426l5.684-3.15s0 .043.044.043l.309 2.086c-.617.425-1.146.809-1.675 1.192-.396.34-.749.638-1.057.936-.132.128-.309.298-.44.511z" fill="#031F6C"/><path d="M67.333 28.75l.793-.47 2.203-1.191 2.028-1.107.308-.212c.661-.384 1.146-.469 1.454-.341l.617.34c-.22.17-.397.298-.529.469-.044.085-.132.17-.132.255h-.044L71.035 31.9c-.133.255-.088.34.132.255-.397.17-.705.17-.882.043l-1.718-.936c0-.043 0-.043-.044-.086-.088-.17-.176-.34-.309-.51a8.36 8.36 0 01-.617-.852c.177.085.397.298.661.681.22.256.397.426.573.511.044.043.088.043.132.043v-.128c0-.128-.044-.255-.088-.426 0 0-.132-.17-.264-.468l.397-.255a4.118 4.118 0 00-1.234-.894c-.133-.043-.309-.085-.441-.128zm-.397 1.66c-.044-.043-.044-.128-.088-.128.177.042.353.17.485.34l.088.085-.485-.298zm-7.27-7.876c.176-.085.308-.17.484-.255.088.553.485.936 1.102 1.192.485.17 1.057.255 1.763.255 1.101.043 2.115-.127 2.996-.51 1.058-.426 1.763-1.107 2.071-2.001.22.17.44.425.573.766 0 .043.044.085.044.128-.264.34-.66.68-1.146 1.064-.97.724-2.07 1.15-3.26 1.32-.353.042-.706.085-1.102.085-.75 0-1.41-.085-1.983-.256-.044-.042-.044-.085-.088-.127l-.176-.17-.22-.214-.045-.042a79.642 79.642 0 01-.132-.128c-.044-.042-.044-.042-.132-.085-.044-.043-.044-.043-.044-.085-.397-.383-.573-.639-.706-.937zm-2.997 132.213c.75 1.064 1.675 1.66 2.776 1.745.397.042.793 0 1.234-.085.176 0 .353 0 .485-.128-.044.468-.309.766-.75.979-.396.128-.793.17-1.101.043a1.371 1.371 0 01-.573-.341c-1.278-1.107-2.644-2.001-4.186-2.639l-.044-.639.088.043 2.071 1.022zm-13.616 7.066c.793 1.149 2.07 1.702 3.877 1.617a39.266 39.266 0 015.465.128h.264l1.939-.128c-.485.766-1.102 1.277-1.895 1.447-.66.128-1.366.043-2.203-.212l-.265-.682a4.63 4.63 0 00-1.498.256c-2.952.724-4.847-.085-5.684-2.426z" fill="#333"/><path d="M63.72 30.665v.765c.044.596.22 1.107.572 1.532.133.085.309.213.485.298l.265.128.793.383c-.265.17-.485.298-.75.34-.308.043-.572 0-.793-.127-.132-.043-.308-.085-.44-.17-.573-.213-1.146-.554-1.763-.98-.44-.297-.925-.723-1.454-1.191l-.44-.426c-.089-.085-.133-.17-.221-.298 0 0 0-.043-.044-.043v-.042c0-.043-.044-.043-.044-.043v-.042l-.044-.043a6.308 6.308 0 01-.793-1.277 19.477 19.477 0 01-.573-1.703v-.17a6.625 6.625 0 01-.044-2.085v-.043c.352.426.749.851 1.278 1.277a.957.957 0 01.22.17c.176.128.397.256.66.426.486 1.021 1.411 2 2.689 2.894.044.043.132.085.176.128l.397.255v.086h-.132zm8.372-5.449c-.66.34-1.234.894-1.763 1.745 0 .043-.044.085-.044.128l-2.203 1.192c-.088-.17-.22-.34-.352-.51-.044-.044-.044-.086-.089-.129-.484-.723-.705-1.149-.705-1.234 0-1.575.705-2.512 2.071-2.81.397-.042.882.043 1.455.256.132.043.352.17.66.298.265.128.485.213.706.213 0 .042.044.17.088.383l.044.042v.085c.044.086.044.17.044.213.088.085.088.128.088.128z" fill="#87264F"/><path d="M101.088 34.368l-.705-2.171v-.043l-.573-1.745-2.071-6.342h.044L96.68 20.66l1.63.937h.089l.793 2.426h-.044L101 29.686l.308.936.485 1.49.573 1.83c-.265 0-.573.085-.97.298l-.308.128zm7.932-20.688l1.718.894 1.322 4.214 1.058 3.235-10.576 5.917h-.044l-.177-.638 9.387-5.279-1.102-3.235h.044l-1.63-5.108zm-2.38 23.029c-.044-.255-.132-.468-.264-.596l2.467-1.405 4.671-2.639 1.234-.68-1.234-3.747-1.057-3.277 1.234-.554 2.467 7.62-9.518 5.278zm2.203 9.194l4.671-2.639 4.319-2.384-1.983-6.087h-.044l-.265-.893h.044l1.146-.639.529 1.532h.044l1.983 6.002-10.62 5.96-.22-.639.396-.213zm-.308 7.109c-.044 0-.132 0-.176.043-.133.127-.221.298-.353.425a3.105 3.105 0 01-.749-.213l-.617-1.873v-4.128l.793 2.383 1.102 3.363zm13.396-4.001l-1.41.085-.309-.98-1.586-4.81 1.19-.68 1.145 3.405.97 2.98zm3.305 12.812l.485-.298-.044.34-.441-.042zm1.807 4.853l-.177-.085-.396-.426.44.426.133.085zm-6.39-15.537l-.925.51c-.617.129-1.19.256-1.807.341l2.159-1.149.573.298zm6.786 60.019l-1.454-.128-4.671-14.302-.485-1.405-1.762-5.448-1.102-3.406-4.363-13.536-4.759-14.898-.308-.894-.441-1.32 1.41.17 4.098 12.558 6.037 18.559 1.19 3.746 1.234 3.83.441 1.406 4.935 15.068zm-5.156-49.803l-1.013-.17 2.688-1.49-1.454-4.427c.352-.085.705-.128 1.057-.213.088 0 .221-.042.309-.042l.132.425 1.322 4.214-3.041 1.703zm-6.609 2.937c0 .213.044.468.088.681l-.97.554-.22-.596 1.102-.639zm9.033 6.13l1.366-.809.837.298-1.983 1.107-.22-.596zM108.579 57.14v.043-.043zm9.077 17.197l2.028-1.15.044.17.22.427-2.159 1.191-.133-.638zm-5.992-7.747l-.045-.043.045.043zm3.04 9.407v.043-.043zm25.162 28.477l-1.454-.085-1.499-4.512 1.278-.681.441 1.405 1.234 3.873zm-9.21-25.455l-1.278.724c.044-.128.088-.213.176-.34l-.264-.341-.044-.043.881-.51-2.291-6.982 1.234-.68.484 1.574.661 4.81.441 1.788zm-8.989 4.214c.22.213.44.34.66.384l-1.454.808-.22-.638h.044-.044l1.014-.554zm9.209-2.298v.085-.085zm-4.098 21.624l7.403-4.13 1.939-1.106-1.278-3.916-.044-.213v-1.107l-.088-1.49.088-.68.309-.17 2.467 7.618-10.62 5.917-.176-.723zm-3.04-9.323l.705-.383 4.054-2.256.132.256.485.17-5.112 2.852-.264-.639zm-2.909 1.703l-.044-.085c0 .043.044.043.044.085zm-3.04-9.45v-.085h-.044c0 .043 0 .043.044.085z" fill="#373059"/><path d="M94.963 21.044v1.66l-7.183 4.002v-1.66l7.183-4.002zm-7.183 9.067v-1.66l7.183-4.001v1.66l-7.183 4zm0 3.363V31.77l7.183-3.959v1.66l-7.183 4.002zM32.08 75.87c.22.128.353.34.353.596 0 .298-.133.596-.353.894a1.21 1.21 0 01-.617.681c-.264.128-.44.17-.617.085-.22-.085-.352-.255-.352-.553 0-.34.132-.638.352-.98.177-.34.397-.595.617-.723.265-.085.44-.127.617 0z" fill="#60BFFF"/><path d="M98.357 21.598h-.09l.045-.043.045.043z" fill="#000"/><path d="M98.267 21.598l-1.63-.936L98.4 19.64l1.674.894-1.763 1.021-.044.043zm12.427-7.024l-1.719-.893 1.807-1.022 1.675.936-1.763.98z" fill="#9188BC"/><path d="M91.217 60.972l-1.675-.936a.244.244 0 01-.22-.128l-1.63-.937c-.353-.085-.53-.468-.53-1.191V43.903c0-1.192.53-2.086 1.587-2.682l12.295-6.896.22-.127c.396-.213.749-.298.969-.298.088 0 .177.042.265.042l1.851 1.064.44.256 1.366.809c-.264-.128-.617-.043-1.057.17-.044 0-.088.042-.133.085l-4.935 2.767v-.043l-1.146.639v.042l-6.433 3.576c-1.102.596-1.63 1.532-1.63 2.724v13.92c.087.51.175.85.396 1.021zm13.22-25.923c-.044 0-.088-.043-.133-.043.045 0 .045.043.089.043h.044z" fill="#F60"/><path d="M113.47 8.956l-4.45 2.469v-2.64l4.45-2.511v2.682z" fill="#003"/><path d="M107.521 55.225v.17l.044.043a.66.66 0 00.133.34l.44.043.441 1.32.308.894v15.494l-53.54 29.584c0-.511-.132-1.022-.352-1.532l15.907-8.854V52.118l-2.82 1.575v-2.937L20.05 77.573v40.523l2.82-1.575v2.938l13.176-7.322c.22.128.44.255.617.383.22.128.44.298.793.468L13.22 126.397V62.419l1.807-1.021v11.876l2.688-1.49v4.129l54.641-30.308c.133.426.265.81.397 1.235-.44.298-.793.638-1.013.979-.309.425-.397.851-.265 1.234a8.91 8.91 0 01.617 1.916 7.53 7.53 0 01.132 2c.177.128.353.213.617.17a.993.993 0 00.573-.17v-.553c.132.596.22.98.309 1.15.132.425.352.723.66.936a4.93 4.93 0 001.587.51 4.952 4.952 0 001.586 0v30.691l27.233-15.196V55.694c.749.17 1.278.212 1.675 0 .264-.17.661-.34 1.057-.469zm-.22-1.958c-.176-.085-.308-.127-.397-.213-.176-.17-.396-.297-.572-.425a3.68 3.68 0 00.352-1.235l.617 1.873zm-2.512-18.346V28.75l4.054-2.256v8.258l-2.467 1.405c-.044 0-.044-.043-.089-.043l-1.41-.809-.088-.383zm4.054 2.724v8.258l-.396.213-1.719-5.448v-1.873l2.115-1.15zM75.706 44.67a2.22 2.22 0 00-.75.255c-.044.043-.132.085-.176.17-.044-.127-.044-.212-.088-.34 0-.085-.044-.213-.088-.383l1.058-.596c.044.298.044.596.044.894zm.837 6.683c-.22-.34-.353-.809-.485-1.32a.448.448 0 00.264-.212.702.702 0 00.133-.426c.088.255.176.638.264 1.234.088.554.176.937.265 1.192.088.17.22.34.396.468-.044-.042-.088-.042-.132-.085a3.433 3.433 0 01-.573-.596c0-.085-.088-.17-.132-.255zm-27.806 54.911c.044.042.088.128.132.17.044.043.089.128.133.17l-5.685 3.15c-.573-.255-1.146-.51-1.719-.723l6.258-3.491c.132.085.22.17.352.298.177.128.353.298.53.426z" fill="#D2E9F6"/><path d="M124.707 50.288c0-.085 0-.128.044-.213.044-.213.088-.383.132-.553l.838-.894c.088.042.176.127.264.17.264.17.573.383.837.596.265.255.529.51.705.724.309.383.529.723.661 1.064.132.255.265.553.353.851l.132.51c0 .043 0 .086.044.129v.127c.132.426.22.852.22 1.277.044.128.044.213.044.34v.129c.045.383.045 1.191.045 2.426v.511c0 1.064 0 1.958-.045 2.681v.894c-.044 1.107-.044 2.171-.132 3.193 0 .298-.044.553-.044.808-.088.894-.22 1.746-.308 2.47l-.749-.299-.794-.553v-.043l-.132-.085-.44-.425c-.045-.086-.089-.128-.133-.17-.132-.128-.22-.299-.352-.426l-.132-.256-.397-1.149a3.973 3.973 0 01.132-1.745c.088-.17.132-.34.132-.511l.044-.34.221-2.555-.661-3.575a1.147 1.147 0 01-.132-.554c0-.042-.044-.127-.044-.17 1.101-.383 1.85-1.064 2.203-2 .22-.639.132-1.15-.22-1.575-.397-.341-1.146-.596-2.336-.81.044.043.044.043 0 0 0 .043 0 .043 0 0z" fill="#0AA98E"/><path d="M106.331 52.629c-.264.468-.705.894-1.233 1.234l-1.807 1.022-.132.085-1.631.894-5.288 2.98-3.701 2c-.485.298-.882.383-1.102.256a.244.244 0 01-.22-.128c-.22-.17-.309-.553-.309-1.022V46.031c0-1.192.53-2.086 1.63-2.724l6.434-3.576v-.042l1.146-.639v.043l4.936-2.767c.044-.043.088-.043.132-.085.484-.213.837-.298 1.057-.17.044 0 .044.042.088.042.133.128.221.298.265.596a2 2 0 01.044.51v14.176c0 .468-.132.85-.309 1.234zm-.528-14.047c-.088-.937-.441-1.277-1.146-1.022l-11.854 6.428c-.66.383-1.013 1.064-1.057 2.086v9.151c.132-.383.308-.808.528-1.276 1.234-3.023 2.204-4.342 2.953-4.002.308.128.749.468 1.366.937.66.51 1.057.809 1.234.979l.881.468a8.71 8.71 0 00.661-1.022c.617-1.532 1.014-2.383 1.146-2.639.088-.213.22-.298.396-.255.133.042.353.127.705.298.353.213 1.014.723 1.983 1.66.221.213.441.426.705.638.177.17.309.34.441.469a4.6 4.6 0 00.661.638.752.752 0 01.176.213l.221-.128V38.582z" fill="#F90"/><path d="M130.788 84.937l.132-3.916v-.085l.044-.681-.308-1.277-.441-1.788-.661-4.81-.264-1.873c.529-.085 1.058-.255 1.542-.426.882-.34 1.719-.766 2.468-1.32.308-.212.573-.51.661-.893a5.94 5.94 0 00.352-.937l1.851-1.021 1.146-1.022a3.002 3.002 0 01-.088 1.745l-.353 1.065a3.661 3.661 0 01-.22.638v.043c-2.203 2.98-3.393 4.767-3.569 5.363-.133.426-.265 1.107-.353 2.043-.132 1.192-.308 2.767-.441 4.725v.128c-.132 1.107-.308 2-.528 2.724-.353.809-.617 1.362-.97 1.575zm-5.111-12.217l1.938 4.683-.132.085c-1.234-1.447-2.379-2.767-3.349-3.916-.44-.511-.837-.98-1.234-1.448-.132-.17-.308-.34-.44-.51-2.732-3.278-4.142-5.023-4.142-5.279 0-.383.088-.638.22-.68.22-.086.396-.128.573-.17 1.013.51 2.644 1.617 4.979 3.32l.661 1.532.265.638.661 1.745z" fill="#FFA92E"/><path d="M108.579 57.141v.043s-.044-.043 0-.043zm3.085 9.45l-.045-.043.045.043zm3.04 9.407v.043s-.044-.043 0-.043zm6.125 18.942c0-.042-.044-.042-.044-.085l.044.085zm-3.04-9.45c0-.042-.044-.042-.044-.085h.044v.085z" fill="#8C6E54"/><path d="M87.207 45.989v11.876c0 .723.176 1.106.529 1.191l1.63.937c.044.042.132.085.22.128l1.675.936a.966.966 0 00.22.128c.265.085.617 0 1.102-.256l3.657-2.043 5.288-2.98 1.631-.893c-.617 1.702-1.851 3.107-3.746 4.171l-10.752 5.96c-2.82 1.575-4.23.766-4.23-2.342V52.161c-.044-2.64.881-4.64 2.776-6.172z" fill="#3A90DB"/><path d="M83.417 96.6l2.6 1.235-26.616 14.856c.264-1.065.353-2.044.264-2.895l16.922-9.407c1.542-.852 3.084-1.745 4.67-2.64.441-.212.882-.468 1.367-.766.264-.085.529-.255.793-.383zm-47.944 29.457l-2.776-1.277 11.413-6.3c.044.34.088.723.176 1.064.044.298.133.596.22.851.045.128.089.256.133.341l.132.127-9.298 5.194z" fill="#0B498E"/><path d="M70.506 114.776l-.088.042v-.127l.088.085z" fill="#837C6E"/><path d="M70.418 114.904l-12.868 7.109c-.088-.596-.22-1.192-.352-1.788a3.213 3.213 0 01-.132-.937c0-.468.044-.851.176-1.149.22-.681.352-1.107.396-1.234l.044-.085a.877.877 0 01.177-.256L89.146 99.24v3.788l-17.539 9.748-.044 1.404-1.057.596c-.044-.042-.044-.085-.088-.085v.213zm-26.176 14.473l-5.904 3.277-10.092-5.406 1.455-.766c1.322-.766 2.203-1.277 2.688-1.532l.264-.17 2.776 1.277 2.864 1.319 6.963-3.873c0 .595-.044 1.191-.132 1.787a22.35 22.35 0 01-.838 3.15c0 .298 0 .596-.044.937z" fill="#00195F"/><path d="M117.04 111.073l-26.837 14.856-.529-.298 26.969-14.899.397.213v.128-.128.128zm-46.534 3.703l1.057-.596-.044.767 14.895 8.853-15.996-8.939h-.044v-.042l.132-.043z" fill="#EEF6FF"/><path d="M70.33 120.523l.044-1.916v.043l19.83 11.025h.043v-1.873h-.044l-19.83-11.068v-1.872h.045l15.996 8.939 3.216 1.872.089-.042.528.298.044 1.873 26.793-14.856v1.873l-26.793 14.856.044 1.915 26.749-14.856.044 1.873h-.044l-26.749 14.814v-1.831h-.088L70.33 120.523zm20.005 13.408L70.33 122.949v-.511l19.873 11.068.132-.043v.468z" fill="#C5DFFE"/><path d="M70.374 118.522l.044.086h-.044v-.086z" fill="#D7E5EA"/><path d="M57.859 116.564c.132-.213.22-.383.352-.596.53-1.192.97-2.298 1.19-3.278l26.616-14.855 3.085 1.447-31.243 17.282zM45.3 123.502l-6.962 3.874-2.865-1.32 9.254-5.193c.088.128.176.213.22.383.089.213.133.469.177.681.088.511.176 1.065.176 1.575z" fill="#2A78CD"/><path d="M128.585 78.51l.617.51.044.043.264.34c-.044.128-.088.256-.176.341-.485.979-1.322 1.703-2.512 2.17h-.132l-.485-.34a96.844 96.844 0 01-2.644 1.83c-.264.256-.617.341-1.013.256h-.265c-.22-.042-.44-.17-.661-.34l-.044-.043-.22-.468c.176.127.353.213.529.298.44.17.837.213 1.234.042l.528-.298c.133-.085.265-.213.397-.34a3.995 3.995 0 011.322-1.064c.881-.383 1.63-.894 2.203-1.533.441-.425.794-.894 1.014-1.404zm6.257 13.578v1.107c-.044.043-.088.043-.132.085-1.146.553-2.203.383-3.173-.553-.176-.17-.264-.383-.352-.639 0-.042-.044-.085-.044-.127a.77.77 0 01-.088-.298l-1.895-.639-.485-.17-.132-.255-.132-.341v-.043c.132.085.308.17.44.213.265.128.573.213.926.256.088 0 .132.042.22.042.397.128.749.298 1.013.553l.529.511c.573.469 1.234.681 1.895.639.353 0 .749-.085 1.102-.213.088-.043.176-.085.308-.128z" fill="#3B3635"/><path d="M4.098 44.073l-1.85-1.022h-.045c-.264-.17-.396-.553-.396-1.192V27.387c0-1.235.573-2.171 1.674-2.81L30.097 9.764c.573-.298.97-.383 1.278-.213l1.895 1.022c-.264-.128-.705-.043-1.234.255L5.42 25.6c-1.101.639-1.674 1.575-1.674 2.81v14.47c0 .596.088 1.022.352 1.192z" fill="#D0DEFF"/><path d="M33.226 10.53c.308.17.44.554.44 1.193v14.472c0 1.235-.572 2.171-1.718 2.81l-3.129 1.745v8.556l-7.667-4.257-15.776 8.769c-.529.298-.97.383-1.234.213h-.088c-.264-.17-.352-.554-.352-1.15V28.41c0-1.235.572-2.171 1.674-2.81l26.616-14.813c.529-.298.97-.383 1.234-.255zm-23.09 18.39c-.75.425-1.41 1.106-1.94 2-.529.894-.837 1.745-.837 2.597 0 .851.264 1.404.837 1.702.53.298 1.19.256 1.94-.17.748-.426 1.41-1.107 1.982-2 .529-.895.793-1.788.793-2.64 0-.851-.264-1.404-.793-1.702-.529-.298-1.19-.213-1.983.212zm10.707-4.896c-.529-.298-1.19-.255-1.939.17-.749.426-1.41 1.107-1.939 2.001-.528.894-.837 1.745-.837 2.597 0 .851.265 1.404.837 1.702.53.298 1.19.256 1.94-.17.748-.426 1.41-1.064 1.982-1.958.53-.894.793-1.788.793-2.64-.044-.85-.308-1.404-.837-1.702zm8.24-4.682c-.528-.298-1.19-.255-1.938.17-.75.426-1.41 1.107-1.94 2-.528.895-.836 1.746-.836 2.597 0 .852.264 1.405.837 1.703.529.298 1.19.255 1.939-.17.749-.426 1.41-1.064 1.983-1.958.529-.894.793-1.788.793-2.64 0-.85-.264-1.404-.837-1.702z" fill="#EDF2FF"/><path d="M38.161 54.034c.705-.383 1.278-.426 1.807-.17.485.297.705.808.705 1.574 0 .767-.264 1.575-.705 2.384-.485.851-1.102 1.447-1.807 1.83-.705.383-1.278.426-1.762.17-.485-.297-.75-.808-.75-1.574 0-.767.265-1.575.75-2.427.484-.808 1.057-1.404 1.762-1.787z" fill="#92D7FF"/><path d="M25.735 62.547c.484.298.705.809.705 1.618 0 .766-.22 1.575-.705 2.383-.397.681-.882 1.235-1.455 1.618-.132.085-.22.127-.352.213-.132.042-.22.127-.309.17-.572.255-1.057.255-1.454 0-.485-.298-.749-.809-.749-1.575 0-.766.264-1.575.75-2.384.484-.809 1.1-1.447 1.806-1.83.661-.426 1.278-.511 1.763-.213zm.97 16.048c.264-.128.44-.17.616-.128.176.128.264.34.264.638s-.088.596-.264.937c-.176.34-.397.596-.617.724-.308.127-.529.127-.66 0-.221-.086-.354-.256-.354-.554 0-.34.133-.638.353-.979.132-.255.353-.468.661-.638z" fill="#FABD00"/><path d="M30.362 95.877c.044.127.132.255.176.425.088.298.132.596.132.852 0 .553.044 1.106.088 1.66-.881 0-1.542.255-2.027.766 0 0 0 .043-.044.043-.088-.17-.22-.384-.308-.554a6.081 6.081 0 00-.617-.851c-.309-.426-.441-.894-.441-1.448.044-.297.088-.595.176-.85a8.247 8.247 0 01.794-2.044c.088-.043.132-.085.22-.128-.044.256-.088.511-.088.766 0 .724.264 1.192.793 1.405.264.085.66.085 1.146-.042zm10.62-4.725c-.22-.213-.397-.34-.573-.383-.177-.086-.353-.128-.53-.213.442-.34.794-.766 1.147-1.32.484-.766.749-1.447.793-2.128.705.681 1.057 1.277 1.101 1.788 0 .553.133 1.234.353 1.915-.97-.128-1.719-.042-2.292.34zm8.02 15.451c-.044-.042-.089-.127-.133-.17a.58.58 0 01-.132-.17c-.22-.298-.308-.639-.352-1.022l.264.213-.176-.894c.396.468.66.979.705 1.49.044.128.044.298.044.426l-.22.213v-.086z" fill="#E8B588"/><path d="M49.97 109.583a5.51 5.51 0 01-.836-.085l.22-.766-.309-2.086.22-.213c1.059.894 2.16 1.192 3.35.937a.933.933 0 00-.22.128c-.441.212-.838.425-1.146.681-.617.425-1.058.893-1.278 1.404zm4.407-2.469h-.176c-.132-.042-.264-.042-.396-.042a1.55 1.55 0 00-.573.128 2.91 2.91 0 01.352-.128h.044c.133-.085.309-.17.441-.298l.044.128.264.212z" fill="#B58866"/><path d="M53.232 107.157c.176-.085.396-.085.573-.128.132 0 .264 0 .396.043h.177l.22.255s-.044.043-.044.085c-.044 0-.044.043-.044.043-.529.681-1.102 1.234-1.851 1.575-.617.298-1.322.468-2.071.553h-.617c.22-.511.66-.979 1.278-1.405.308-.255.705-.468 1.146-.681a.973.973 0 00.22-.127h.088l.044-.043c.132-.043.264-.085.353-.128.044-.042.088-.042.132-.042z" fill="#DDA274"/><path d="M54.113 150.745l.397 3.022.044.639c.308 2.384.529 4.895.705 7.534 0 .681-.22 1.192-.661 1.49l-1.939.128c-.088-2.341-.397-5.066-.925-8.131a104.48 104.48 0 01-.265-1.574c-.749-4.129-1.145-6.3-1.19-6.513-.352-2.299-.573-4.172-.573-5.662 0-1.872.265-4.043.794-6.512.044-.256.088-.469.132-.724.397-2.043.705-3.788.925-5.278 1.058-.298 1.983-.639 2.82-1.107.794-.426 1.499-.894 2.116-1.49a7.953 7.953 0 001.454-1.745 87.46 87.46 0 01.352 3.533c.044.298.044.596.044.937 0 .255.045.51.045.808.044.469.044.937.044 1.405.088 1.277.132 2.597.22 3.874.044.681.132 1.319.352 1.915 1.014 3.193 1.763 6.385 2.336 9.62.485 2.895.485 5.704-.044 8.471-.044.298-.132.596-.176.894a.914.914 0 01-.485.128c-.44.085-.837.127-1.234.085.044-.085.044-.171.044-.213v-3.15c0-2.682-.485-6.47-1.542-11.365-.661-3.15-1.102-5.704-1.322-7.662a23.605 23.605 0 01-.176-2.767v-.128c.044-.255.044-.511.088-.766-.53.468-1.014.894-1.498 1.234a4.688 4.688 0 00-.97.852c-.352.34-.573.723-.75 1.106l-.131.383v.128c-.044.128-.088.213-.088.341 0 .042-.089.468-.265 1.277a9.152 9.152 0 00-.132 1.362c0 .042 0 .468.044 1.277 0 1.064-.044 2.128-.044 3.192a26.525 26.525 0 001.278 8.641c.088.213.132.341.176.511z" fill="#A48263"/><path d="M52.395 163.558c-.22-.043-.485-.128-.794-.171-2.511-.425-3.745-1.702-3.701-3.745l.44-.298c.133-.639.22-1.32.265-1.958v-.256c0-.213-.044-.426-.044-.638-.353-3.363-.926-6.683-1.763-9.918-.749-2.895-1.454-5.832-2.16-8.727a59.54 59.54 0 01-.264-1.234c-.396-2.341-.44-4.767-.132-7.236.044-.298.089-.596.133-.937.22.17.44.341.66.468.97.596 2.116.894 3.482.852l1.19-.128c.66-.128 1.277-.255 1.85-.426-.176 1.49-.484 3.278-.925 5.279-.044.212-.088.468-.132.723-.53 2.469-.794 4.64-.794 6.513 0 1.49.177 3.363.573 5.661.044.213.441 2.384 1.19 6.513.088.511.176 1.064.265 1.575.528 3.065.837 5.789.925 8.13h-.264v-.042zm7.05-7.066c-1.102-.085-2.027-.681-2.776-1.746a4.81 4.81 0 01-.661-.979c-.088-.127-.132-.212-.22-.34-.265-.468-.441-.979-.573-1.49l.352-1.32v-1.021c-.044-.511-.088-1.022-.132-1.49 0-.043 0-.128-.044-.17 0-.043 0-.085-.044-.171 0-.212-.044-.425-.044-.638 0-.043 0-.085-.044-.128v-.255c0-.128-.044-.256-.044-.383.044.085.044.213.044.298.044-.894.088-1.916.176-3.108.176-1.915.264-3.32.353-4.256.088-.979.132-1.66.176-2.129.088-.808.22-1.489.352-2.128.089-.341.22-.638.353-.979.22 1.958.661 4.512 1.322 7.662 1.014 4.853 1.542 8.641 1.542 11.365v3.15c-.044.128-.088.171-.088.256z" fill="#CEAB8B"/><path d="M56.625 134.144c-.132.341-.22.681-.353.979-.132.639-.264 1.32-.352 2.129-.044.425-.088 1.149-.176 2.128-.089.894-.177 2.341-.353 4.257-.088 1.191-.176 2.213-.176 3.107 0-.085-.044-.213-.044-.298-.133-.681-.265-1.362-.441-2.001-.088-.383-.22-.723-.308-1.106-.044-.086-.089-.128-.089-.213-.528-1.703-1.013-3.406-1.498-5.108 0 .127 0 .255-.044.383-.044-.851-.044-1.277-.044-1.277 0-.341.044-.809.132-1.362.177-.809.265-1.192.265-1.277a.78.78 0 01.088-.341v-.127l.132-.384c.176-.383.397-.766.75-1.106.264-.298.572-.554.969-.852.484-.34.969-.766 1.498-1.234-.044.213-.044.468-.088.766v.128c-.044.766.044 1.702.132 2.809z" fill="#826448"/><path d="M87.25 141.678c.353 1.746 1.72 3.236 4.099 4.427 2.688 1.405 5.905 2.044 9.65 1.916 3.746-.128 6.919-.979 9.519-2.554 2.115-1.277 3.349-2.767 3.701-4.384.044.255.088.468.088.723.089 2.086-1.189 3.916-3.745 5.449-2.6 1.575-5.773 2.426-9.518 2.554-3.746.127-6.963-.511-9.65-1.916-2.689-1.362-4.1-3.107-4.187-5.193 0-.255 0-.553.044-.809-.044-.085-.044-.17 0-.213zm-79.098 6.173v.042c.265 1.447 1.322 2.724 3.217 3.789.397.212.75.383 1.146.553 1.895.809 4.098 1.192 6.61 1.192 2.732 0 5.111-.511 7.094-1.49a4.83 4.83 0 00.661-.341c1.366-.766 2.336-1.66 2.82-2.596.22-.426.353-.851.441-1.277v2.299c.044.127.044.297.044.425 0 .298-.044.596-.132.852-.308 1.319-1.366 2.511-3.129 3.533-2.115 1.191-4.759 1.83-7.843 1.83-3.04 0-5.597-.596-7.756-1.788-1.278-.724-2.203-1.532-2.732-2.426-.353-.596-.485-1.277-.485-1.958v-2.639h.044z" fill="#DA1066"/><path d="M116.951 134.612l.706-.383c.308-.17.44-.425.484-.808.044-.384-.044-.767-.22-1.15a1.987 1.987 0 00-.881-.809c-.353-.17-.661-.17-.926 0l-.705.384v-.128c-.088-.468-.044-.766.176-.894l10.4-5.661c.22-.128.529 0 .925.34.397.341.749.851 1.102 1.447.353.596.573 1.15.661 1.618v.085c.088.468 0 .724-.176.851l-10.4 5.662c-.22.127-.485 0-.881-.383a.568.568 0 01-.265-.171z" fill="#5F5F5F"/><path d="M103.115 139.38l.484-1.15c-.484-1.362-1.586-1.83-3.305-1.489-2.159.383-3.921 1.319-5.287 2.852-.53.553-.706 1.191-.573 1.915a67.379 67.379 0 012.908-1.83c1.674-.979 3.437-1.107 5.332-.341.176.043.308.043.441.043zm-12.118 1.702c.352-1.021 1.233-1.958 2.6-2.766 1.894-1.15 4.186-1.746 6.918-1.831 2.732-.085 5.067.341 7.05 1.362 1.543.809 2.468 1.746 2.865 2.81-.177 1.277-1.058 2.383-2.688 3.362-1.895 1.15-4.187 1.746-6.831 1.831-2.688.085-5.023-.383-6.962-1.405-1.807-.851-2.776-2-2.953-3.363z" fill="#E8FAFF"/><path d="M115.409 131.888l.705-.383a.904.904 0 01.926 0c.352.128.661.426.881.809.22.383.264.766.22 1.149-.044.383-.22.639-.484.809l-.706.383-4.054 2.171c-.661-.724-1.63-1.405-2.82-2.043l5.332-2.895z" fill="#A9A9A9"/></g><defs><clipPath id="clip0"><path fill="#fff" transform="translate(0 .4)" d="M0 0h176v178.78H0z"/></clipPath></defs></svg>