<svg width="161" height="150" fill="none" xmlns="http://www.w3.org/2000/svg"><path d="M102.748 96.094h15.036v25.781h-15.036V96.094z" fill="#4367E0"/><path d="M117.784 84.375h15.036v37.5h-15.036v-37.5z" fill="#4976F2"/><path d="M132.82 63.281h15.037v58.594H132.82V63.281z" fill="#548AFF"/><path d="M87.712 119.531h67.663v4.688H87.712v-4.688z" fill="#D1E4FF"/><path d="M80.194 124.219l-24.84-13.551a12.23 12.23 0 01-4.081-3.58 11.28 11.28 0 01-2.009-4.885l-1.65-10.797v28.125H7.519v-37.5c0-2.486 1.056-4.87 2.936-6.629 1.88-1.758 4.43-2.746 7.088-2.746h32.27c2.236 0 4.407.7 6.17 1.986 1.761 1.287 3.013 3.087 3.555 5.115l5.62 21.024L80.194 112.5v11.719z" fill="#FFB401"/><path d="M37.59 84.375l2.507 11.719-9.523-2.344 2.005-9.375h5.012z" fill="#EF5E3B"/><path d="M32.579 84.375l-2.506-4.688L35.085 75l5.012 4.688-2.506 4.687h-5.012z" fill="#E04F2B"/><path d="M70.17 86.719L54.5 103a23.118 23.118 0 01-7.776 5.286 24.49 24.49 0 01-9.402 1.869c-3.13 0-6.227-.594-9.104-1.747l-13.182-5.284 7.518-14.063 17.543 7.032L62.65 79.688l7.518 7.03z" fill="#FFB401"/><path d="M40.096 98.438c-.339 0-.675-.065-.986-.19L23.87 92.14a2.425 2.425 0 01-1.34-1.284 2.204 2.204 0 01.024-1.793c.13-.284.318-.54.554-.755a2.53 2.53 0 01.82-.499 2.661 2.661 0 011.917.022l13.88 5.564 19.41-14.119a2.633 2.633 0 011.849-.475 2.55 2.55 0 011.667.886c.408.491.591 1.113.509 1.73a2.313 2.313 0 01-.948 1.56L41.635 97.943c-.44.32-.981.494-1.539.493z" fill="#FFA100"/><path d="M37.322 112.5a26.989 26.989 0 01-10.09-1.937l-10.88-4.36a2.426 2.426 0 01-1.34-1.284 2.205 2.205 0 01.024-1.794c.13-.283.318-.539.553-.754.236-.215.514-.385.82-.499a2.66 2.66 0 011.918.022l10.879 4.36a21.92 21.92 0 0012.543 1.108c4.203-.864 8.01-2.937 10.889-5.928L66.63 86.893a2.578 2.578 0 011.731-.773 2.613 2.613 0 011.808.599c.494.416.792.998.827 1.619a2.254 2.254 0 01-.64 1.69L56.363 104.57c-2.404 2.495-5.34 4.49-8.62 5.856a27.172 27.172 0 01-10.42 2.075zm4.243-28.125l-6.48-6.06-6.48 6.06c-.233.218-.51.39-.813.508a2.658 2.658 0 01-1.919 0 2.526 2.526 0 01-.813-.508 2.34 2.34 0 01-.543-.76 2.212 2.212 0 010-1.794 2.34 2.34 0 01.544-.76l8.252-7.718a2.598 2.598 0 011.772-.687c.664 0 1.302.247 1.772.687l8.252 7.717c.233.218.417.476.543.76a2.212 2.212 0 010 1.795 2.34 2.34 0 01-.543.76c-.233.218-.51.39-.813.508a2.658 2.658 0 01-1.918 0 2.523 2.523 0 01-.813-.508z" fill="#FFA100"/><path d="M35.085 75c-1.994 0-3.907-.74-5.317-2.06-1.41-1.318-2.201-3.106-2.201-4.971v-2.344l5.012-4.688h10.024v7.032c0 1.865-.792 3.653-2.202 4.972C38.99 74.259 37.079 75 35.085 75z" fill="#FFCEB6"/><path d="M42.603 60.938l2.078-3.887a3.58 3.58 0 00.12-3.147 3.788 3.788 0 00-.88-1.23 4.083 4.083 0 00-1.315-.823 4.299 4.299 0 00-1.552-.288h-5.97c-1.993 0-3.906.74-5.316 2.059-1.41 1.319-2.201 3.107-2.201 4.972v7.031l5.012-4.688h10.024z" fill="#C47220"/><path d="M65.157 63.281h12.53v9.375h-12.53v-9.375z" fill="#EF5E3B"/><path d="M97.736 77.344l-20.049-4.688v-9.375l20.049-4.687v18.75z" fill="#D1E4FF"/><path d="M110.266 65.625h7.518v4.688h-7.518v-4.688zm-5.46-7.595l5.315-4.971 3.544 3.314-5.315 4.971-3.544-3.314zm-.002 19.885l3.543-3.314 5.316 4.97-3.544 3.315-5.315-4.971z" fill="#BED3F7"/><path d="M62.651 79.688l7.518 7.03 7.519-2.343V72.656h-12.53l-2.507 7.031z" fill="#FFCEB6"/><path d="M124.552 30.195l17.97-16.807 3.544 3.315-17.97 16.806-3.544-3.314zm-21.894-6.682l3.077-3.698 14.637 10.653-3.077 3.698-14.637-10.653zM85.17 41.657l10.55-19.732 4.481 2.095-10.549 19.73-4.48-2.094zM63.653 23.905l4.01-2.812 16.54 20.625-4.01 2.812-16.54-20.625zm-34.395.735l27.897-6.968 1.293 4.528-27.897 6.968-1.293-4.528z" fill="#7DAFFF"/><path d="M80.194 124.219h16.95c.822 0 1.61-.305 2.19-.849.581-.543.908-1.28.908-2.048 0-.538-.16-1.066-.463-1.523a3.024 3.024 0 00-1.25-1.068l-8.311-3.887 1.713-3.205c.231-.432.31-.921.228-1.397a2.255 2.255 0 00-.688-1.258 2.52 2.52 0 00-1.345-.643 2.603 2.603 0 00-1.493.213l-8.44 3.946v11.719z" fill="#FFCEB6"/><path d="M22.554 145.312l7.519-14.062v14.062h17.542v-25.781H7.518v25.781h15.036z" fill="#548AFF"/><path d="M25.06 32.813c2.768 0 5.013-2.1 5.013-4.688 0-2.589-2.245-4.688-5.013-4.688s-5.012 2.1-5.012 4.688c0 2.589 2.244 4.688 5.012 4.688z" fill="#639AFF"/><path d="M25.06 35.156a7.893 7.893 0 01-4.176-1.185 7.155 7.155 0 01-2.77-3.155 6.61 6.61 0 01-.427-4.063 6.902 6.902 0 012.057-3.6 7.692 7.692 0 013.85-1.924 8.003 8.003 0 014.343.4 7.433 7.433 0 013.374 2.59 6.712 6.712 0 011.268 3.906c-.003 1.864-.796 3.651-2.205 4.97-1.41 1.318-3.32 2.06-5.314 2.061zm0-9.375c-.495 0-.98.138-1.392.395a2.385 2.385 0 00-.923 1.052c-.19.428-.24.9-.143 1.354.097.455.336.872.686 1.2.35.328.797.551 1.284.642.486.09.99.044 1.448-.134a2.472 2.472 0 001.124-.863c.276-.385.423-.838.423-1.302a2.275 2.275 0 00-.735-1.657 2.6 2.6 0 00-1.772-.687z" fill="#A6CFFF"/><path d="M62.651 23.438c2.768 0 5.012-2.1 5.012-4.688 0-2.589-2.244-4.688-5.012-4.688-2.768 0-5.012 2.1-5.012 4.688 0 2.589 2.244 4.688 5.012 4.688z" fill="#639AFF"/><path d="M62.651 25.781a7.893 7.893 0 01-4.177-1.185 7.155 7.155 0 01-2.769-3.155 6.61 6.61 0 01-.427-4.063 6.902 6.902 0 012.057-3.6 7.692 7.692 0 013.85-1.924 8.003 8.003 0 014.343.4 7.433 7.433 0 013.374 2.59 6.712 6.712 0 011.267 3.906c-.002 1.864-.795 3.651-2.204 4.97-1.41 1.318-3.32 2.06-5.314 2.061zm0-9.375c-.495 0-.98.138-1.392.395a2.385 2.385 0 00-.923 1.052c-.19.428-.24.9-.143 1.354.097.455.336.872.686 1.2.35.328.797.551 1.283.642.486.09.99.044 1.448-.134a2.47 2.47 0 001.125-.863c.275-.385.422-.838.422-1.302 0-.621-.265-1.217-.735-1.657a2.6 2.6 0 00-1.77-.687z" fill="#A6CFFF"/><path d="M85.206 51.563c2.768 0 5.012-2.1 5.012-4.688 0-2.589-2.244-4.688-5.012-4.688-2.769 0-5.013 2.1-5.013 4.688 0 2.589 2.245 4.688 5.013 4.688z" fill="#639AFF"/><path d="M85.206 53.906a7.894 7.894 0 01-4.177-1.185 7.156 7.156 0 01-2.77-3.155 6.61 6.61 0 01-.427-4.063 6.902 6.902 0 012.058-3.6 7.692 7.692 0 013.849-1.924 8.003 8.003 0 014.344.4 7.433 7.433 0 013.374 2.59 6.712 6.712 0 011.267 3.906c-.002 1.864-.795 3.651-2.205 4.97-1.41 1.318-3.32 2.06-5.313 2.061zm0-9.375c-.496 0-.98.138-1.393.395a2.386 2.386 0 00-.923 1.052c-.19.428-.239.9-.142 1.354.096.455.335.873.685 1.2.351.328.798.551 1.284.642.486.09.99.044 1.448-.134a2.472 2.472 0 001.124-.863c.276-.385.423-.838.423-1.302a2.275 2.275 0 00-.735-1.657 2.6 2.6 0 00-1.771-.687z" fill="#A6CFFF"/><path d="M100.242 23.438c2.768 0 5.012-2.1 5.012-4.688 0-2.589-2.244-4.688-5.012-4.688-2.768 0-5.012 2.1-5.012 4.688 0 2.589 2.244 4.688 5.012 4.688z" fill="#639AFF"/><path d="M100.242 25.781a7.893 7.893 0 01-4.177-1.185 7.155 7.155 0 01-2.769-3.155 6.61 6.61 0 01-.428-4.063 6.902 6.902 0 012.058-3.6 7.692 7.692 0 013.85-1.924 8.003 8.003 0 014.343.4 7.431 7.431 0 013.374 2.59 6.713 6.713 0 011.267 3.906c-.002 1.864-.795 3.651-2.205 4.97-1.409 1.318-3.32 2.06-5.313 2.061zm0-9.375c-.496 0-.98.138-1.392.395a2.385 2.385 0 00-.923 1.052c-.19.428-.24.9-.143 1.354a2.3 2.3 0 00.686 1.2c.35.328.797.551 1.283.642.486.09.99.044 1.448-.134a2.48 2.48 0 001.125-.863 2.24 2.24 0 00.422-1.302 2.273 2.273 0 00-.735-1.657 2.6 2.6 0 00-1.771-.687z" fill="#A6CFFF"/><path d="M122.796 39.844c2.768 0 5.012-2.099 5.012-4.688 0-2.589-2.244-4.687-5.012-4.687-2.768 0-5.012 2.098-5.012 4.687 0 2.59 2.244 4.688 5.012 4.688z" fill="#639AFF"/><path d="M122.796 42.188a7.895 7.895 0 01-4.177-1.186 7.157 7.157 0 01-2.769-3.155 6.61 6.61 0 01-.427-4.063 6.904 6.904 0 012.057-3.6 7.694 7.694 0 013.85-1.924 8 8 0 014.343.4 7.431 7.431 0 013.374 2.59 6.713 6.713 0 011.267 3.906c-.002 1.864-.795 3.652-2.204 4.97-1.41 1.318-3.32 2.06-5.314 2.062zm0-9.376c-.495 0-.98.138-1.392.396a2.388 2.388 0 00-.923 1.051c-.19.429-.239.9-.143 1.355.097.454.336.872.686 1.2.351.327.797.55 1.283.641.487.09.99.044 1.448-.133.458-.178.85-.478 1.125-.864a2.24 2.24 0 00.422-1.302c0-.621-.265-1.217-.735-1.656a2.596 2.596 0 00-1.771-.688z" fill="#A6CFFF"/><path d="M147.857 16.406c2.768 0 5.012-2.098 5.012-4.687 0-2.59-2.244-4.688-5.012-4.688-2.768 0-5.012 2.099-5.012 4.688 0 2.589 2.244 4.687 5.012 4.687z" fill="#639AFF"/><path d="M147.857 18.75a7.893 7.893 0 01-4.177-1.185 7.157 7.157 0 01-2.769-3.156 6.61 6.61 0 01-.428-4.062 6.9 6.9 0 012.058-3.6 7.69 7.69 0 013.849-1.924 8.004 8.004 0 014.344.4 7.43 7.43 0 013.374 2.59 6.713 6.713 0 011.267 3.906c-.002 1.864-.795 3.651-2.205 4.97-1.409 1.317-3.32 2.059-5.313 2.061zm0-9.375c-.496 0-.98.137-1.393.395a2.388 2.388 0 00-.923 1.052c-.189.428-.239.9-.142 1.354a2.3 2.3 0 00.686 1.2c.35.328.797.551 1.283.642.486.09.99.043 1.448-.134a2.474 2.474 0 001.124-.863c.276-.386.423-.839.423-1.302a2.272 2.272 0 00-.735-1.657 2.6 2.6 0 00-1.771-.687z" fill="#A6CFFF"/></svg>